<?xml version="1.0" standalone="no"?> <!DOCTYPE svg PUBLIC "-//W3C//DTD SVG 1.0//EN" "http://www.w3.org/TR/2001/REC-SVG-20010904/DTD/svg10.dtd" > <svg xmlns="http://www.w3.org/2000/svg" width="100%" height="100%">
<defs >
<font id="PrecisionSans_W_RgIt" horiz-adv-x="541" ><font-face
    font-family="Precision Sans W"
    units-per-em="1000"
    panose-1="2 11 6 3 2 2 4 2 2 4"
    ascent="957"
    descent="-249"
    alphabetic="0" />
<missing-glyph horiz-adv-x="500" d="M50 0V750H450V0H50ZM400 700H100V50H400V700Z" />
<glyph unicode="&#x0;" glyph-name=".null" horiz-adv-x="0" />
<glyph unicode="&#x8;" glyph-name=".null" horiz-adv-x="0" />
<glyph unicode="&#x9;" glyph-name="CR" horiz-adv-x="225" />
<glyph unicode="&#xd;" glyph-name="CR" horiz-adv-x="225" />
<glyph unicode="&#x1d;" glyph-name=".null" horiz-adv-x="0" />
<glyph unicode=" " glyph-name="space" horiz-adv-x="225" />
<glyph unicode="!" glyph-name="exclam" horiz-adv-x="268" d="M126 214L207 719H316L221 214H126ZM205 62Q205 31 185 12T133 -8Q110 -8 96 5T82 42Q82 73 102 92T154 112Q177 112 191 99T205 62Z" />
<glyph unicode="&quot;" glyph-name="quotedbl" horiz-adv-x="398" d="M148 531L186 749H280L241 531H148ZM326 531L364 749H458L419 531H326Z" />
<glyph unicode="#" glyph-name="numbersign" horiz-adv-x="596" d="M452 443H316L273 276H409L452 443ZM341 19L389 197H252L205 19H114L162 197H56L69 276H183L226 443H119L132 522H247L294 700H384L336 522H473L520 700H611L563 522H669L656 443H542L499 276H606L593
197H478L431 19H341Z" />
<glyph unicode="$" glyph-name="dollar" horiz-adv-x="596" d="M239 -118L258 -11Q211 -11 162 -3T80 19L85 113Q171 80 260 80Q340 80 387 115T434 208Q434 248 409 276T320 338Q239 381 208 421T176 521Q176 604 232 656T387 718L404 814H474L457 719Q527 716
591 692L583 602Q554 616 510 625T426 634Q358 634 322 609T285 536Q285 502 309 476T394 417Q482 369 514 329T547 227Q547 137 489 75T330 -5L309 -118H239Z" />
<glyph unicode="%" glyph-name="percent" horiz-adv-x="1043" d="M248 0L804 711H912L356 0H248ZM819 63Q866 63 897 116T928 243Q928 339 860 339Q830 339 806 317T766 252T751 159Q751 63 819 63ZM810 -11Q736 -11 696 33T656 156Q656 227 683 285T758 378T869
413Q942 413 982 370T1022 246Q1022 175 996 117T921 24T810 -11ZM298 369Q345 369 376 422T407 549Q407 645 339 645Q309 645 285 623T245 558T230 465Q230 369 298 369ZM289 295Q215 295 175 339T135 462Q135 533 162 591T237 684T348 719Q421 719 461 676T501
552Q501 481 475 423T400 330T289 295Z" />
<glyph unicode="&amp;" glyph-name="ampersand" horiz-adv-x="717" d="M616 0L546 82Q458 -12 321 -12Q211 -12 150 41T88 189Q88 261 134 321T264 419Q238 456 227 487T215 555Q215 635 267 683T407 731Q479 731 537 702L541 622Q484 654 427 654Q378 654 349
628T319 558Q319 523 338 487T406 393L537 237Q557 303 560 385H651Q651 255 603 159L738 0H616ZM309 359Q255 332 227 292T198 200Q198 141 234 109T334 76Q383 76 422 94T489 148L309 359Z" />
<glyph unicode="&apos;" glyph-name="quotesingle" horiz-adv-x="220" d="M148 531L186 749H280L241 531H148Z" />
<glyph unicode="(" glyph-name="parenleft" horiz-adv-x="322" d="M167 -167Q144 -113 130 -34T116 129Q116 306 172 477T331 776H431Q327 634 273 469T218 129Q218 50 231 -30T265 -167H167Z" />
<glyph unicode=")" glyph-name="parenright" horiz-adv-x="322" d="M-8 -167Q96 -25 150 140T205 480Q205 559 192 639T158 776H256Q279 722 293 643T307 480Q307 303 251 132T92 -167H-8Z" />
<glyph unicode="*" glyph-name="asterisk" horiz-adv-x="453" d="M150 372L237 481L293 436L194 335L150 372ZM391 335L318 436L384 481L439 372L391 335ZM396 502L385 575L516 609L524 550L396 502ZM127 550L149 609L268 576L236 502L127 550ZM291 589L322 719H384L369
589H291Z" />
<glyph unicode="+" glyph-name="plus" horiz-adv-x="596" d="M389 311L357 127H267L299 311H134L149 396H314L346 580H436L404 396H569L554 311H389Z" />
<glyph unicode="," glyph-name="comma" horiz-adv-x="220" d="M20 -138Q70 -44 94 101H188Q163 -40 100 -138H20Z" />
<glyph unicode="-" glyph-name="hyphen" horiz-adv-x="345" d="M89 237L105 326H364L348 237H89Z" />
<glyph unicode="." glyph-name="period" horiz-adv-x="220" d="M181 62Q181 31 161 12T109 -8Q86 -8 72 5T58 42Q58 73 78 92T130 112Q153 112 167 99T181 62Z" />
<glyph unicode="/" glyph-name="slash" horiz-adv-x="368" d="M17 0L380 719H481L118 0H17Z" />
<glyph unicode="0" glyph-name="zero" horiz-adv-x="596" d="M304 80Q360 80 408 129T485 267T515 465Q515 547 488 587T403 627Q362 627 325 600T258 522T210 398T192 241Q192 159 219 120T304 80ZM293 -12Q191 -12 137 52T83 238Q83 373 124 482T240 655T414
719Q516 719 570 655T624 468Q624 334 583 226T467 53T293 -12Z" />
<glyph unicode="1" glyph-name="one" horiz-adv-x="596" d="M259 0L360 573L209 509L183 585L469 712H486L360 0H259Z" />
<glyph unicode="2" glyph-name="two" horiz-adv-x="596" d="M51 0L49 18L292 266Q371 346 405 389T452 463T465 529Q465 627 346 627Q264 627 159 588L188 679Q290 719 374 719Q469 719 521 675T573 548Q573 498 555 454T496 358T384 235L241 91H543L527 0H51Z" />
<glyph unicode="3" glyph-name="three" horiz-adv-x="596" d="M94 114Q170 80 255 80Q344 80 395 123T447 242Q447 294 414 321T316 348Q275 348 225 338L218 351L445 616H179L195 707H613L618 695L383 419Q463 413 508 368T554 248Q554 171 520 113T421 21T269
-12Q223 -12 173 -3T89 22L94 114Z" />
<glyph unicode="4" glyph-name="four" horiz-adv-x="596" d="M372 0L397 136H66L61 148L435 723L517 687L217 225H413L448 412H545L512 225H600L584 136H496L471 0H372Z" />
<glyph unicode="5" glyph-name="five" horiz-adv-x="596" d="M88 114Q119 99 161 90T244 80Q331 80 383 125T436 247Q436 303 403 330T301 358Q230 358 166 336L157 345L236 707H592L576 618H312L273 439Q316 446 348 446Q441 446 493 396T546 255Q546 181 510
121T408 24T256 -12Q213 -12 165 -3T82 22L88 114Z" />
<glyph unicode="6" glyph-name="six" horiz-adv-x="596" d="M608 640Q484 633 386 566T243 390Q274 424 317 441T410 459Q493 459 540 411T587 276Q587 201 552 135T454 28T310 -12Q213 -12 162 47T110 216Q110 337 171 449T341 637T582 719L608 640ZM318 75Q361
75 398 99T458 166T481 263Q481 318 455 346T378 374Q332 374 295 352T235 289T212 196Q212 139 240 107T318 75Z" />
<glyph unicode="7" glyph-name="seven" horiz-adv-x="596" d="M145 31L490 616H173L188 707H646L649 699L235 -13L145 31Z" />
<glyph unicode="8" glyph-name="eight" horiz-adv-x="596" d="M477 378Q576 333 576 225Q576 160 541 106T442 20T295 -12Q196 -12 141 34T85 165Q85 214 105 259T162 337T248 385Q213 402 193 436T173 515Q173 571 204 617T292 691T423 719Q511 719 560 679T609
566Q609 505 574 455T477 378ZM471 225Q471 280 441 309T356 338Q284 338 238 293T192 177Q192 72 306 72Q382 72 426 114T471 225ZM508 550Q508 594 483 616T408 639Q346 639 309 605T271 516Q271 471 297 447T372 422Q432 422 470 458T508 550Z" />
<glyph unicode="9" glyph-name="nine" horiz-adv-x="596" d="M107 65Q242 79 341 152T477 340Q446 296 399 272T294 248Q213 248 168 298T122 436Q122 513 157 577T256 680T402 719Q499 719 549 661T600 492Q600 368 540 257T372 71T131 -12L107 65ZM329 333Q375
333 412 356T473 422T497 517Q497 572 469 602T390 632Q345 632 309 609T250 542T228 445Q228 333 329 333Z" />
<glyph unicode=":" glyph-name="colon" horiz-adv-x="220" d="M181 62Q181 31 161 12T109 -8Q86 -8 72 5T58 42Q58 73 78 92T130 112Q153 112 167 99T181 62ZM250 446Q250 415 230 396T178 376Q155 376 141 389T127 426Q127 457 147 476T199 496Q222 496 236 483T250
446Z" />
<glyph unicode=";" glyph-name="semicolon" horiz-adv-x="220" d="M20 -138Q70 -44 94 101H188Q163 -40 100 -138H20ZM251 446Q251 415 231 396T179 376Q156 376 142 389T128 426Q128 457 148 476T200 496Q223 496 237 483T251 446Z" />
<glyph unicode="&lt;" glyph-name="less" horiz-adv-x="596" d="M122 292L141 397L588 567L570 465L224 340L528 211L512 121L122 292Z" />
<glyph unicode="=" glyph-name="equal" horiz-adv-x="596" d="M118 210L133 299H554L538 210H118ZM152 403L167 492H588L572 403H152Z" />
<glyph unicode="&gt;" glyph-name="greater" horiz-adv-x="596" d="M113 121L131 223L477 348L173 477L189 567L579 396L560 291L113 121Z" />
<glyph unicode="?" glyph-name="question" horiz-adv-x="457" d="M185 214L214 377Q306 400 353 442T400 544Q400 588 370 611T280 634Q214 634 145 612L165 697Q244 722 313 722Q402 722 455 679T509 562Q509 482 450 415T296 317L278 214H185ZM263 62Q263 31
243 12T191 -8Q168 -8 154 5T140 42Q140 73 160 92T212 112Q235 112 249 99T263 62Z" />
<glyph unicode="@" glyph-name="at" horiz-adv-x="985" d="M647 435Q625 441 601 441Q552 441 511 415T444 339T419 229Q419 178 440 154T510 130Q553 130 592 149L647 435ZM671 -115Q638 -131 584 -140T467 -149Q353 -149 268 -107T137 18T91 216Q91 357 157
474T346 660T632 729Q745 729 827 690T954 575T999 393Q999 301 965 224T869 102T725 56Q690 56 665 63T617 87Q556 50 476 50Q402 50 361 93T319 212Q319 297 356 367T460 479T611 522Q681 522 755 499L683 143Q700 130 735 130Q782 130 820 164T883 260T907 395Q907
518 835 582T624 646Q497 646 399 594T243 443T185 218Q185 78 261 6T486 -67Q535 -67 591 -59T678 -40L671 -115Z" />
<glyph unicode="A" glyph-name="A" horiz-adv-x="600" d="M479 0L459 166H205L128 0H21L364 719H487L586 0H479ZM409 611L246 255H449L409 611Z" />
<glyph unicode="B" glyph-name="B" horiz-adv-x="573" d="M215 720Q288 731 362 731Q474 731 531 691T588 572Q588 505 548 453T446 385Q482 378 510 357T554 303T570 231Q570 116 485 52T247 -12Q165 -12 88 0L215 720ZM330 420Q401 420 442 456T484 554Q484
602 456 624T365 646Q323 646 303 642L264 420H330ZM250 339L204 78Q234 73 268 73Q360 73 411 114T463 229Q463 339 328 339H250Z" />
<glyph unicode="C" glyph-name="C" horiz-adv-x="583" d="M551 22Q514 6 467 -3T369 -12Q244 -12 176 63T107 276Q107 406 154 509T289 671T493 731Q581 731 652 701L639 606Q577 640 491 640Q410 640 348 597T252 471T217 276Q217 180 262 130T392 79Q433 79
486 89T574 113L551 22Z" />
<glyph unicode="D" glyph-name="D" horiz-adv-x="681" d="M215 720Q306 731 371 731Q528 731 610 656T693 437Q693 305 641 204T492 45T262 -12Q174 -12 88 0L215 720ZM206 84Q236 79 289 79Q374 79 441 120T546 240T584 423Q584 640 376 640Q338 640 303 636L206 84Z" />
<glyph unicode="E" glyph-name="E" horiz-adv-x="517" d="M88 0L215 719H598L582 628H302L263 406H489L473 315H247L207 91H496L480 0H88Z" />
<glyph unicode="F" glyph-name="F" horiz-adv-x="486" d="M88 0L215 719H575L559 628H302L263 406H489L473 315H247L191 0H88Z" />
<glyph unicode="G" glyph-name="G" horiz-adv-x="654" d="M540 331H644L591 26Q547 8 491 -2T377 -12Q250 -12 179 64T107 279Q107 412 154 514T290 673T500 731Q588 731 669 702L656 609Q586 640 502 640Q416 640 352 598T252 474T217 279Q217 79 405 79Q455
79 499 93L540 331Z" />
<glyph unicode="H" glyph-name="H" horiz-adv-x="678" d="M483 0L541 330H249L191 0H88L215 719H318L265 421H557L610 719H713L586 0H483Z" />
<glyph unicode="I" glyph-name="I" horiz-adv-x="283" d="M88 0L215 719H318L191 0H88Z" />
<glyph unicode="J" glyph-name="J" horiz-adv-x="392" d="M329 719H432L334 165Q318 75 267 32T126 -12Q77 -12 37 4L45 91Q90 79 122 79Q174 79 199 101T234 179L329 719Z" />
<glyph unicode="K" glyph-name="K" horiz-adv-x="575" d="M88 0L215 719H318L191 0H88ZM468 0L260 365L561 719H678L373 365L584 0H468Z" />
<glyph unicode="L" glyph-name="L" horiz-adv-x="499" d="M88 0L215 719H318L207 91H491L475 0H88Z" />
<glyph unicode="M" glyph-name="M" horiz-adv-x="798" d="M618 0L695 561L460 145H383L292 561L168 0H71L236 719H348L445 273L697 719H810L718 0H618Z" />
<glyph unicode="N" glyph-name="N" horiz-adv-x="672" d="M486 0L277 537L182 0H88L215 719H309L518 182L613 719H707L580 0H486Z" />
<glyph unicode="O" glyph-name="O" horiz-adv-x="695" d="M344 -12Q231 -12 169 57T107 253Q107 384 152 492T280 666T471 731Q583 731 645 662T707 466Q707 334 662 226T533 53T344 -12ZM355 79Q422 79 477 127T566 264T600 465Q600 640 459 640Q392 640 337
592T248 455T214 254Q214 79 355 79Z" />
<glyph unicode="P" glyph-name="P" horiz-adv-x="559" d="M253 350Q272 346 311 346Q399 346 448 394T497 527Q497 588 463 617T359 646Q328 646 304 642L253 350ZM88 0L215 720Q307 731 361 731Q479 731 542 681T605 539Q605 457 569 394T465 296T305 261Q280
261 238 265L191 0H88Z" />
<glyph unicode="Q" glyph-name="Q" horiz-adv-x="695" d="M326 -12Q222 -6 165 63T107 253Q107 384 152 492T280 666T471 731Q583 731 645 662T707 466Q707 322 648 205T489 33L688 6L653 -76L326 -12ZM355 79Q422 79 477 127T566 264T600 465Q600 640 459 640Q392
640 337 592T248 455T214 254Q214 79 355 79Z" />
<glyph unicode="R" glyph-name="R" horiz-adv-x="571" d="M457 0L262 365H297Q386 365 441 409T497 525Q497 587 463 616T358 646Q354 646 349 646T333 644T304 642L191 0H88L215 720Q289 731 358 731Q478 731 540 683T603 542Q603 487 579 439T508 356T401 310L572
0H457Z" />
<glyph unicode="S" glyph-name="S" horiz-adv-x="528" d="M64 116Q144 78 231 78Q313 78 360 115T407 216Q407 257 386 282T300 342Q219 386 187 427T154 530Q154 589 185 634T273 705T409 731Q487 731 572 702L568 609Q539 624 495 633T412 643Q340 643 302 618T263
544Q263 507 284 481T361 424Q452 375 486 333T520 224Q520 118 440 53T227 -12Q128 -12 55 21L64 116Z" />
<glyph unicode="T" glyph-name="T" horiz-adv-x="506" d="M197 0L308 628H126L142 719H609L593 628H411L300 0H197Z" />
<glyph unicode="U" glyph-name="U" horiz-adv-x="664" d="M601 719H704L628 287Q600 127 529 58T327 -12Q223 -12 172 38T121 189Q121 225 132 293L207 719H310L239 314Q226 239 226 196Q226 134 253 107T342 79Q397 79 433 102T491 175T529 312L601 719Z" />
<glyph unicode="V" glyph-name="V" horiz-adv-x="599" d="M243 0L145 719H255L323 105L587 719H698L367 0H243Z" />
<glyph unicode="W" glyph-name="W" horiz-adv-x="891" d="M572 0L537 561L310 0H189L148 719H255L275 121L512 719H623L658 121L871 719H981L694 0H572Z" />
<glyph unicode="X" glyph-name="X" horiz-adv-x="601" d="M25 0L259 375L159 719H267L362 375L140 0H25ZM483 0L367 375L572 719H683L470 375L591 0H483Z" />
<glyph unicode="Y" glyph-name="Y" horiz-adv-x="540" d="M218 0L264 262L128 719H239L334 357L539 719H651L367 260L322 0H218Z" />
<glyph unicode="Z" glyph-name="Z" horiz-adv-x="529" d="M34 0L29 10L453 628H158L174 719H617L622 709L197 91H510L494 0H34Z" />
<glyph unicode="[" glyph-name="bracketleft" horiz-adv-x="328" d="M55 -168L217 760H433L419 678H301L166 -86H284L270 -168H55Z" />
<glyph unicode="\" glyph-name="backslash" horiz-adv-x="406" d="M294 0L126 719H225L393 0H294Z" />
<glyph unicode="]" glyph-name="bracketright" horiz-adv-x="328" d="M-2 -168L12 -86H130L265 678H147L161 760H376L214 -168H-2Z" />
<glyph unicode="^" glyph-name="asciicircum" horiz-adv-x="596" d="M450 368L386 629L229 368H131L347 719H452L545 368H450Z" />
<glyph unicode="_" glyph-name="underscore" horiz-adv-x="500" d="M-7 -113L7 -24H507L492 -113H-7Z" />
<glyph unicode="`" glyph-name="grave" horiz-adv-x="580" d="M290 593L184 722H301L380 593H290Z" />
<glyph unicode="a" glyph-name="a" horiz-adv-x="543" d="M392 0L395 81Q362 37 317 13T222 -12Q156 -12 118 37T79 170Q79 265 120 345T235 475T403 525Q481 525 555 496L506 218Q488 119 483 0H392ZM447 434Q426 441 397 441Q355 441 317 423T249 371T201 289T183
183Q183 72 258 72Q296 72 333 98T401 173L447 434Z" />
<glyph unicode="b" glyph-name="b" horiz-adv-x="547" d="M211 737H310L270 507Q318 525 369 525Q458 525 508 472T558 324Q558 224 520 148T408 30T234 -12Q158 -12 85 17L211 737ZM195 82Q218 72 262 72Q348 72 401 139T454 316Q454 441 332 441Q289 441 256
428L195 82Z" />
<glyph unicode="c" glyph-name="c" horiz-adv-x="448" d="M420 11Q356 -12 283 -12Q184 -12 132 42T79 197Q79 285 115 360T219 480T373 525Q435 525 492 504L485 423Q430 441 369 441Q316 441 274 412T208 329T183 207Q183 142 215 107T309 72Q369 72 442 93L420 11Z" />
<glyph unicode="d" glyph-name="d" d="M497 737H596L470 23Q433 6 383 -3T279 -12Q187 -12 133 45T79 201Q79 292 115 365T219 482T375 525Q417 525 458 514L497 737ZM444 431Q418 441 375 441Q286 441 235 378T183 205Q183 72 306 72Q351 72 382 81L444 431Z" />
<glyph unicode="e" glyph-name="e" horiz-adv-x="488" d="M441 17Q410 4 367 -4T283 -12Q184 -12 132 43T79 203Q79 263 99 320T158 423T251 497T369 525Q436 525 474 493T513 406Q513 333 449 287T249 218L179 206Q182 137 212 104T304 70Q376 70 456 96L441
17ZM240 287Q329 301 372 327T415 395Q415 419 398 433T352 448Q313 448 279 427T220 368T186 278L240 287Z" />
<glyph unicode="f" glyph-name="f" horiz-adv-x="334" d="M100 0L177 434H92L106 514H191L197 550Q213 644 267 693T409 743Q446 743 482 733L485 653Q448 661 414 661Q360 661 332 634T295 547L290 514H421L407 434H276L199 0H100Z" />
<glyph unicode="g" glyph-name="g" horiz-adv-x="544" d="M448 434Q424 441 397 441Q342 441 294 409T215 319T184 190Q184 86 262 86Q302 86 341 110T402 173L448 434ZM384 66Q357 37 315 20T231 2Q162 2 121 49T80 182Q80 269 122 347T238 475T404 525Q440 525
481 517T556 496L469 -1Q447 -123 372 -186T173 -249Q78 -249 21 -216L29 -138Q113 -168 181 -168Q261 -168 306 -129T369 -5L384 66Z" />
<glyph unicode="h" glyph-name="h" horiz-adv-x="580" d="M409 0L460 289Q466 327 466 352Q466 439 369 439Q307 439 255 420L181 0H82L211 737H310L269 504Q337 525 401 525Q570 525 570 384Q570 349 564 319L508 0H409Z" />
<glyph unicode="i" glyph-name="i" horiz-adv-x="256" d="M82 0L173 514H272L181 0H82ZM310 683Q310 653 289 633T238 613Q215 613 201 627T187 663Q187 693 208 713T259 733Q282 733 296 719T310 683Z" />
<glyph unicode="j" glyph-name="j" horiz-adv-x="256" d="M173 514H272L165 -91Q152 -169 106 -209T-18 -249Q-72 -249 -109 -234L-102 -157Q-69 -167 -24 -167Q12 -167 36 -146T67 -85L173 514ZM310 683Q310 653 289 633T238 613Q215 613 201 627T187 663Q187
693 208 713T259 733Q282 733 296 719T310 683Z" />
<glyph unicode="k" glyph-name="k" horiz-adv-x="490" d="M82 0L211 737H310L181 0H82ZM399 0L232 267L458 514H571L340 268L510 0H399Z" />
<glyph unicode="l" glyph-name="l" horiz-adv-x="256" d="M82 0L212 737H311L181 0H82Z" />
<glyph unicode="m" glyph-name="m" horiz-adv-x="851" d="M680 0L731 289Q737 322 737 352Q737 439 646 439Q592 439 536 411Q540 387 540 373Q540 347 534 309L479 0H380L431 289Q437 322 437 352Q437 394 416 416T352 439Q305 439 255 421L181 0H82L167 481Q237
505 286 515T382 525Q465 525 506 478Q598 525 679 525Q757 525 799 489T841 384Q841 354 835 319L779 0H680Z" />
<glyph unicode="n" glyph-name="n" horiz-adv-x="580" d="M409 0L460 289Q466 325 466 352Q466 439 369 439Q307 439 255 420L181 0H82L167 481Q234 504 288 514T401 525Q570 525 570 384Q570 349 564 319L508 0H409Z" />
<glyph unicode="o" glyph-name="o" horiz-adv-x="548" d="M280 72Q329 72 368 104T431 196T455 327Q455 383 431 412T358 441Q309 441 270 409T206 317T182 187Q182 131 206 102T280 72ZM270 -12Q178 -12 129 39T79 187Q79 274 115 352T217 478T368 525Q460 525
509 474T559 326Q559 239 523 161T421 35T270 -12Z" />
<glyph unicode="p" glyph-name="p" horiz-adv-x="547" d="M41 -238L168 487Q209 505 260 515T361 525Q455 525 506 473T558 324Q558 228 522 152T420 32T265 -12Q224 -12 180 -1L139 -238H41ZM195 82Q218 72 262 72Q348 72 401 139T454 316Q454 441 332 441Q289
441 256 428L195 82Z" />
<glyph unicode="q" glyph-name="q" horiz-adv-x="543" d="M327 -238L381 64Q349 27 308 8T222 -12Q156 -12 118 37T79 170Q79 265 120 345T235 475T403 525Q481 525 555 496L426 -238H327ZM447 434Q426 441 397 441Q355 441 317 423T249 371T201 289T183 183Q183
72 258 72Q296 72 333 98T401 173L447 434Z" />
<glyph unicode="r" glyph-name="r" horiz-adv-x="363" d="M82 0L168 487Q220 507 263 516T351 525Q392 525 432 517L426 429Q386 437 342 437Q302 437 256 425L181 0H82Z" />
<glyph unicode="s" glyph-name="s" horiz-adv-x="431" d="M61 108Q87 90 125 80T201 69Q257 69 287 90T317 153Q317 173 309 186T283 210T231 235Q171 260 146 289T120 365Q120 438 175 481T323 525Q362 525 399 516T459 490L449 409Q410 429 378 437T312 446Q268
446 245 429T221 381Q221 355 237 339T295 306Q363 278 391 247T420 171Q420 86 360 37T197 -12Q151 -12 113 -2T51 25L61 108Z" />
<glyph unicode="t" glyph-name="t" horiz-adv-x="346" d="M342 7Q300 -11 231 -11Q176 -11 146 19T116 104Q116 132 120 151L171 434H86L100 514H185L209 651H308L284 514H410L396 434H270L223 169Q218 145 218 128Q218 98 232 85T279 71Q324 71 364 82L342 7Z" />
<glyph unicode="u" glyph-name="u" horiz-adv-x="562" d="M479 514H578L490 15Q394 -12 304 -12Q201 -12 152 28T102 154Q102 185 110 228L160 514H259L210 232Q204 198 204 171Q204 117 231 95T323 72Q372 72 403 82L479 514Z" />
<glyph unicode="v" glyph-name="v" horiz-adv-x="493" d="M188 0L95 514H200L258 100L466 514H573L290 0H188Z" />
<glyph unicode="w" glyph-name="w" horiz-adv-x="763" d="M483 0L433 368L282 0H175L106 514H211L249 106L410 514H509L557 106L721 514H820L591 0H483Z" />
<glyph unicode="x" glyph-name="x" horiz-adv-x="499" d="M15 0L203 267L128 514H232L301 263L124 0H15ZM394 0L305 263L462 514H571L403 267L496 0H394Z" />
<glyph unicode="y" glyph-name="y" horiz-adv-x="493" d="M57 -238L188 0L95 514H200L258 100L466 514H573L159 -238H57Z" />
<glyph unicode="z" glyph-name="z" horiz-adv-x="447" d="M33 0L30 14L349 434H125L139 514H505L507 499L188 80H430L416 0H33Z" />
<glyph unicode="{" glyph-name="braceleft" horiz-adv-x="372" d="M307 -168Q218 -168 176 -135T133 -33Q133 -3 140 38L155 124Q160 154 160 177Q160 216 145 244T92 301Q134 324 157 347T193 400T214 477L229 565Q248 671 297 718T437 765Q445 765 454 765T471
763L457 683Q448 684 429 684Q384 684 363 655T325 539L316 488Q305 426 292 391T258 335T203 297Q234 278 246 254T259 188Q259 174 256 152T249 104T241 53T234 8T231 -22Q231 -59 250 -73T321 -88L307 -168Z" />
<glyph unicode="|" glyph-name="bar" horiz-adv-x="325" d="M84 -168L251 776H349L182 -168H84Z" />
<glyph unicode="}" glyph-name="braceright" horiz-adv-x="372" d="M19 -86Q28 -87 47 -87Q92 -87 113 -58T151 58L160 109Q171 171 184 206T218 262T273 300Q242 319 230 343T217 409Q217 423 220 445T227 493T235 544T242 589T245 619Q245 656 226 670T155 685L169
765Q258 765 300 732T343 630Q343 600 336 559L321 473Q316 443 316 420Q316 381 331 353T384 296Q342 273 319 250T283 197T262 120L247 32Q228 -74 179 -121T39 -168Q31 -168 22 -168T5 -166L19 -86Z" />
<glyph unicode="~" glyph-name="asciitilde" horiz-adv-x="596" d="M578 443Q578 358 542 311T440 263Q390 263 344 303Q310 331 296 339T267 347Q248 347 238 328T224 264H132Q132 349 168 396T271 444Q318 444 365 405Q398 377 413 369T443 360Q462 360 472
380T486 443H578Z" />
<glyph unicode="&#xa0;" glyph-name="uni00A0" horiz-adv-x="225" />
<glyph unicode="&#xa1;" glyph-name="exclamdown" horiz-adv-x="268" d="M45 -208L140 295H235L154 -208H45ZM277 468Q277 437 257 418T205 398Q182 398 168 411T154 448Q154 479 174 498T226 518Q249 518 263 505T277 468Z" />
<glyph unicode="&#xa2;" glyph-name="cent" horiz-adv-x="596" d="M283 -118L303 -9Q227 2 187 55T146 197Q146 275 176 346T263 464T395 522L416 638H486L465 524Q514 519 559 504L552 423Q498 441 436 441Q382 441 341 412T275 328T250 207Q250 141 283 107T376
72Q438 72 509 93L487 10Q441 -7 373 -12L354 -118H283Z" />
<glyph unicode="&#xa3;" glyph-name="sterling" horiz-adv-x="596" d="M92 0L90 12Q155 63 191 139T229 302H135L150 385H222Q219 415 219 451Q219 579 286 649T475 719Q555 719 620 693L611 607Q547 631 477 631Q395 631 358 588T320 453Q320 422 325 385H520L505
302H331Q331 180 261 91H544L528 0H92Z" />
<glyph unicode="&#xa4;" glyph-name="currency" horiz-adv-x="596" d="M355 220Q409 220 445 258T482 352Q482 408 446 446T355 484Q301 484 265 446T228 352Q228 296 264 258T355 220ZM556 91L473 174Q421 139 355 139Q290 139 237 174L154 91L93 150L177 235Q141
289 141 352Q141 415 177 469L93 554L154 613L237 530Q290 565 355 565Q421 565 473 530L556 613L617 554L533 469Q569 415 569 352Q569 289 533 235L617 150L556 91Z" />
<glyph unicode="&#xa5;" glyph-name="yen" horiz-adv-x="596" d="M370 152L343 0H240L267 152H85L97 222H279L295 314H113L125 384H280L156 707H263L363 405L553 707H664L446 384H601L589 314H398L382 222H572L560 152H370Z" />
<glyph unicode="&#xa6;" glyph-name="brokenbar" horiz-adv-x="325" d="M192 444L251 776H349L290 444H192ZM84 -168L143 164H241L182 -168H84Z" />
<glyph unicode="&#xa7;" glyph-name="section" horiz-adv-x="547" d="M222 235Q172 251 150 276T127 340Q127 376 146 409T207 479Q181 511 181 552Q181 599 208 636T286 696T403 719Q444 719 477 714T550 695L540 617Q518 627 478 633T395 640Q341 640 312 621T282
566Q282 545 297 532T351 504L447 471Q496 455 517 432T539 369Q539 295 460 228Q491 198 491 157Q491 80 425 34T248 -12Q149 -12 78 16L87 94Q111 83 155 75T242 67Q312 67 350 87T389 146Q389 165 375 176T321 201L222 235ZM269 444Q218 401 218 362Q218 342
231 329T274 305Q379 271 395 265Q448 309 448 349Q448 368 433 381T384 405Q346 418 324 425T291 436T275 441T269 444Z" />
<glyph unicode="&#xa8;" glyph-name="dieresis" horiz-adv-x="580" d="M243 666Q243 638 224 620T177 601Q156 601 143 613T130 647Q130 675 149 693T196 712Q217 712 230 700T243 666ZM441 666Q441 638 422 620T375 601Q354 601 341 613T328 647Q328 675 347
693T394 712Q415 712 428 700T441 666Z" />
<glyph unicode="&#xa9;" glyph-name="copyright" horiz-adv-x="842" d="M598 171Q548 150 495 150Q404 150 350 206T296 358Q296 455 351 513T501 571Q544 571 591 555L594 488Q578 493 553 496T506 500Q381 500 381 358Q381 291 412 256T503 221Q529 221 555
225T597 237L598 171ZM476 53Q561 53 628 90T735 197T774 359Q774 446 738 515T633 625T476 665Q391 665 324 628T217 521T178 359Q178 272 214 203T319 93T476 53ZM476 -13Q372 -13 288 33T155 164T105 359Q105 463 151 547T282 681T476 731Q580 731 664 685T797
554T847 359Q847 255 801 171T670 37T476 -13Z" />
<glyph unicode="&#xaa;" glyph-name="ordfeminine" horiz-adv-x="475" d="M363 301L366 367Q340 332 304 314T227 295Q176 295 145 333T114 437Q114 512 147 576T240 679T374 719Q405 719 438 713T498 696L459 475Q448 415 441 301H363ZM405 642Q387 648 365 648Q322
648 285 622T226 549T203 444Q203 407 217 386T257 365Q286 365 315 386T370 445L405 642Z" />
<glyph unicode="&#xab;" glyph-name="guillemotleft" horiz-adv-x="603" d="M229 46L93 271L302 488H418L207 264L336 46H229ZM473 46L337 271L546 488H662L451 264L580 46H473Z" />
<glyph unicode="&#xac;" glyph-name="logicalnot" horiz-adv-x="596" d="M424 95L462 309H134L149 398H570L516 95H424Z" />
<glyph unicode="&#xad;" glyph-name="uni00AD" horiz-adv-x="345" d="M89 237L105 326H364L348 237H89Z" />
<glyph unicode="&#xae;" glyph-name="registered" horiz-adv-x="842" d="M565 172L432 364H449Q491 364 515 384T539 439Q539 469 519 486T460 503Q447 503 427 501V172H352V554Q419 563 457 563Q533 563 575 531T617 441Q617 401 594 371T531 331L646 172H565ZM476
53Q561 53 628 90T735 197T774 359Q774 446 738 515T633 625T476 665Q391 665 324 628T217 521T178 359Q178 272 214 203T319 93T476 53ZM476 -13Q372 -13 288 33T155 164T105 359Q105 463 151 547T282 681T476 731Q580 731 664 685T797 554T847 359Q847 255 801
171T670 37T476 -13Z" />
<glyph unicode="&#xaf;" glyph-name="macron" horiz-adv-x="580" d="M143 620L155 695H429L417 620H143Z" />
<glyph unicode="&#xb0;" glyph-name="degree" horiz-adv-x="364" d="M403 581Q403 515 363 476T256 436Q189 436 149 475T109 581Q109 647 149 686T256 726Q323 726 363 687T403 581ZM256 502Q292 502 311 523T331 581Q331 618 312 639T256 660Q220 660 201 639T181
581Q181 544 200 523T256 502Z" />
<glyph unicode="&#xb1;" glyph-name="plusminus" horiz-adv-x="596" d="M392 342L360 158H270L302 342H137L152 427H317L349 611H439L407 427H572L557 342H392ZM91 0L106 89H527L511 0H91Z" />
<glyph unicode="&#xb2;" glyph-name="twosuperior" horiz-adv-x="446" d="M96 307L94 319L246 456Q302 506 322 535T342 595Q342 622 324 634T264 647Q227 647 160 631L183 700Q234 719 297 719Q361 719 397 691T433 611Q433 561 407 519T316 423L263 378H414L401
307H96Z" />
<glyph unicode="&#xb3;" glyph-name="threesuperior" horiz-adv-x="446" d="M131 388Q179 364 245 364Q289 364 313 384T337 441Q337 468 318 483T266 498Q240 498 225 494L218 505L335 640H176L189 711H454L459 696L332 547Q373 543 398 516T424 450Q424 382
375 339T249 295Q214 295 180 302T125 320L131 388Z" />
<glyph unicode="&#xb4;" glyph-name="acute" horiz-adv-x="580" d="M180 593L275 722H380L270 593H180Z" />
<glyph unicode="&#xb5;" glyph-name="mu" horiz-adv-x="596" d="M49 -238L181 514H280L232 240Q225 201 225 173Q225 120 249 97T330 73Q387 73 426 94L500 514H599L517 49Q475 21 422 5T317 -12Q233 -12 195 31L148 -238H49Z" />
<glyph unicode="&#xb6;" glyph-name="paragraph" horiz-adv-x="577" d="M260 0L315 313H303Q211 313 161 353T111 469Q111 714 462 719L335 0H260ZM410 0L537 719H612L485 0H410Z" />
<glyph unicode="&#xb7;" glyph-name="periodcentered" horiz-adv-x="220" d="M216 279Q216 248 196 229T144 209Q121 209 107 222T93 259Q93 290 113 309T165 329Q188 329 202 316T216 279Z" />
<glyph unicode="&#xb8;" glyph-name="cedilla" horiz-adv-x="580" d="M174 -167Q206 -184 249 -184Q282 -184 301 -172T320 -137Q320 -108 263 -108Q237 -108 207 -114L203 -109L275 24H339L292 -57Q296 -56 301 -56T311 -56Q353 -56 375 -76T397 -133Q397 -184
357 -213T252 -243Q208 -243 170 -225L174 -167Z" />
<glyph unicode="&#xb9;" glyph-name="onesuperior" horiz-adv-x="446" d="M224 307L276 605L177 568L156 632L362 711H380L309 307H224Z" />
<glyph unicode="&#xba;" glyph-name="ordmasculine" horiz-adv-x="466" d="M269 295Q194 295 154 337T114 458Q114 529 143 588T224 683T343 719Q418 719 458 677T498 556Q498 485 469 426T388 331T269 295ZM280 371Q314 371 343 394T389 460T407 556Q407 599
388 621T332 643Q298 643 269 620T223 554T205 458Q205 415 224 393T280 371Z" />
<glyph unicode="&#xbb;" glyph-name="guillemotright" horiz-adv-x="603" d="M40 46L251 270L122 488H229L365 263L156 46H40ZM284 46L495 270L366 488H473L609 263L400 46H284Z" />
<glyph unicode="&#xbc;" glyph-name="onequarter" horiz-adv-x="1043" d="M248 -1L804 710H912L356 -1H248ZM806 0L819 78H615L609 90L817 413L887 384L734 146H831L847 227H919L905 146H956L944 78H893L879 0H806ZM224 307L276 605L177 568L156 632L362 711H380L309
307H224Z" />
<glyph unicode="&#xbd;" glyph-name="onehalf" horiz-adv-x="1043" d="M230 0L786 711H894L338 0H230ZM645 0L643 12L795 149Q851 199 871 228T891 288Q891 315 873 327T813 340Q776 340 709 324L732 393Q783 412 846 412Q910 412 946 384T982 304Q982 254 956
212T865 116L812 71H963L950 0H645ZM224 307L276 605L177 568L156 632L362 711H380L309 307H224Z" />
<glyph unicode="&#xbe;" glyph-name="threequarters" horiz-adv-x="1043" d="M262 -1L818 710H926L370 -1H262ZM806 0L819 78H615L609 90L817 413L887 384L734 146H831L847 227H919L905 146H956L944 78H893L879 0H806ZM131 388Q179 364 245 364Q289 364 313 384T337
441Q337 468 318 483T266 498Q240 498 225 494L218 505L335 640H176L189 711H454L459 696L332 547Q373 543 398 516T424 450Q424 382 375 339T249 295Q214 295 180 302T125 320L131 388Z" />
<glyph unicode="&#xbf;" glyph-name="questiondown" horiz-adv-x="457" d="M410 -186Q331 -211 262 -211Q173 -211 120 -168T66 -51Q66 29 125 96T279 194L297 297H390L361 134Q269 111 222 69T175 -33Q175 -77 205 -100T295 -123Q361 -123 430 -101L410 -186ZM435
468Q435 437 415 418T363 398Q340 398 326 411T312 448Q312 479 332 498T384 518Q407 518 421 505T435 468Z" />
<glyph unicode="&#xc0;" glyph-name="Agrave" horiz-adv-x="600" d="M479 0L459 166H205L128 0H21L364 719H487L586 0H479ZM409 611L246 255H449L409 611ZM373 778L261 889H376L473 778H373Z" />
<glyph unicode="&#xc1;" glyph-name="Aacute" horiz-adv-x="600" d="M479 0L459 166H205L128 0H21L364 719H487L586 0H479ZM409 611L246 255H449L409 611ZM481 778H381L489 889H604L481 778Z" />
<glyph unicode="&#xc2;" glyph-name="Acircumflex" horiz-adv-x="600" d="M479 0L459 166H205L128 0H21L364 719H487L586 0H479ZM409 611L246 255H449L409 611ZM496 778L450 842L379 778H270L404 889H506L596 778H496Z" />
<glyph unicode="&#xc3;" glyph-name="Atilde" horiz-adv-x="600" d="M479 0L459 166H205L128 0H21L364 719H487L586 0H479ZM409 611L246 255H449L409 611ZM591 908Q591 851 565 815T498 779Q464 779 426 807Q390 834 373 834Q360 834 352 820T343 779H277Q277
836 303 872T370 908Q404 908 442 880Q478 853 495 853Q508 853 516 867T525 908H591Z" />
<glyph unicode="&#xc4;" glyph-name="Adieresis" horiz-adv-x="600" d="M479 0L459 166H205L128 0H21L364 719H487L586 0H479ZM409 611L246 255H449L409 611ZM387 845Q387 817 368 798T319 778Q298 778 285 791T271 825Q271 853 290 872T339 892Q360 892 373 879T387
845ZM598 845Q598 817 579 798T530 778Q509 778 496 791T482 825Q482 853 501 872T550 892Q571 892 584 879T598 845Z" />
<glyph unicode="&#xc5;" glyph-name="Aring" horiz-adv-x="600" d="M479 0L459 166H205L128 0H21L364 719H487L586 0H479ZM409 611L246 255H449L409 611ZM428 752Q454 752 471 773T488 826Q488 851 477 865T444 879Q418 879 401 858T384 805Q384 780 395 766T428
752ZM551 830Q551 775 514 738T421 701Q375 701 348 728T321 801Q321 856 358 893T450 930Q496 930 523 903T551 830Z" />
<glyph unicode="&#xc6;" glyph-name="AE" horiz-adv-x="874" d="M445 0L474 166H230L115 0H0L501 719H955L939 628H659L620 406H846L830 315H604L564 91H853L837 0H445ZM557 637H552L292 255H490L557 637Z" />
<glyph unicode="&#xc7;" glyph-name="Ccedilla" horiz-adv-x="583" d="M551 22Q514 6 467 -3T369 -12Q244 -12 176 63T107 276Q107 406 154 509T289 671T493 731Q581 731 652 701L639 606Q577 640 491 640Q410 640 348 597T252 471T217 276Q217 180 262 130T392
79Q433 79 486 89T574 113L551 22ZM250 -165Q285 -181 325 -181Q361 -181 380 -170T400 -137Q400 -124 384 -117T339 -109Q313 -109 285 -116L279 -109L351 24H416L371 -55Q376 -54 388 -54Q430 -54 455 -75T480 -133Q480 -182 441 -212T336 -243Q285 -243 246
-225L250 -165Z" />
<glyph unicode="&#xc8;" glyph-name="Egrave" horiz-adv-x="517" d="M88 0L215 719H598L582 628H302L263 406H489L473 315H247L207 91H496L480 0H88ZM390 778L278 889H393L490 778H390Z" />
<glyph unicode="&#xc9;" glyph-name="Eacute" horiz-adv-x="517" d="M88 0L215 719H598L582 628H302L263 406H489L473 315H247L207 91H496L480 0H88ZM451 778H351L459 889H574L451 778Z" />
<glyph unicode="&#xca;" glyph-name="Ecircumflex" horiz-adv-x="517" d="M88 0L215 719H598L582 628H302L263 406H489L473 315H247L207 91H496L480 0H88ZM487 778L441 842L370 778H261L395 889H497L587 778H487Z" />
<glyph unicode="&#xcb;" glyph-name="Edieresis" horiz-adv-x="517" d="M88 0L215 719H598L582 628H302L263 406H489L473 315H247L207 91H496L480 0H88ZM380 845Q380 817 361 798T312 778Q291 778 278 791T264 825Q264 853 283 872T332 892Q353 892 366 879T380
845ZM591 845Q591 817 572 798T523 778Q502 778 489 791T475 825Q475 853 494 872T543 892Q564 892 577 879T591 845Z" />
<glyph unicode="&#xcc;" glyph-name="Igrave" horiz-adv-x="283" d="M88 0L215 719H318L191 0H88ZM221 778L109 889H224L321 778H221Z" />
<glyph unicode="&#xcd;" glyph-name="Iacute" horiz-adv-x="283" d="M88 0L215 719H318L191 0H88ZM327 778H227L335 889H450L327 778Z" />
<glyph unicode="&#xce;" glyph-name="Icircumflex" horiz-adv-x="283" d="M88 0L215 719H318L191 0H88ZM340 778L294 842L223 778H114L248 889H350L440 778H340Z" />
<glyph unicode="&#xcf;" glyph-name="Idieresis" horiz-adv-x="283" d="M88 0L215 719H318L191 0H88ZM238 845Q238 817 219 798T170 778Q149 778 136 791T122 825Q122 853 141 872T190 892Q211 892 224 879T238 845ZM449 845Q449 817 430 798T381 778Q360 778
347 791T333 825Q333 853 352 872T401 892Q422 892 435 879T449 845Z" />
<glyph unicode="&#xd0;" glyph-name="Eth" horiz-adv-x="694" d="M159 330H82L96 406H172L228 720Q319 731 384 731Q541 731 623 656T706 437Q706 305 654 204T505 45T275 -12Q187 -12 101 0L159 330ZM262 330L219 84Q249 79 302 79Q387 79 454 120T559 240T597
423Q597 640 389 640Q351 640 316 636L275 406H443L429 330H262Z" />
<glyph unicode="&#xd1;" glyph-name="Ntilde" horiz-adv-x="672" d="M486 0L277 537L182 0H88L215 719H309L518 182L613 719H707L580 0H486ZM642 908Q642 851 616 815T549 779Q515 779 477 807Q441 834 424 834Q411 834 403 820T394 779H328Q328 836 354 872T421
908Q455 908 493 880Q529 853 546 853Q559 853 567 867T576 908H642Z" />
<glyph unicode="&#xd2;" glyph-name="Ograve" horiz-adv-x="695" d="M344 -12Q231 -12 169 57T107 253Q107 384 152 492T280 666T471 731Q583 731 645 662T707 466Q707 334 662 226T533 53T344 -12ZM355 79Q422 79 477 127T566 264T600 465Q600 640 459 640Q392
640 337 592T248 455T214 254Q214 79 355 79ZM457 778L345 889H460L557 778H457Z" />
<glyph unicode="&#xd3;" glyph-name="Oacute" horiz-adv-x="695" d="M344 -12Q231 -12 169 57T107 253Q107 384 152 492T280 666T471 731Q583 731 645 662T707 466Q707 334 662 226T533 53T344 -12ZM355 79Q422 79 477 127T566 264T600 465Q600 640 459 640Q392
640 337 592T248 455T214 254Q214 79 355 79ZM552 778H452L560 889H675L552 778Z" />
<glyph unicode="&#xd4;" glyph-name="Ocircumflex" horiz-adv-x="695" d="M344 -12Q231 -12 169 57T107 253Q107 384 152 492T280 666T471 731Q583 731 645 662T707 466Q707 334 662 226T533 53T344 -12ZM355 79Q422 79 477 127T566 264T600 465Q600 640 459 640Q392
640 337 592T248 455T214 254Q214 79 355 79ZM557 778L511 842L440 778H331L465 889H567L657 778H557Z" />
<glyph unicode="&#xd5;" glyph-name="Otilde" horiz-adv-x="695" d="M344 -12Q231 -12 169 57T107 253Q107 384 152 492T280 666T471 731Q583 731 645 662T707 466Q707 334 662 226T533 53T344 -12ZM355 79Q422 79 477 127T566 264T600 465Q600 640 459 640Q392
640 337 592T248 455T214 254Q214 79 355 79ZM673 908Q673 851 647 815T580 779Q546 779 508 807Q472 834 455 834Q442 834 434 820T425 779H359Q359 836 385 872T452 908Q486 908 524 880Q560 853 577 853Q590 853 598 867T607 908H673Z" />
<glyph unicode="&#xd6;" glyph-name="Odieresis" horiz-adv-x="695" d="M344 -12Q231 -12 169 57T107 253Q107 384 152 492T280 666T471 731Q583 731 645 662T707 466Q707 334 662 226T533 53T344 -12ZM355 79Q422 79 477 127T566 264T600 465Q600 640 459 640Q392
640 337 592T248 455T214 254Q214 79 355 79ZM471 845Q471 817 452 798T403 778Q382 778 369 791T355 825Q355 853 374 872T423 892Q444 892 457 879T471 845ZM682 845Q682 817 663 798T614 778Q593 778 580 791T566 825Q566 853 585 872T634 892Q655 892 668 879T682
845Z" />
<glyph unicode="&#xd7;" glyph-name="multiply" horiz-adv-x="596" d="M439 168L339 290L197 168L144 232L286 353L184 476L257 538L357 416L499 538L552 474L411 353L512 230L439 168Z" />
<glyph unicode="&#xd8;" glyph-name="Oslash" horiz-adv-x="695" d="M38 0L137 109Q107 169 107 253Q107 384 152 492T280 666T471 731Q578 731 642 661L695 719H776L677 610Q707 550 707 466Q707 334 662 226T533 53T344 -12Q237 -12 172 58L119 0H38ZM573 586Q537
640 459 640Q392 640 336 592T246 455T212 254Q212 217 217 196L573 586ZM241 133Q277 79 355 79Q422 79 478 127T568 264T602 465Q602 493 597 523L241 133Z" />
<glyph unicode="&#xd9;" glyph-name="Ugrave" horiz-adv-x="664" d="M601 719H704L628 287Q600 127 529 58T327 -12Q223 -12 172 38T121 189Q121 225 132 293L207 719H310L239 314Q226 239 226 196Q226 134 253 107T342 79Q397 79 433 102T491 175T529 312L601
719ZM419 778L307 889H422L519 778H419Z" />
<glyph unicode="&#xda;" glyph-name="Uacute" horiz-adv-x="664" d="M601 719H704L628 287Q600 127 529 58T327 -12Q223 -12 172 38T121 189Q121 225 132 293L207 719H310L239 314Q226 239 226 196Q226 134 253 107T342 79Q397 79 433 102T491 175T529 312L601
719ZM504 778H404L512 889H627L504 778Z" />
<glyph unicode="&#xdb;" glyph-name="Ucircumflex" horiz-adv-x="664" d="M601 719H704L628 287Q600 127 529 58T327 -12Q223 -12 172 38T121 189Q121 225 132 293L207 719H310L239 314Q226 239 226 196Q226 134 253 107T342 79Q397 79 433 102T491 175T529 312L601
719ZM533 778L487 842L416 778H307L441 889H543L633 778H533Z" />
<glyph unicode="&#xdc;" glyph-name="Udieresis" horiz-adv-x="664" d="M601 719H704L628 287Q600 127 529 58T327 -12Q223 -12 172 38T121 189Q121 225 132 293L207 719H310L239 314Q226 239 226 196Q226 134 253 107T342 79Q397 79 433 102T491 175T529 312L601
719ZM418 845Q418 817 399 798T350 778Q329 778 316 791T302 825Q302 853 321 872T370 892Q391 892 404 879T418 845ZM629 845Q629 817 610 798T561 778Q540 778 527 791T513 825Q513 853 532 872T581 892Q602 892 615 879T629 845Z" />
<glyph unicode="&#xdd;" glyph-name="Yacute" horiz-adv-x="540" d="M218 0L264 262L128 719H239L334 357L539 719H651L367 260L322 0H218ZM439 778H339L447 889H562L439 778Z" />
<glyph unicode="&#xde;" glyph-name="Thorn" horiz-adv-x="568" d="M88 0L215 719H318L299 612Q325 615 340 615Q458 615 521 565T585 422Q585 337 549 272T444 171T282 135Q244 135 215 138L191 0H88ZM230 223Q257 220 289 220Q377 220 426 270T476 411Q476 473
441 501T331 530Q310 530 284 527L230 223Z" />
<glyph unicode="&#xdf;" glyph-name="germandbls" horiz-adv-x="581" d="M271 93Q316 69 377 69Q417 69 442 90T468 145Q468 170 456 187T426 219T390 249T360 286T348 339Q349 370 362 395T394 442T432 486T464 533T478 588Q478 622 455 642T391 662Q337 662
311 630T271 516L182 0H82L172 523Q192 640 246 691T404 743Q483 743 528 705T573 599Q572 561 560 532T529 480T492 438T461 398T447 356Q447 336 459 320T489 289T524 255T554 211T566 152Q566 78 514 33T376 -12Q310 -12 262 14L271 93Z" />
<glyph unicode="&#xe0;" glyph-name="agrave" horiz-adv-x="543" d="M392 0L395 81Q362 37 317 13T222 -12Q156 -12 118 37T79 170Q79 265 120 345T235 475T403 525Q481 525 555 496L506 218Q488 119 483 0H392ZM447 434Q426 441 397 441Q355 441 317 423T249
371T201 289T183 183Q183 72 258 72Q296 72 333 98T401 173L447 434ZM387 593L281 722H398L477 593H387Z" />
<glyph unicode="&#xe1;" glyph-name="aacute" horiz-adv-x="543" d="M392 0L395 81Q362 37 317 13T222 -12Q156 -12 118 37T79 170Q79 265 120 345T235 475T403 525Q481 525 555 496L506 218Q488 119 483 0H392ZM447 434Q426 441 397 441Q355 441 317 423T249
371T201 289T183 183Q183 72 258 72Q296 72 333 98T401 173L447 434ZM361 593L456 722H561L451 593H361Z" />
<glyph unicode="&#xe2;" glyph-name="acircumflex" horiz-adv-x="543" d="M392 0L395 81Q362 37 317 13T222 -12Q156 -12 118 37T79 170Q79 265 120 345T235 475T403 525Q481 525 555 496L506 218Q488 119 483 0H392ZM447 434Q426 441 397 441Q355 441 317 423T249
371T201 289T183 183Q183 72 258 72Q296 72 333 98T401 173L447 434ZM465 593L419 674L347 593H242L370 722H477L562 593H465Z" />
<glyph unicode="&#xe3;" glyph-name="atilde" horiz-adv-x="543" d="M392 0L395 81Q362 37 317 13T222 -12Q156 -12 118 37T79 170Q79 265 120 345T235 475T403 525Q481 525 555 496L506 218Q488 119 483 0H392ZM447 434Q426 441 397 441Q355 441 317 423T249
371T201 289T183 183Q183 72 258 72Q296 72 333 98T401 173L447 434ZM561 715Q561 661 535 628T468 594Q450 594 434 601T399 624Q383 636 374 640T355 645Q342 645 334 631T326 594H261Q261 648 287 681T354 715Q386 715 422 685Q438 673 447 669T467 664Q480
664 487 678T496 715H561Z" />
<glyph unicode="&#xe4;" glyph-name="adieresis" horiz-adv-x="543" d="M392 0L395 81Q362 37 317 13T222 -12Q156 -12 118 37T79 170Q79 265 120 345T235 475T403 525Q481 525 555 496L506 218Q488 119 483 0H392ZM447 434Q426 441 397 441Q355 441 317 423T249
371T201 289T183 183Q183 72 258 72Q296 72 333 98T401 173L447 434ZM367 666Q367 638 348 620T301 601Q280 601 267 613T254 647Q254 675 273 693T320 712Q341 712 354 700T367 666ZM565 666Q565 638 546 620T499 601Q478 601 465 613T452 647Q452 675 471 693T518
712Q539 712 552 700T565 666Z" />
<glyph unicode="&#xe5;" glyph-name="aring" horiz-adv-x="543" d="M392 0L395 81Q362 37 317 13T222 -12Q156 -12 118 37T79 170Q79 265 120 345T235 475T403 525Q481 525 555 496L506 218Q488 119 483 0H392ZM447 434Q426 441 397 441Q355 441 317 423T249 371T201
289T183 183Q183 72 258 72Q296 72 333 98T401 173L447 434ZM426 585Q382 585 356 611T330 681Q330 732 362 766T446 800Q490 800 516 774T542 705Q542 654 510 620T426 585ZM431 636Q455 636 468 654T482 699Q482 749 441 749Q417 749 403 732T389 687Q389 662
400 649T431 636Z" />
<glyph unicode="&#xe6;" glyph-name="ae" horiz-adv-x="815" d="M768 17Q737 4 694 -4T610 -12Q470 -12 432 111Q397 54 341 21T222 -12Q156 -12 118 37T79 170Q79 265 120 345T235 475T403 525Q467 525 540 499L533 458Q567 490 610 507T702 525Q766 525 803
493T840 406Q840 333 776 287T576 218L506 206Q509 137 539 104T631 70Q703 70 783 96L768 17ZM567 287Q656 301 699 327T742 395Q742 419 725 433T679 448Q640 448 606 427T547 368T513 278L567 287ZM447 434Q426 441 397 441Q355 441 317 423T249 371T201 289T183
183Q183 71 258 71Q296 71 333 97T401 173L447 434Z" />
<glyph unicode="&#xe7;" glyph-name="ccedilla" horiz-adv-x="448" d="M420 11Q356 -12 283 -12Q184 -12 132 42T79 197Q79 285 115 360T219 480T373 525Q435 525 492 504L485 423Q430 441 369 441Q316 441 274 412T208 329T183 207Q183 142 215 107T309 72Q369
72 442 93L420 11ZM156 -167Q188 -184 231 -184Q264 -184 283 -172T302 -137Q302 -108 245 -108Q219 -108 189 -114L185 -109L257 24H321L274 -57Q278 -56 283 -56T293 -56Q335 -56 357 -76T379 -133Q379 -184 339 -213T234 -243Q190 -243 152 -225L156 -167Z"
/>
<glyph unicode="&#xe8;" glyph-name="egrave" horiz-adv-x="488" d="M441 17Q410 4 367 -4T283 -12Q184 -12 132 43T79 203Q79 263 99 320T158 423T251 497T369 525Q436 525 474 493T513 406Q513 333 449 287T249 218L179 206Q182 137 212 104T304 70Q376 70 456
96L441 17ZM240 287Q329 301 372 327T415 395Q415 419 398 433T352 448Q313 448 279 427T220 368T186 278L240 287ZM342 593L236 722H353L432 593H342Z" />
<glyph unicode="&#xe9;" glyph-name="eacute" horiz-adv-x="488" d="M441 17Q410 4 367 -4T283 -12Q184 -12 132 43T79 203Q79 263 99 320T158 423T251 497T369 525Q436 525 474 493T513 406Q513 333 449 287T249 218L179 206Q182 137 212 104T304 70Q376 70 456
96L441 17ZM240 287Q329 301 372 327T415 395Q415 419 398 433T352 448Q313 448 279 427T220 368T186 278L240 287ZM337 593L432 722H537L427 593H337Z" />
<glyph unicode="&#xea;" glyph-name="ecircumflex" horiz-adv-x="488" d="M441 17Q410 4 367 -4T283 -12Q184 -12 132 43T79 203Q79 263 99 320T158 423T251 497T369 525Q436 525 474 493T513 406Q513 333 449 287T249 218L179 206Q182 137 212 104T304 70Q376
70 456 96L441 17ZM240 287Q329 301 372 327T415 395Q415 419 398 433T352 448Q313 448 279 427T220 368T186 278L240 287ZM441 593L395 674L323 593H218L346 722H453L538 593H441Z" />
<glyph unicode="&#xeb;" glyph-name="edieresis" horiz-adv-x="488" d="M441 17Q410 4 367 -4T283 -12Q184 -12 132 43T79 203Q79 263 99 320T158 423T251 497T369 525Q436 525 474 493T513 406Q513 333 449 287T249 218L179 206Q182 137 212 104T304 70Q376 70
456 96L441 17ZM240 287Q329 301 372 327T415 395Q415 419 398 433T352 448Q313 448 279 427T220 368T186 278L240 287ZM330 666Q330 638 311 620T264 601Q243 601 230 613T217 647Q217 675 236 693T283 712Q304 712 317 700T330 666ZM528 666Q528 638 509 620T462
601Q441 601 428 613T415 647Q415 675 434 693T481 712Q502 712 515 700T528 666Z" />
<glyph unicode="&#xec;" glyph-name="igrave" horiz-adv-x="256" d="M82 0L173 514H272L181 0H82ZM182 593L76 722H193L272 593H182Z" />
<glyph unicode="&#xed;" glyph-name="iacute" horiz-adv-x="256" d="M82 0L173 514H272L181 0H82ZM189 593L284 722H389L279 593H189Z" />
<glyph unicode="&#xee;" glyph-name="icircumflex" horiz-adv-x="256" d="M82 0L173 514H272L181 0H82ZM296 593L250 674L178 593H73L201 722H308L393 593H296Z" />
<glyph unicode="&#xef;" glyph-name="idieresis" horiz-adv-x="256" d="M82 0L173 514H272L181 0H82ZM200 666Q200 638 181 620T134 601Q113 601 100 613T87 647Q87 675 106 693T153 712Q174 712 187 700T200 666ZM398 666Q398 638 379 620T332 601Q311 601 298
613T285 647Q285 675 304 693T351 712Q372 712 385 700T398 666Z" />
<glyph unicode="&#xf0;" glyph-name="eth" horiz-adv-x="554" d="M282 66Q325 66 362 94T423 172T447 285Q447 345 419 376T336 408Q294 408 259 381T203 303T181 189Q181 66 282 66ZM495 639Q564 545 564 388Q564 271 529 181T427 40T270 -12Q179 -12 129 40T79
187Q79 269 110 337T200 445T332 486Q375 486 411 469T470 420Q458 538 410 590L306 533L277 584L364 633Q344 646 313 656T252 668L282 737Q332 734 375 720T448 681L547 738L576 687L495 639Z" />
<glyph unicode="&#xf1;" glyph-name="ntilde" horiz-adv-x="580" d="M409 0L460 289Q466 325 466 352Q466 439 369 439Q307 439 255 420L181 0H82L167 481Q234 504 288 514T401 525Q570 525 570 384Q570 349 564 319L508 0H409ZM561 715Q561 661 535 628T468 594Q450
594 434 601T399 624Q383 636 374 640T355 645Q342 645 334 631T326 594H261Q261 648 287 681T354 715Q386 715 422 685Q438 673 447 669T467 664Q480 664 487 678T496 715H561Z" />
<glyph unicode="&#xf2;" glyph-name="ograve" horiz-adv-x="548" d="M280 72Q329 72 368 104T431 196T455 327Q455 383 431 412T358 441Q309 441 270 409T206 317T182 187Q182 131 206 102T280 72ZM270 -12Q178 -12 129 39T79 187Q79 274 115 352T217 478T368
525Q460 525 509 474T559 326Q559 239 523 161T421 35T270 -12ZM351 593L245 722H362L441 593H351Z" />
<glyph unicode="&#xf3;" glyph-name="oacute" horiz-adv-x="548" d="M280 72Q329 72 368 104T431 196T455 327Q455 383 431 412T358 441Q309 441 270 409T206 317T182 187Q182 131 206 102T280 72ZM270 -12Q178 -12 129 39T79 187Q79 274 115 352T217 478T368
525Q460 525 509 474T559 326Q559 239 523 161T421 35T270 -12ZM351 593L446 722H551L441 593H351Z" />
<glyph unicode="&#xf4;" glyph-name="ocircumflex" horiz-adv-x="548" d="M280 72Q329 72 368 104T431 196T455 327Q455 383 431 412T358 441Q309 441 270 409T206 317T182 187Q182 131 206 102T280 72ZM270 -12Q178 -12 129 39T79 187Q79 274 115 352T217 478T368
525Q460 525 509 474T559 326Q559 239 523 161T421 35T270 -12ZM466 593L420 674L348 593H243L371 722H478L563 593H466Z" />
<glyph unicode="&#xf5;" glyph-name="otilde" horiz-adv-x="548" d="M280 72Q329 72 368 104T431 196T455 327Q455 383 431 412T358 441Q309 441 270 409T206 317T182 187Q182 131 206 102T280 72ZM270 -12Q178 -12 129 39T79 187Q79 274 115 352T217 478T368
525Q460 525 509 474T559 326Q559 239 523 161T421 35T270 -12ZM570 715Q570 661 544 628T477 594Q459 594 443 601T408 624Q392 636 383 640T364 645Q351 645 343 631T335 594H270Q270 648 296 681T363 715Q395 715 431 685Q447 673 456 669T476 664Q489 664 496
678T505 715H570Z" />
<glyph unicode="&#xf6;" glyph-name="odieresis" horiz-adv-x="548" d="M280 72Q329 72 368 104T431 196T455 327Q455 383 431 412T358 441Q309 441 270 409T206 317T182 187Q182 131 206 102T280 72ZM270 -12Q178 -12 129 39T79 187Q79 274 115 352T217 478T368
525Q460 525 509 474T559 326Q559 239 523 161T421 35T270 -12ZM377 666Q377 638 358 620T311 601Q290 601 277 613T264 647Q264 675 283 693T330 712Q351 712 364 700T377 666ZM575 666Q575 638 556 620T509 601Q488 601 475 613T462 647Q462 675 481 693T528
712Q549 712 562 700T575 666Z" />
<glyph unicode="&#xf7;" glyph-name="divide" horiz-adv-x="596" d="M134 309L149 398H570L554 309H134ZM391 183Q391 149 368 126T308 102Q281 102 265 117T249 158Q249 193 272 216T332 240Q359 240 375 225T391 183ZM455 549Q455 514 431 491T372 467Q345 467
329 482T313 524Q313 559 336 582T396 605Q423 605 439 590T455 549Z" />
<glyph unicode="&#xf8;" glyph-name="oslash" horiz-adv-x="548" d="M203 100Q229 70 280 70Q328 70 368 102T434 194T459 326Q459 344 456 359L203 100ZM32 0L106 76Q79 121 79 187Q79 276 115 353T219 477T368 525Q448 525 499 479L534 514H607L532 437Q559
392 559 326Q559 237 523 160T419 36T270 -12Q190 -12 139 34L105 0H32ZM435 413Q410 443 358 443Q310 443 270 411T204 319T179 187Q179 169 182 154L435 413Z" />
<glyph unicode="&#xf9;" glyph-name="ugrave" horiz-adv-x="562" d="M479 514H578L490 15Q394 -12 304 -12Q201 -12 152 28T102 154Q102 185 110 228L160 514H259L210 232Q204 198 204 171Q204 117 231 95T323 72Q372 72 403 82L479 514ZM337 593L231 722H348L427
593H337Z" />
<glyph unicode="&#xfa;" glyph-name="uacute" horiz-adv-x="562" d="M479 514H578L490 15Q394 -12 304 -12Q201 -12 152 28T102 154Q102 185 110 228L160 514H259L210 232Q204 198 204 171Q204 117 231 95T323 72Q372 72 403 82L479 514ZM329 593L424 722H529L419
593H329Z" />
<glyph unicode="&#xfb;" glyph-name="ucircumflex" horiz-adv-x="562" d="M479 514H578L490 15Q394 -12 304 -12Q201 -12 152 28T102 154Q102 185 110 228L160 514H259L210 232Q204 198 204 171Q204 117 231 95T323 72Q372 72 403 82L479 514ZM447 593L401 674L329
593H224L352 722H459L544 593H447Z" />
<glyph unicode="&#xfc;" glyph-name="udieresis" horiz-adv-x="562" d="M479 514H578L490 15Q394 -12 304 -12Q201 -12 152 28T102 154Q102 185 110 228L160 514H259L210 232Q204 198 204 171Q204 117 231 95T323 72Q372 72 403 82L479 514ZM353 666Q353 638 334
620T287 601Q266 601 253 613T240 647Q240 675 259 693T306 712Q327 712 340 700T353 666ZM551 666Q551 638 532 620T485 601Q464 601 451 613T438 647Q438 675 457 693T504 712Q525 712 538 700T551 666Z" />
<glyph unicode="&#xfd;" glyph-name="yacute" horiz-adv-x="493" d="M57 -238L188 0L95 514H200L258 100L466 514H573L159 -238H57ZM296 593L391 722H496L386 593H296Z" />
<glyph unicode="&#xfe;" glyph-name="thorn" horiz-adv-x="547" d="M41 -238L211 737H310L270 507Q320 525 370 525Q458 525 508 472T558 324Q558 228 522 152T420 32T265 -12Q226 -12 180 -1L139 -238H41ZM195 82Q218 72 262 72Q348 72 401 139T454 316Q454 441
332 441Q289 441 256 428L195 82Z" />
<glyph unicode="&#xff;" glyph-name="ydieresis" horiz-adv-x="493" d="M57 -238L188 0L95 514H200L258 100L466 514H573L159 -238H57ZM305 666Q305 638 286 620T239 601Q218 601 205 613T192 647Q192 675 211 693T258 712Q279 712 292 700T305 666ZM503 666Q503
638 484 620T437 601Q416 601 403 613T390 647Q390 675 409 693T456 712Q477 712 490 700T503 666Z" />
<glyph unicode="&#x131;" glyph-name="dotlessi" horiz-adv-x="256" d="M82 0L173 514H272L181 0H82Z" />
<glyph unicode="&#x152;" glyph-name="OE" horiz-adv-x="893" d="M460 0Q408 -12 344 -12Q231 -12 169 57T107 253Q107 384 152 492T280 666T471 731Q530 731 588 719H974L958 628H678L639 406H865L849 315H623L583 91H872L856 0H460ZM575 627Q529 640 459 640Q392
640 337 592T248 455T214 254Q214 79 355 79Q436 79 481 98L575 627Z" />
<glyph unicode="&#x153;" glyph-name="oe" horiz-adv-x="856" d="M809 17Q778 4 735 -4T651 -12Q585 -12 539 14T468 92Q427 39 379 14T270 -12Q178 -12 129 39T79 187Q79 274 115 352T217 478T368 525Q487 525 527 422Q568 471 622 498T737 525Q804 525 842 493T881
406Q881 333 817 287T617 218L547 206Q550 137 580 104T672 70Q744 70 824 96L809 17ZM608 287Q697 301 740 327T783 395Q783 419 766 433T720 448Q681 448 647 427T588 368T554 278L608 287ZM280 72Q329 72 368 104T431 196T455 327Q455 383 431 412T358 441Q309
441 270 409T206 317T182 187Q182 131 206 102T280 72Z" />
<glyph unicode="&#x160;" glyph-name="Scaron" horiz-adv-x="528" d="M64 116Q144 78 231 78Q313 78 360 115T407 216Q407 257 386 282T300 342Q219 386 187 427T154 530Q154 589 185 634T273 705T409 731Q487 731 572 702L568 609Q539 624 495 633T412 643Q340
643 302 618T263 544Q263 507 284 481T361 424Q452 375 486 333T520 224Q520 118 440 53T227 -12Q128 -12 55 21L64 116ZM469 778H366L278 889H380L421 827L492 889H604L469 778Z" />
<glyph unicode="&#x161;" glyph-name="scaron" horiz-adv-x="431" d="M61 108Q87 90 125 80T201 69Q257 69 287 90T317 153Q317 173 309 186T283 210T231 235Q171 260 146 289T120 365Q120 438 175 481T323 525Q362 525 399 516T459 490L449 409Q410 429 378 437T312
446Q268 446 245 429T221 381Q221 355 237 339T295 306Q363 278 391 247T420 171Q420 86 360 37T197 -12Q151 -12 113 -2T51 25L61 108ZM274 593L184 722H283L333 640L402 722H508L388 593H274Z" />
<glyph unicode="&#x178;" glyph-name="Ydieresis" horiz-adv-x="540" d="M218 0L264 262L128 719H239L334 357L539 719H651L367 260L322 0H218ZM356 845Q356 817 337 798T288 778Q267 778 254 791T240 825Q240 853 259 872T308 892Q329 892 342 879T356 845ZM567
845Q567 817 548 798T499 778Q478 778 465 791T451 825Q451 853 470 872T519 892Q540 892 553 879T567 845Z" />
<glyph unicode="&#x17d;" glyph-name="Zcaron" horiz-adv-x="529" d="M34 0L29 10L453 628H158L174 719H617L622 709L197 91H510L494 0H34ZM453 778H350L262 889H364L405 827L476 889H588L453 778Z" />
<glyph unicode="&#x17e;" glyph-name="zcaron" horiz-adv-x="447" d="M33 0L30 14L349 434H125L139 514H505L507 499L188 80H430L416 0H33ZM286 593L196 722H295L345 640L414 722H520L400 593H286Z" />
<glyph unicode="&#x192;" glyph-name="florin" horiz-adv-x="596" d="M68 -47Q78 -49 106 -51T152 -54Q186 -54 204 -43T233 -8T250 59L296 385H190V465H307L316 525Q331 629 375 674T505 719Q549 719 581 709L587 628Q577 630 552 632T511 635Q464 635 444 612T414
522L405 465H524V385H395L348 56Q338 -14 315 -56T253 -118T158 -138Q120 -138 82 -128L68 -47Z" />
<glyph unicode="&#x2c6;" glyph-name="circumflex" horiz-adv-x="580" d="M349 593L303 674L231 593H126L254 722H361L446 593H349Z" />
<glyph unicode="&#x2c7;" glyph-name="caron" horiz-adv-x="580" d="M213 593L123 722H222L272 640L341 722H447L327 593H213Z" />
<glyph unicode="&#x2da;" glyph-name="ring" horiz-adv-x="580" d="M273 585Q229 585 203 611T177 681Q177 732 209 766T293 800Q337 800 363 774T389 705Q389 654 357 620T273 585ZM278 636Q302 636 315 654T329 699Q329 749 288 749Q264 749 250 732T236 687Q236
662 247 649T278 636Z" />
<glyph unicode="&#x2dc;" glyph-name="tilde" horiz-adv-x="580" d="M435 715Q435 661 409 628T342 594Q324 594 308 601T273 624Q257 636 248 640T229 645Q216 645 208 631T200 594H135Q135 648 161 681T228 715Q260 715 296 685Q312 673 321 669T341 664Q354
664 361 678T370 715H435Z" />
<glyph unicode="&#x2013;" glyph-name="endash" horiz-adv-x="500" d="M40 237L54 326H554L539 237H40Z" />
<glyph unicode="&#x2014;" glyph-name="emdash" horiz-adv-x="1000" d="M40 237L54 326H1054L1039 237H40Z" />
<glyph unicode="&#x2018;" glyph-name="quoteleft" horiz-adv-x="220" d="M147 531Q169 658 227 749H308Q263 659 241 531H147Z" />
<glyph unicode="&#x2019;" glyph-name="quoteright" horiz-adv-x="220" d="M123 531Q168 621 190 749H284Q262 622 204 531H123Z" />
<glyph unicode="&#x201a;" glyph-name="quotesinglbase" horiz-adv-x="220" d="M19 -117Q64 -27 86 101H180Q158 -26 100 -117H19Z" />
<glyph unicode="&#x201c;" glyph-name="quotedblleft" horiz-adv-x="404" d="M147 531Q169 658 227 749H308Q263 659 241 531H147ZM331 531Q353 658 411 749H492Q447 659 425 531H331Z" />
<glyph unicode="&#x201d;" glyph-name="quotedblright" horiz-adv-x="404" d="M123 531Q168 621 190 749H284Q262 622 204 531H123ZM307 531Q352 621 374 749H468Q446 622 388 531H307Z" />
<glyph unicode="&#x201e;" glyph-name="quotedblbase" horiz-adv-x="404" d="M19 -117Q64 -27 86 101H180Q158 -26 100 -117H19ZM203 -117Q248 -27 270 101H364Q342 -26 284 -117H203Z" />
<glyph unicode="&#x2020;" glyph-name="dagger" horiz-adv-x="487" d="M161 -172L258 376H114L130 465H274L319 719H416L371 465H515L499 376H355L258 -172H161Z" />
<glyph unicode="&#x2021;" glyph-name="daggerdbl" horiz-adv-x="487" d="M161 -172L201 54H57L73 143H217L263 404H119L135 493H279L319 719H416L376 493H520L504 404H360L314 143H458L442 54H298L258 -172H161Z" />
<glyph unicode="&#x2022;" glyph-name="bullet" horiz-adv-x="402" d="M385 339Q385 286 347 249T255 211Q202 211 164 249T126 340Q126 393 164 431T255 469Q309 469 347 431T385 339Z" />
<glyph unicode="&#x2026;" glyph-name="ellipsis" horiz-adv-x="1000" d="M232 62Q232 31 212 12T160 -8Q137 -8 123 5T109 42Q109 73 129 92T181 112Q204 112 218 99T232 62ZM565 62Q565 31 545 12T493 -8Q470 -8 456 5T442 42Q442 73 462 92T514 112Q537 112
551 99T565 62ZM900 62Q900 31 880 12T828 -8Q805 -8 791 5T777 42Q777 73 797 92T849 112Q872 112 886 99T900 62Z" />
<glyph unicode="&#x2030;" glyph-name="perthousand" horiz-adv-x="1483" d="M248 0L804 711H912L356 0H248ZM819 63Q866 63 897 116T928 243Q928 339 860 339Q830 339 806 317T766 252T751 159Q751 63 819 63ZM810 -11Q736 -11 696 33T656 156Q656 227 683 285T758
378T869 413Q942 413 982 370T1022 246Q1022 175 996 117T921 24T810 -11ZM1259 63Q1306 63 1337 116T1368 243Q1368 339 1300 339Q1270 339 1246 317T1206 252T1191 159Q1191 63 1259 63ZM1250 -11Q1176 -11 1136 33T1096 156Q1096 227 1123 285T1198 378T1309
413Q1382 413 1422 370T1462 246Q1462 175 1436 117T1361 24T1250 -11ZM298 369Q345 369 376 422T407 549Q407 645 339 645Q309 645 285 623T245 558T230 465Q230 369 298 369ZM289 295Q215 295 175 339T135 462Q135 533 162 591T237 684T348 719Q421 719 461 676T501
552Q501 481 475 423T400 330T289 295Z" />
<glyph unicode="&#x2039;" glyph-name="guilsinglleft" horiz-adv-x="359" d="M229 46L93 271L302 488H418L207 264L336 46H229Z" />
<glyph unicode="&#x203a;" glyph-name="guilsinglright" horiz-adv-x="359" d="M40 46L251 270L122 488H229L365 263L156 46H40Z" />
<glyph unicode="&#x2044;" glyph-name="fraction" horiz-adv-x="0" d="M-332 0L224 711H332L-224 0H-332Z" />
<glyph unicode="&#x2070;" glyph-name="zerosuperior" horiz-adv-x="446" d="M273 369Q320 369 351 422T382 549Q382 645 314 645Q284 645 260 623T220 558T205 465Q205 369 273 369ZM264 295Q190 295 150 339T110 462Q110 533 137 591T212 684T323 719Q396 719
436 676T476 552Q476 481 450 423T375 330T264 295Z" />
<glyph unicode="&#x2074;" glyph-name="foursuperior" horiz-adv-x="446" d="M295 307L308 385H104L98 397L306 720L376 691L223 453H320L336 534H408L394 453H445L433 385H382L368 307H295Z" />
<glyph unicode="&#x20ac;" glyph-name="Euro" horiz-adv-x="596" d="M590 22Q507 -12 409 -12Q293 -12 228 53T156 240H74L87 309H157Q161 361 168 399H102L115 468H187Q228 588 314 653T520 719Q604 719 677 690L666 600Q597 629 514 629Q436 629 380 588T294
468H551L538 399H275Q267 359 264 309H523L510 240H266Q272 158 312 118T428 78Q474 78 527 86T610 107L590 22Z" />
<glyph unicode="&#x2122;" glyph-name="trademark" horiz-adv-x="818" d="M226 306V634H114V707H416V634H304V306H226ZM786 306L771 560L686 383H629L550 558L538 306H460L482 707H563L664 489L761 707H842L862 306H786Z" />
<glyph unicode="&#x2212;" glyph-name="minus" horiz-adv-x="596" d="M134 309L149 398H570L554 309H134Z" />
<glyph unicode="&#xfb00;" glyph-name="f_f" horiz-adv-x="639" d="M405 0L482 434H276L199 0H100L177 434H92L106 514H190L196 547Q213 641 264 689T396 738Q432 738 464 729L467 649Q435 657 403 657Q356 657 330 630T294 544L289 514H496L502 550Q518 644 572
693T714 743Q751 743 787 733L790 653Q753 661 719 661Q665 661 637 634T600 547L595 514H726L712 434H581L504 0H405Z" />
<glyph unicode="&#xfb01;" glyph-name="fi" horiz-adv-x="579" d="M405 0L482 434H276L199 0H100L177 434H92L106 514H190L196 549Q213 644 275 693T440 743Q480 743 512 738T581 720V639Q516 662 435 662Q369 662 337 635T294 546L289 514H595L504 0H405Z" />
<glyph unicode="&#xfb02;" glyph-name="fl" horiz-adv-x="579" d="M405 0L482 434H276L199 0H100L177 434H92L106 514H190L197 550Q214 644 266 693T400 743Q436 743 463 735L466 654Q437 662 405 662Q357 662 332 636T295 547L289 514H496L535 737H634L504 0H405Z" />
<glyph unicode="&#xfb03;" glyph-name="f_f_i" horiz-adv-x="884" d="M711 0L787 434H581L504 0H405L482 434H276L199 0H100L177 434H92L106 514H190L196 547Q213 641 264 689T396 738Q432 738 464 729L467 649Q435 657 403 657Q356 657 330 630T294 544L289 514H495L501
549Q518 644 580 693T745 743Q785 743 817 738T886 720V639Q821 662 740 662Q674 662 642 635T599 546L594 514H900L810 0H711Z" />
<glyph unicode="&#xfb04;" glyph-name="f_f_l" horiz-adv-x="884" d="M710 0L787 434H581L504 0H405L482 434H276L199 0H100L177 434H92L106 514H190L196 547Q213 641 264 689T396 738Q432 738 464 729L467 649Q435 657 403 657Q356 657 330 630T294 544L289 514H495L502
550Q519 644 571 693T705 743Q743 743 768 735L771 654Q742 662 710 662Q662 662 637 636T600 547L594 514H801L840 737H939L809 0H710Z" />
</font>
</defs>
</svg>
