<?xml version="1.0" standalone="no"?> <!DOCTYPE svg PUBLIC "-//W3C//DTD SVG 1.0//EN" "http://www.w3.org/TR/2001/REC-SVG-20010904/DTD/svg10.dtd" > <svg xmlns="http://www.w3.org/2000/svg" width="100%" height="100%">
<defs >
<font id="PrecisionSans_W_Bd" horiz-adv-x="565" ><font-face
    font-family="Precision Sans W"
    units-per-em="1000"
    panose-1="2 11 7 3 2 2 4 2 2 4"
    ascent="957"
    descent="-249"
    alphabetic="0" />
<missing-glyph horiz-adv-x="500" d="M50 0V750H450V0H50ZM400 700H100V50H400V700Z" />
<glyph unicode="&#x0;" glyph-name=".null" horiz-adv-x="0" />
<glyph unicode="&#x8;" glyph-name=".null" horiz-adv-x="0" />
<glyph unicode="&#x9;" glyph-name="CR" horiz-adv-x="220" />
<glyph unicode="&#xd;" glyph-name="CR" horiz-adv-x="220" />
<glyph unicode="&#x1d;" glyph-name=".null" horiz-adv-x="0" />
<glyph unicode=" " glyph-name="space" horiz-adv-x="220" />
<glyph unicode="!" glyph-name="exclam" horiz-adv-x="294" d="M79 226L69 719H225L215 226H79ZM227 66Q227 31 205 10T147 -12Q111 -12 89 9T67 66Q67 101 89 123T147 145Q183 145 205 123T227 66Z" />
<glyph unicode="&quot;" glyph-name="quotedbl" horiz-adv-x="456" d="M46 513L81 749H210L175 513H46ZM246 513L281 749H410L375 513H246Z" />
<glyph unicode="#" glyph-name="numbersign" horiz-adv-x="596" d="M323 19L338 190H229L215 19H94L108 190H15V297H117L128 422H35V529H137L152 700H273L258 529H367L381 700H502L488 529H581V422H479L468 297H561V190H459L444 19H323ZM358 422H249L238 297H347L358
422Z" />
<glyph unicode="$" glyph-name="dollar" horiz-adv-x="596" d="M282 -118V-11Q155 -11 66 24L55 165Q93 142 147 129T253 115Q384 115 384 204Q384 228 374 240T338 267T250 307Q158 347 120 394T81 513Q81 602 133 655T282 718V825H369V719Q428 714 501 693L516
568Q474 584 425 593T337 603Q232 603 232 531Q232 506 244 489T285 454T374 407Q443 374 478 346T527 286T541 209Q541 128 497 75T369 0V-118H282Z" />
<glyph unicode="%" glyph-name="percent" horiz-adv-x="1043" d="M209 0L697 711H836L348 0H209ZM812 83Q849 83 865 110T882 200Q882 262 866 289T812 317Q775 317 759 290T742 200Q742 138 758 111T812 83ZM812 -12Q718 -12 669 42T619 200Q619 303 668 357T812
412Q906 412 955 358T1005 200Q1005 97 956 43T812 -12ZM230 390Q267 390 283 417T300 507Q300 569 284 596T230 624Q193 624 177 597T160 507Q160 445 176 418T230 390ZM230 295Q136 295 87 349T37 507Q37 610 86 664T230 719Q324 719 373 665T423 507Q423 404
374 350T230 295Z" />
<glyph unicode="&amp;" glyph-name="ampersand" horiz-adv-x="749" d="M577 0L512 64Q425 -12 291 -12Q174 -12 106 45T38 201Q38 272 73 328T173 413Q147 449 135 482T122 550Q122 631 181 681T338 731Q397 731 464 712L490 593Q447 611 417 618T359 626Q267
626 267 548Q267 515 287 481T356 397L480 271Q484 305 484 325V404H619V321Q619 233 587 163L749 0H577ZM239 337Q212 315 198 285T184 220Q184 166 218 135T311 103Q383 103 427 149L239 337Z" />
<glyph unicode="&apos;" glyph-name="quotesingle" horiz-adv-x="256" d="M46 513L81 749H210L175 513H46Z" />
<glyph unicode="(" glyph-name="parenleft" horiz-adv-x="353" d="M164 -167Q48 18 48 305Q48 591 164 776H305Q250 680 221 560T192 305Q192 170 221 50T305 -167H164Z" />
<glyph unicode=")" glyph-name="parenright" horiz-adv-x="353" d="M48 -167Q103 -71 132 49T161 305Q161 440 132 560T48 776H189Q305 591 305 305Q305 18 189 -167H48Z" />
<glyph unicode="*" glyph-name="asterisk" horiz-adv-x="502" d="M93 346L165 463L245 405L155 301L93 346ZM347 301L257 405L337 463L409 346L347 301ZM340 479L309 573L443 604L467 532L340 479ZM35 532L59 604L193 573L162 479L35 532ZM202 582L213 719H289L300
582H202Z" />
<glyph unicode="+" glyph-name="plus" horiz-adv-x="596" d="M238 116V293H80V414H238V591H358V414H516V293H358V116H238Z" />
<glyph unicode="," glyph-name="comma" horiz-adv-x="256" d="M37 -138Q58 -84 66 -26T75 119H205Q205 68 200 25T184 -55T151 -138H37Z" />
<glyph unicode="-" glyph-name="hyphen" horiz-adv-x="367" d="M46 215V336H321V215H46Z" />
<glyph unicode="." glyph-name="period" horiz-adv-x="256" d="M208 66Q208 31 186 10T128 -12Q92 -12 70 9T48 66Q48 101 70 123T128 145Q164 145 186 123T208 66Z" />
<glyph unicode="/" glyph-name="slash" horiz-adv-x="415" d="M15 0L258 719H400L157 0H15Z" />
<glyph unicode="0" glyph-name="zero" horiz-adv-x="596" d="M298 -12Q170 -12 104 81T37 354Q37 533 103 626T298 719Q426 719 492 626T559 354Q559 175 493 82T298 -12ZM298 111Q350 111 377 172T404 354Q404 474 377 535T298 596Q246 596 219 535T192 354Q192
234 219 173T298 111Z" />
<glyph unicode="1" glyph-name="one" horiz-adv-x="596" d="M252 0V524L132 472L77 581L366 712H395V0H252Z" />
<glyph unicode="2" glyph-name="two" horiz-adv-x="596" d="M55 0L48 25L157 155Q238 252 280 311T340 411T357 490Q357 543 328 568T236 594Q200 594 159 585T61 555L79 680Q136 701 181 710T275 719Q393 719 454 667T515 512Q515 440 478 369T345 185L293 124H525V0H55Z"
/>
<glyph unicode="3" glyph-name="three" horiz-adv-x="596" d="M67 144Q163 113 226 113Q298 113 337 143T377 228Q377 280 341 307T235 335Q199 335 175 328L165 343L297 583H79V707H497L507 690L346 423Q400 416 440 391T501 326T522 230Q522 159 487 104T387
19T230 -12Q154 -12 76 18L67 144Z" />
<glyph unicode="4" glyph-name="four" horiz-adv-x="596" d="M361 0V136H25L16 150L299 726L424 679L217 257H361V412H499V257H571V136H499V0H361Z" />
<glyph unicode="5" glyph-name="five" horiz-adv-x="596" d="M76 144Q128 127 163 120T233 113Q307 113 346 143T386 230Q386 334 249 334Q196 334 115 313L100 325L114 707H491V587H245L239 450Q275 454 295 454Q404 454 467 395T531 234Q531 121 453 55T241
-12Q200 -12 163 -5T85 18L76 144Z" />
<glyph unicode="6" glyph-name="six" horiz-adv-x="596" d="M499 614Q374 601 296 543T200 392Q250 464 346 464Q408 464 456 436T532 356T560 235Q560 162 529 107T438 20T300 -12Q178 -12 114 63T50 283Q50 407 97 504T234 657T446 719L499 614ZM305 104Q355
104 383 138T412 232Q412 290 385 321T306 352Q254 352 227 321T199 232Q199 172 227 138T305 104Z" />
<glyph unicode="7" glyph-name="seven" horiz-adv-x="596" d="M138 38L367 583H66V707H558L564 695L270 -19L138 38Z" />
<glyph unicode="8" glyph-name="eight" horiz-adv-x="596" d="M426 380Q483 362 517 313T551 196Q551 99 483 44T296 -12Q179 -12 112 42T45 193Q45 261 79 311T170 380Q126 400 102 440T77 534Q77 620 136 669T300 719Q403 719 461 671T519 539Q519 503 508 472T475
416T426 380ZM407 207Q407 262 378 292T297 322Q245 322 217 293T189 208Q189 99 298 99Q351 99 379 126T407 207ZM298 430Q340 430 363 454T386 519Q386 562 363 587T298 612Q257 612 234 587T210 519Q210 478 233 454T298 430Z" />
<glyph unicode="9" glyph-name="nine" horiz-adv-x="596" d="M293 355Q345 355 372 386T400 476Q400 535 372 569T294 603Q244 603 216 569T187 475Q187 417 214 386T293 355ZM100 93Q224 106 303 164T399 315Q350 243 253 243Q191 243 143 271T67 351T39 472Q39
583 110 651T299 719Q421 719 485 644T549 424Q549 299 502 203T366 50T153 -12L100 93Z" />
<glyph unicode=":" glyph-name="colon" horiz-adv-x="256" d="M208 66Q208 31 186 10T128 -12Q92 -12 70 9T48 66Q48 101 70 123T128 145Q164 145 186 123T208 66ZM208 421Q208 386 186 365T128 343Q92 343 70 364T48 421Q48 456 70 478T128 500Q164 500 186 478T208
421Z" />
<glyph unicode=";" glyph-name="semicolon" horiz-adv-x="256" d="M32 -138Q53 -84 61 -26T70 119H200Q200 68 195 25T179 -55T146 -138H32ZM208 421Q208 386 186 365T128 343Q92 343 70 364T48 421Q48 456 70 478T128 500Q164 500 186 478T208 421Z" />
<glyph unicode="&lt;" glyph-name="less" horiz-adv-x="596" d="M84 268V411L512 579V450L205 339L512 234V99L84 268Z" />
<glyph unicode="=" glyph-name="equal" horiz-adv-x="596" d="M80 185V306H516V185H80ZM80 390V511H516V390H80Z" />
<glyph unicode="&gt;" glyph-name="greater" horiz-adv-x="596" d="M84 99V228L391 339L84 444V579L512 410V267L84 99Z" />
<glyph unicode="?" glyph-name="question" horiz-adv-x="456" d="M139 226V398Q206 410 243 441T281 517Q281 558 251 580T164 602Q103 602 41 582L48 698Q114 722 190 722Q300 722 363 671T427 526Q427 479 411 441T361 373T269 317V226H139ZM283 66Q283 31 261
10T203 -12Q167 -12 145 9T123 66Q123 101 145 123T203 145Q239 145 261 123T283 66Z" />
<glyph unicode="@" glyph-name="at" horiz-adv-x="1003" d="M582 413Q568 418 544 418Q505 418 473 396T422 334T402 242Q402 196 420 175T478 154Q512 154 539 165L582 413ZM648 -112Q614 -129 557 -139T435 -150Q313 -150 224 -106T86 22T37 223Q37 367 105
481T299 662T590 729Q769 729 867 641T966 391Q966 294 931 218T829 97T675 52Q641 52 617 60T570 89Q535 69 502 60T430 51Q351 51 310 94T269 223Q269 306 306 374T410 484T564 525Q601 525 645 518T724 498L660 159Q670 151 693 151Q733 151 767 181T822 268T843
396Q843 508 778 563T582 618Q455 618 360 571T213 435T160 222Q160 -39 456 -39Q589 -39 657 -12L648 -112Z" />
<glyph unicode="A" glyph-name="A" horiz-adv-x="635" d="M471 0L431 144H193L152 0H10L237 719H400L625 0H471ZM314 567L227 265H397L314 567Z" />
<glyph unicode="B" glyph-name="B" horiz-adv-x="608" d="M76 718Q193 731 254 731Q386 731 454 682T523 539Q523 476 493 436T411 386Q488 376 529 329T570 206Q570 101 491 45T265 -12Q181 -12 76 0V718ZM221 325V109Q247 103 279 103Q342 103 381 134T420 214Q420
266 377 295T258 325H221ZM258 432Q316 432 349 456T383 524Q383 567 349 591T254 616Q235 616 221 614V432H258Z" />
<glyph unicode="C" glyph-name="C" horiz-adv-x="612" d="M574 19Q494 -12 401 -12Q228 -12 139 81T49 355Q49 466 91 551T211 683T396 731Q473 731 554 700L560 568Q528 585 484 595T401 605Q306 605 256 541T205 357Q205 237 256 176T409 114Q498 114 582 141L574 19Z" />
<glyph unicode="D" glyph-name="D" horiz-adv-x="702" d="M76 719Q180 731 254 731Q653 731 653 354Q653 167 554 78T250 -12Q174 -12 76 0V719ZM223 117Q251 114 281 114Q392 114 444 173T497 357Q497 484 443 544T277 605Q243 605 223 602V117Z" />
<glyph unicode="E" glyph-name="E" horiz-adv-x="553" d="M76 0V719H504V593H223V423H456V297H223V126H513V0H76Z" />
<glyph unicode="F" glyph-name="F" horiz-adv-x="516" d="M76 0V719H472V593H223V423H448V297H223V0H76Z" />
<glyph unicode="G" glyph-name="G" horiz-adv-x="662" d="M459 331H606V28Q567 10 511 -1T401 -12Q228 -12 139 81T49 355Q49 466 91 551T212 683T397 731Q445 731 494 722T581 698L587 566Q552 584 504 594T411 605Q309 605 257 543T205 359Q205 238 255 176T403
114Q436 114 459 122V331Z" />
<glyph unicode="H" glyph-name="H" horiz-adv-x="687" d="M464 0V306H223V0H76V719H223V432H464V719H611V0H464Z" />
<glyph unicode="I" glyph-name="I" horiz-adv-x="299" d="M76 0V719H223V0H76Z" />
<glyph unicode="J" glyph-name="J" horiz-adv-x="419" d="M19 122Q57 114 100 114Q152 114 175 137T199 213V719H346V191Q346 94 288 41T125 -12Q72 -12 27 0L19 122Z" />
<glyph unicode="K" glyph-name="K" horiz-adv-x="633" d="M76 0V719H223V0H76ZM454 0L228 362L439 719H599L386 372L626 0H454Z" />
<glyph unicode="L" glyph-name="L" horiz-adv-x="518" d="M76 0V719H223V126H489V0H76Z" />
<glyph unicode="M" glyph-name="M" horiz-adv-x="819" d="M613 0L596 497L458 139H353L215 497L198 0H59L94 719H258L411 324L563 719H725L760 0H613Z" />
<glyph unicode="N" glyph-name="N" horiz-adv-x="680" d="M484 0L205 457V0H76V719H196L475 262V719H604V0H484Z" />
<glyph unicode="O" glyph-name="O" horiz-adv-x="744" d="M372 -12Q218 -12 134 85T49 360Q49 538 133 634T372 731Q527 731 611 635T695 360Q695 182 611 85T372 -12ZM372 114Q453 114 496 177T539 360Q539 479 496 542T372 605Q290 605 248 542T205 360Q205
240 248 177T372 114Z" />
<glyph unicode="P" glyph-name="P" horiz-adv-x="582" d="M223 353Q232 352 250 352Q389 352 389 490Q389 554 356 585T256 616Q237 616 223 614V353ZM76 0V718Q201 731 256 731Q397 731 471 670T545 491Q545 371 468 304T254 237Q235 237 223 238V0H76Z" />
<glyph unicode="Q" glyph-name="Q" horiz-adv-x="744" d="M353 -11Q207 -5 128 91T49 361Q49 538 133 634T372 731Q526 731 610 635T695 365Q695 263 665 186T576 58L742 40L718 -77L353 -11ZM372 114Q453 114 496 177T539 360Q539 479 496 542T372 605Q290 605
248 542T205 360Q205 241 248 178T372 114Z" />
<glyph unicode="R" glyph-name="R" horiz-adv-x="617" d="M450 0L230 361H247Q313 361 351 397T390 495Q390 556 357 586T255 616Q241 616 223 614V0H76V718Q205 731 257 731Q396 731 470 672T545 501Q545 432 511 382T417 308L615 0H450Z" />
<glyph unicode="S" glyph-name="S" horiz-adv-x="555" d="M38 153Q124 112 232 112Q297 112 330 136T364 207Q364 231 354 243T318 270T229 311Q137 351 99 399T60 520Q60 621 124 676T309 731Q390 731 481 702L496 578Q456 593 407 602T317 611Q211 611 211 538Q211
512 223 495T265 460T354 413Q423 380 458 352T507 291T521 212Q521 105 447 47T236 -12Q181 -12 136 -3T45 26L38 153Z" />
<glyph unicode="T" glyph-name="T" d="M209 0V593H30V719H535V593H356V0H209Z" />
<glyph unicode="U" glyph-name="U" horiz-adv-x="686" d="M466 719H613V315Q613 144 549 66T343 -12Q202 -12 138 66T73 315V719H220V346Q220 250 232 202T270 134T343 114Q393 114 419 136T455 208T466 346V719Z" />
<glyph unicode="V" glyph-name="V" horiz-adv-x="667" d="M248 0L18 719H176L334 152L491 719H649L419 0H248Z" />
<glyph unicode="W" glyph-name="W" horiz-adv-x="933" d="M586 0L471 479L347 0H201L21 719H171L290 178L402 719H540L669 178L772 719H912L732 0H586Z" />
<glyph unicode="X" glyph-name="X" horiz-adv-x="639" d="M19 0L180 369L43 719H200L317 369L172 0H19ZM467 0L322 369L439 719H596L459 369L620 0H467Z" />
<glyph unicode="Y" glyph-name="Y" horiz-adv-x="631" d="M242 0V257L18 719H178L320 393L460 719H613L389 257V0H242Z" />
<glyph unicode="Z" glyph-name="Z" horiz-adv-x="579" d="M37 0L29 12L328 593H55V719H537L545 707L246 126H530V0H37Z" />
<glyph unicode="[" glyph-name="bracketleft" horiz-adv-x="362" d="M76 -168V774H314V660H214V-54H314V-168H76Z" />
<glyph unicode="\" glyph-name="backslash" horiz-adv-x="415" d="M258 0L15 719H157L400 0H258Z" />
<glyph unicode="]" glyph-name="bracketright" horiz-adv-x="362" d="M48 -168V-54H148V660H48V774H286V-168H48Z" />
<glyph unicode="^" glyph-name="asciicircum" horiz-adv-x="596" d="M391 362L298 579L205 362H75L230 719H366L521 362H391Z" />
<glyph unicode="_" glyph-name="underscore" horiz-adv-x="500" d="M0 -145V-24H500V-145H0Z" />
<glyph unicode="`" glyph-name="grave" horiz-adv-x="580" d="M276 593L176 722H319L404 593H276Z" />
<glyph unicode="a" glyph-name="a" horiz-adv-x="525" d="M468 19Q371 -12 264 -12Q149 -12 93 26T37 143Q37 315 309 315H331V335Q331 417 222 417Q161 417 66 396L77 500Q161 529 245 529Q355 529 411 476T468 319V19ZM331 216H304Q232 216 202 203T172 159Q172
98 272 98Q307 98 331 104V216Z" />
<glyph unicode="b" glyph-name="b" horiz-adv-x="586" d="M67 737H207V521Q247 529 283 529Q406 529 476 460T547 271Q547 188 512 124T409 24T250 -12Q172 -12 67 12V737ZM207 110Q227 104 257 104Q327 104 365 144T403 260Q403 333 368 373T267 413Q242 413
207 407V110Z" />
<glyph unicode="c" glyph-name="c" horiz-adv-x="494" d="M453 13Q424 1 384 -5T304 -12Q178 -12 109 58T39 253Q39 381 111 455T308 529Q379 529 440 503L450 392Q384 413 333 413Q256 413 220 375T183 255Q183 175 219 140T337 104Q400 104 465 124L453 13Z" />
<glyph unicode="d" glyph-name="d" horiz-adv-x="586" d="M379 737H519V19Q484 6 421 -3T303 -12Q180 -12 110 57T39 247Q39 331 74 394T177 493T336 529Q347 529 357 529T379 527V737ZM378 407Q359 413 329 413Q258 413 221 373T183 256Q183 185 219 145T319
104Q349 104 378 109V407Z" />
<glyph unicode="e" glyph-name="e" horiz-adv-x="552" d="M382 314Q382 364 356 391T282 418Q235 418 208 392T177 314H382ZM494 18Q415 -12 315 -12Q39 -12 39 252Q39 384 105 456T293 529Q402 529 458 470T515 295Q515 245 510 215H176Q184 101 331 101Q370
101 419 108T501 126L494 18Z" />
<glyph unicode="f" glyph-name="f" horiz-adv-x="389" d="M103 0V410H21V518H103V543Q103 633 156 688T298 743Q338 743 380 731L402 624Q358 631 329 631Q284 631 264 609T243 540V518H363V410H243V0H103Z" />
<glyph unicode="g" glyph-name="g" horiz-adv-x="587" d="M379 4Q348 0 310 0Q182 0 111 67T39 256Q39 383 118 456T334 529Q414 529 520 505V-3Q520 -117 447 -183T245 -249Q198 -249 148 -241T63 -217L57 -102Q165 -137 236 -137Q304 -137 340 -103T379 -2V4ZM379
407Q360 413 329 413Q183 413 183 266Q183 192 218 154T323 116Q357 116 379 121V407Z" />
<glyph unicode="h" glyph-name="h" horiz-adv-x="580" d="M383 0V273Q383 350 362 380T284 410Q249 410 207 399V0H67V737H207V516Q262 529 317 529Q429 529 476 481T523 316V0H383Z" />
<glyph unicode="i" glyph-name="i" horiz-adv-x="274" d="M215 665Q215 630 194 609T137 588Q102 588 81 609T59 665Q59 700 80 721T137 742Q172 742 193 721T215 665ZM67 0V518H207V0H67Z" />
<glyph unicode="j" glyph-name="j" horiz-adv-x="274" d="M-88 -128Q-27 -137 -6 -137Q67 -137 67 -46V518H207V-68Q207 -249 26 -249Q-34 -249 -79 -232L-88 -128ZM215 665Q215 630 194 609T137 588Q102 588 81 609T59 665Q59 700 80 721T137 742Q172 742 193
721T215 665Z" />
<glyph unicode="k" glyph-name="k" d="M67 0V737H207V0H67ZM410 0L211 271L398 518H553L356 278L574 0H410Z" />
<glyph unicode="l" glyph-name="l" horiz-adv-x="274" d="M67 0V737H207V0H67Z" />
<glyph unicode="m" glyph-name="m" horiz-adv-x="870" d="M673 0V273Q673 352 653 381T576 410Q537 410 503 396Q510 357 510 295V0H370V273Q370 328 361 357T330 398T272 410Q243 410 207 399V0H67V484Q196 529 301 529Q401 529 449 493Q518 529 604 529Q684
529 729 507T793 439T813 316V0H673Z" />
<glyph unicode="n" glyph-name="n" horiz-adv-x="580" d="M383 0V273Q383 350 362 380T284 410Q249 410 207 399V0H67V484Q192 529 314 529Q394 529 439 507T503 439T523 316V0H383Z" />
<glyph unicode="o" glyph-name="o" horiz-adv-x="602" d="M301 104Q358 104 388 144T419 259Q419 334 389 373T301 413Q244 413 214 374T183 259Q183 184 213 144T301 104ZM301 -12Q173 -12 106 57T39 259Q39 387 108 458T301 529Q429 529 496 460T563 259Q563
131 494 60T301 -12Z" />
<glyph unicode="p" glyph-name="p" horiz-adv-x="586" d="M67 -238V498Q103 511 166 520T283 529Q406 529 476 461T547 273Q547 190 512 126T410 25T257 -12Q229 -12 207 -10V-238H67ZM207 110Q227 104 257 104Q327 104 365 144T403 260Q403 333 368 373T267 413Q242
413 207 407V110Z" />
<glyph unicode="q" glyph-name="q" horiz-adv-x="586" d="M378 407Q359 413 329 413Q258 413 221 373T183 256Q183 185 219 145T319 104Q349 104 378 109V407ZM379 -238V-9Q346 -12 303 -12Q180 -12 110 57T39 247Q39 375 118 452T332 529Q414 529 519 505V-238H379Z" />
<glyph unicode="r" glyph-name="r" horiz-adv-x="406" d="M67 0V489Q161 529 272 529Q328 529 374 519L387 400Q331 408 289 408Q242 408 207 401V0H67Z" />
<glyph unicode="s" glyph-name="s" horiz-adv-x="445" d="M38 137Q114 98 204 98Q245 98 263 108T281 142Q281 158 273 168T246 187T178 214Q103 241 73 276T42 365Q42 442 95 485T243 529Q325 529 387 497L394 390Q381 395 359 403T310 417T253 424Q214 424 194
412T173 376Q173 363 180 355T206 337T281 304Q341 279 367 259T405 212T416 152Q416 73 363 31T212 -12Q163 -12 118 -2T44 27L38 137Z" />
<glyph unicode="t" glyph-name="t" horiz-adv-x="403" d="M376 6Q358 -2 326 -7T261 -12Q172 -12 134 34T96 190V410H14V518H96V658H236V518H347V410H236V206Q236 148 255 124T320 100Q343 100 389 110L376 6Z" />
<glyph unicode="u" glyph-name="u" horiz-adv-x="574" d="M367 518H507V20Q407 -12 305 -12Q173 -12 115 46T57 239V518H197V243Q197 167 222 136T309 105Q343 105 367 112V518Z" />
<glyph unicode="v" glyph-name="v" horiz-adv-x="551" d="M205 0L8 518H166L279 142L393 518H543L346 0H205Z" />
<glyph unicode="w" glyph-name="w" horiz-adv-x="812" d="M504 0L405 343L308 0H166L10 518H163L246 135L342 518H483L577 135L659 518H802L646 0H504Z" />
<glyph unicode="x" glyph-name="x" horiz-adv-x="534" d="M15 0L135 257L34 518H184L265 254L160 0H15ZM374 0L269 254L350 518H500L399 257L519 0H374Z" />
<glyph unicode="y" glyph-name="y" horiz-adv-x="551" d="M114 -238L205 0L8 518H166L279 142L393 518H543L255 -238H114Z" />
<glyph unicode="z" glyph-name="z" horiz-adv-x="492" d="M33 0L26 12L262 409H60V518H466L473 506L237 109H456V0H33Z" />
<glyph unicode="{" glyph-name="braceleft" horiz-adv-x="433" d="M379 -167Q372 -168 346 -168Q272 -168 230 -146T167 -77T145 47L142 138Q140 185 131 212T103 258T48 293V321Q86 338 105 357T132 405T142 476L145 567Q148 649 169 695T233 761T346 782Q372
782 379 781V671H362Q324 671 309 661T287 624T279 542Q276 459 271 422T257 365T234 332T195 306Q227 290 241 274T263 234T273 173T279 72Q281 9 288 -16T312 -49T362 -57H379V-167Z" />
<glyph unicode="|" glyph-name="bar" horiz-adv-x="331" d="M97 -168V776H234V-168H97Z" />
<glyph unicode="}" glyph-name="braceright" horiz-adv-x="433" d="M54 -57H71Q109 -57 124 -47T146 -10T154 72Q157 172 164 211T188 269T238 306Q199 327 184 349T163 413T154 542Q152 605 145 630T121 663T71 671H54V781Q61 782 87 782Q161 782 203 760T266
691T288 567L291 476Q293 429 302 402T330 356T385 321V293Q347 276 328 257T301 209T291 138L288 47Q285 -35 264 -81T200 -147T87 -168Q61 -168 54 -167V-57Z" />
<glyph unicode="~" glyph-name="asciitilde" horiz-adv-x="596" d="M85 253Q80 288 80 317Q80 380 117 419T212 459Q256 459 300 430Q315 420 329 410T356 393T377 386Q385 386 389 393T394 411Q394 420 392 439T389 459H511Q516 424 516 395Q516 332 479 293T383
253Q339 253 295 282Q280 292 266 302T239 319T218 326Q210 326 206 319T202 301Q202 292 204 273T207 253H85Z" />
<glyph unicode="&#xa0;" glyph-name="uni00A0" horiz-adv-x="220" />
<glyph unicode="&#xa1;" glyph-name="exclamdown" horiz-adv-x="294" d="M69 -208L79 285H215L225 -208H69ZM227 445Q227 410 205 388T147 366Q111 366 89 388T67 445Q67 480 89 501T147 523Q183 523 205 502T227 445Z" />
<glyph unicode="&#xa2;" glyph-name="cent" horiz-adv-x="596" d="M294 -118V-8Q193 6 138 74T83 253Q83 364 138 435T294 524V638H381V528Q436 523 484 503L494 392Q428 413 377 413Q300 413 264 375T227 255Q227 175 263 140T381 104Q444 104 509 124L497 13Q452
-6 381 -11V-118H294Z" />
<glyph unicode="&#xa3;" glyph-name="sterling" horiz-adv-x="596" d="M86 0L82 14Q125 51 148 108T172 232Q172 255 167 288H77V396H150Q141 469 141 497Q141 602 204 660T382 719Q463 719 528 691L536 575Q462 600 405 600Q288 600 288 479Q288 443 297 396H469V288H314Q317
264 317 243Q317 180 290 126H548V0H86Z" />
<glyph unicode="&#xa4;" glyph-name="currency" horiz-adv-x="596" d="M492 83L410 165Q358 134 298 134Q238 134 186 165L104 83L23 160L108 246Q81 295 81 351Q81 407 108 456L23 542L104 619L186 537Q238 568 298 568Q358 568 410 537L492 619L573 542L488
456Q515 407 515 351Q515 295 488 246L573 160L492 83ZM298 244Q341 244 370 274T400 351Q400 397 371 427T298 458Q255 458 226 428T196 351Q196 305 225 275T298 244Z" />
<glyph unicode="&#xa5;" glyph-name="yen" horiz-adv-x="596" d="M370 146V0H225V146H59V230H225V312H59V396H178L10 707H170L302 428L432 707H585L417 396H536V312H370V230H536V146H370Z" />
<glyph unicode="&#xa6;" glyph-name="brokenbar" horiz-adv-x="331" d="M97 444V776H234V444H97ZM97 -168V164H234V-168H97Z" />
<glyph unicode="&#xa7;" glyph-name="section" horiz-adv-x="564" d="M173 221Q112 240 86 268T59 344Q59 408 121 472Q86 506 86 560Q86 636 145 677T311 719Q393 719 471 691L477 587Q455 597 405 605T315 613Q227 613 227 567Q227 550 239 540T281 520L401
484Q457 467 481 439T505 362Q505 296 443 231Q478 199 478 148Q478 74 412 31T234 -12Q140 -12 67 14L61 122Q84 111 136 103T233 94Q286 94 311 106T337 145Q337 161 325 170T283 187L173 221ZM348 281Q380 310 380 341Q380 363 365 376T314 400L214 426Q182
402 182 367Q182 346 194 334T237 313L348 281Z" />
<glyph unicode="&#xa8;" glyph-name="dieresis" horiz-adv-x="580" d="M250 657Q250 627 231 608T180 589Q148 589 129 608T110 657Q110 687 129 706T180 725Q212 725 231 706T250 657ZM470 657Q470 627 451 608T400 589Q368 589 349 608T330 657Q330 687 349
706T400 725Q432 725 451 706T470 657Z" />
<glyph unicode="&#xa9;" glyph-name="copyright" horiz-adv-x="818" d="M533 173Q487 155 434 155Q339 155 286 210T232 360Q232 455 285 511T431 567Q480 567 528 548L532 460Q516 466 490 469T442 473Q342 473 342 360Q342 303 367 276T445 249Q499 249 532
263L533 173ZM409 61Q492 61 558 97T662 201T700 359Q700 444 665 511T563 618T409 657Q326 657 260 621T156 517T118 359Q118 274 153 207T255 100T409 61ZM409 -13Q305 -13 221 33T88 164T38 359Q38 463 84 547T215 681T409 731Q513 731 597 685T730 554T780
359Q780 255 734 171T603 37T409 -13Z" />
<glyph unicode="&#xaa;" glyph-name="ordfeminine" horiz-adv-x="428" d="M376 320Q296 295 218 295Q131 295 85 328T39 425Q39 558 246 558H264V562Q264 598 243 614T174 631Q127 631 64 616L73 696Q144 719 204 719Q376 719 376 561V320ZM264 484H247Q194 484
170 472T146 433Q146 408 166 393T222 378Q244 378 264 382V484Z" />
<glyph unicode="&#xab;" glyph-name="guillemotleft" horiz-adv-x="637" d="M194 46L38 266L194 488H340L186 266L340 46H194ZM461 46L305 266L461 488H607L453 266L607 46H461Z" />
<glyph unicode="&#xac;" glyph-name="logicalnot" horiz-adv-x="596" d="M393 92V293H80V414H516V92H393Z" />
<glyph unicode="&#xad;" glyph-name="uni00AD" horiz-adv-x="367" d="M46 215V336H321V215H46Z" />
<glyph unicode="&#xae;" glyph-name="registered" horiz-adv-x="818" d="M487 172L373 361H384Q415 361 434 381T453 433Q453 488 387 488Q380 488 376 488T369 487V172H274V554Q353 561 387 561Q467 561 510 528T553 435Q553 399 536 371T486 329L587 172H487ZM409
61Q492 61 558 97T662 201T700 359Q700 444 665 511T563 618T409 657Q326 657 260 621T156 517T118 359Q118 274 153 207T255 100T409 61ZM409 -13Q305 -13 221 33T88 164T38 359Q38 463 84 547T215 681T409 731Q513 731 597 685T730 554T780 359Q780 255 734 171T603
37T409 -13Z" />
<glyph unicode="&#xaf;" glyph-name="macron" horiz-adv-x="580" d="M153 607V708H427V607H153Z" />
<glyph unicode="&#xb0;" glyph-name="degree" horiz-adv-x="380" d="M342 576Q342 510 300 468T190 426Q123 426 81 468T38 576Q38 642 80 684T190 726Q257 726 299 684T342 576ZM190 510Q221 510 237 527T254 576Q254 608 238 625T190 642Q159 642 143 625T126
576Q126 544 142 527T190 510Z" />
<glyph unicode="&#xb1;" glyph-name="plusminus" horiz-adv-x="596" d="M238 186V363H80V484H238V661H358V484H516V363H358V186H238ZM80 0V121H516V0H80Z" />
<glyph unicode="&#xb2;" glyph-name="twosuperior" horiz-adv-x="446" d="M68 307L60 326L199 471Q235 509 248 531T261 573Q261 626 187 626Q135 626 77 610L90 699Q141 719 205 719Q283 719 326 686T370 590Q370 550 349 512T276 422L252 399H391V307H68Z" />
<glyph unicode="&#xb3;" glyph-name="threesuperior" horiz-adv-x="446" d="M92 401Q153 382 189 382Q226 382 248 396T271 436Q271 458 253 471T203 485Q179 485 158 478L144 491L230 619H91V711H365L376 690L280 549Q327 542 355 511T383 433Q383 370 334 333T203
295Q142 295 98 314L92 401Z" />
<glyph unicode="&#xb4;" glyph-name="acute" horiz-adv-x="580" d="M176 593L261 722H404L304 593H176Z" />
<glyph unicode="&#xb5;" glyph-name="mu" horiz-adv-x="596" d="M72 -238V518H212V243Q212 191 223 161T259 118T327 105Q360 105 384 116V518H524V55Q491 24 440 6T335 -12Q265 -12 212 17V-238H72Z" />
<glyph unicode="&#xb6;" glyph-name="paragraph" horiz-adv-x="606" d="M285 0V313H274Q167 313 108 365T48 513Q48 619 127 669T375 719V0H285ZM440 0V719H530V0H440Z" />
<glyph unicode="&#xb7;" glyph-name="periodcentered" horiz-adv-x="256" d="M208 265Q208 230 186 209T128 187Q92 187 70 208T48 265Q48 300 70 322T128 344Q164 344 186 322T208 265Z" />
<glyph unicode="&#xb8;" glyph-name="cedilla" horiz-adv-x="580" d="M169 -162Q185 -167 210 -171T254 -175Q282 -175 297 -167T313 -143Q313 -129 300 -121T262 -112Q230 -112 204 -119L197 -112L247 24H318L288 -53Q293 -52 306 -52Q352 -52 381 -77T411 -142Q411
-190 373 -218T267 -246Q216 -246 181 -236L169 -162Z" />
<glyph unicode="&#xb9;" glyph-name="onesuperior" horiz-adv-x="446" d="M184 307V576L108 548L65 633L268 711H293V307H184Z" />
<glyph unicode="&#xba;" glyph-name="ordmasculine" horiz-adv-x="496" d="M248 395Q325 395 325 507Q325 619 248 619Q171 619 171 507Q171 395 248 395ZM248 295Q156 295 105 350T53 507Q53 608 104 663T248 719Q340 719 391 664T443 507Q443 406 392 351T248 295Z" />
<glyph unicode="&#xbb;" glyph-name="guillemotright" horiz-adv-x="637" d="M30 46L184 267L30 488H176L332 267L176 46H30ZM297 46L451 267L297 488H443L599 267L443 46H297Z" />
<glyph unicode="&#xbc;" glyph-name="onequarter" horiz-adv-x="1043" d="M212 0L700 711H839L351 0H212ZM847 0V73H642L631 91L796 412L882 369L772 155H847V231H942V155H991V73H942V0H847ZM184 307V576L108 548L65 633L268 711H293V307H184Z" />
<glyph unicode="&#xbd;" glyph-name="onehalf" horiz-adv-x="1043" d="M203 0L691 711H830L342 0H203ZM665 0L657 19L796 164Q832 202 845 224T858 266Q858 319 784 319Q732 319 674 303L687 392Q738 412 802 412Q880 412 923 379T967 283Q967 243 946 205T873
115L849 92H988V0H665ZM184 307V576L108 548L65 633L268 711H293V307H184Z" />
<glyph unicode="&#xbe;" glyph-name="threequarters" horiz-adv-x="1043" d="M237 0L725 711H864L376 0H237ZM847 0V73H642L631 91L796 412L882 369L772 155H847V231H942V155H991V73H942V0H847ZM92 401Q153 382 189 382Q226 382 248 396T271 436Q271 458 253 471T203
485Q179 485 158 478L144 491L230 619H91V711H365L376 690L280 549Q327 542 355 511T383 433Q383 370 334 333T203 295Q142 295 98 314L92 401Z" />
<glyph unicode="&#xbf;" glyph-name="questiondown" horiz-adv-x="456" d="M408 -187Q342 -211 266 -211Q156 -211 93 -160T29 -15Q29 32 45 70T95 138T187 194V285H317V113Q250 101 213 70T175 -6Q175 -47 205 -69T292 -91Q353 -91 415 -71L408 -187ZM333 445Q333
410 311 388T253 366Q217 366 195 388T173 445Q173 480 195 501T253 523Q289 523 311 502T333 445Z" />
<glyph unicode="&#xc0;" glyph-name="Agrave" horiz-adv-x="635" d="M471 0L431 144H193L152 0H10L237 719H400L625 0H471ZM314 567L227 265H397L314 567ZM253 778L132 889H294L392 778H253Z" />
<glyph unicode="&#xc1;" glyph-name="Aacute" horiz-adv-x="635" d="M471 0L431 144H193L152 0H10L237 719H400L625 0H471ZM314 567L227 265H397L314 567ZM395 778H256L354 889H516L395 778Z" />
<glyph unicode="&#xc2;" glyph-name="Acircumflex" horiz-adv-x="635" d="M471 0L431 144H193L152 0H10L237 719H400L625 0H471ZM314 567L227 265H397L314 567ZM364 778L314 831L264 778H118L243 889H385L510 778H364Z" />
<glyph unicode="&#xc3;" glyph-name="Atilde" horiz-adv-x="635" d="M471 0L431 144H193L152 0H10L237 719H400L625 0H471ZM314 567L227 265H397L314 567ZM471 921Q474 900 474 874Q474 830 452 804T393 778Q364 778 316 802Q274 824 256 824Q237 824 237 805Q237
794 241 778H157Q154 799 154 825Q154 869 176 895T235 921Q264 921 312 897Q354 875 372 875Q391 875 391 894Q391 905 387 921H471Z" />
<glyph unicode="&#xc4;" glyph-name="Adieresis" horiz-adv-x="635" d="M471 0L431 144H193L152 0H10L237 719H400L625 0H471ZM314 567L227 265H397L314 567ZM498 837Q498 806 479 787T427 768Q395 768 376 787T356 837Q356 868 375 887T427 906Q459 906 478 887T498
837ZM272 837Q272 806 253 787T200 768Q169 768 150 787T130 837Q130 868 149 887T200 906Q233 906 252 887T272 837Z" />
<glyph unicode="&#xc5;" glyph-name="Aring" horiz-adv-x="635" d="M471 0L431 144H193L152 0H10L237 719H400L625 0H471ZM314 567L227 265H397L314 567ZM438 814Q438 762 405 730T318 698Q265 698 232 730T198 814Q198 866 231 898T318 930Q371 930 404 898T438
814ZM318 757Q339 757 352 772T365 814Q365 841 352 856T318 871Q297 871 284 856T271 814Q271 787 284 772T318 757Z" />
<glyph unicode="&#xc6;" glyph-name="AE" horiz-adv-x="958" d="M481 0V144H230L154 0H-5L400 719H909V593H628V423H861V297H628V126H918V0H481ZM481 607H475L294 265H481V607Z" />
<glyph unicode="&#xc7;" glyph-name="Ccedilla" horiz-adv-x="612" d="M574 19Q494 -12 401 -12Q228 -12 139 81T49 355Q49 466 91 551T211 683T396 731Q473 731 554 700L560 568Q528 585 484 595T401 605Q306 605 256 541T205 357Q205 237 256 176T409 114Q498
114 582 141L574 19ZM248 -162Q259 -166 286 -169T336 -172Q401 -172 401 -143Q401 -115 348 -115Q322 -115 282 -124L271 -112L320 24H393L365 -47Q369 -46 384 -46Q434 -46 466 -72T498 -142Q498 -192 457 -219T341 -246Q301 -246 260 -235L248 -162Z" />
<glyph unicode="&#xc8;" glyph-name="Egrave" horiz-adv-x="553" d="M76 0V719H504V593H223V423H456V297H223V126H513V0H76ZM255 778L134 889H296L394 778H255Z" />
<glyph unicode="&#xc9;" glyph-name="Eacute" horiz-adv-x="553" d="M76 0V719H504V593H223V423H456V297H223V126H513V0H76ZM323 778H184L282 889H444L323 778Z" />
<glyph unicode="&#xca;" glyph-name="Ecircumflex" horiz-adv-x="553" d="M76 0V719H504V593H223V423H456V297H223V126H513V0H76ZM343 778L293 831L243 778H97L222 889H364L489 778H343Z" />
<glyph unicode="&#xcb;" glyph-name="Edieresis" horiz-adv-x="553" d="M76 0V719H504V593H223V423H456V297H223V126H513V0H76ZM474 837Q474 806 455 787T403 768Q371 768 352 787T332 837Q332 868 351 887T403 906Q435 906 454 887T474 837ZM248 837Q248 806
229 787T176 768Q145 768 126 787T106 837Q106 868 125 887T176 906Q209 906 228 887T248 837Z" />
<glyph unicode="&#xcc;" glyph-name="Igrave" horiz-adv-x="299" d="M76 0V719H223V0H76ZM88 778L-33 889H129L227 778H88Z" />
<glyph unicode="&#xcd;" glyph-name="Iacute" horiz-adv-x="299" d="M76 0V719H223V0H76ZM215 778H76L174 889H336L215 778Z" />
<glyph unicode="&#xce;" glyph-name="Icircumflex" horiz-adv-x="299" d="M76 0V719H223V0H76ZM201 778L151 831L101 778H-45L80 889H222L347 778H201Z" />
<glyph unicode="&#xcf;" glyph-name="Idieresis" horiz-adv-x="299" d="M76 0V719H223V0H76ZM336 837Q336 806 317 787T265 768Q233 768 214 787T194 837Q194 868 213 887T265 906Q297 906 316 887T336 837ZM110 837Q110 806 91 787T38 768Q7 768 -12 787T-32
837Q-32 868 -13 887T38 906Q71 906 90 887T110 837Z" />
<glyph unicode="&#xd0;" glyph-name="Eth" horiz-adv-x="706" d="M80 312H13V413H80V719Q184 731 258 731Q657 731 657 354Q657 167 558 78T254 -12Q178 -12 80 0V312ZM227 312V117Q255 114 285 114Q396 114 448 173T501 357Q501 484 447 544T281 605Q247 605
227 602V413H367V312H227Z" />
<glyph unicode="&#xd1;" glyph-name="Ntilde" horiz-adv-x="680" d="M484 0L205 457V0H76V719H196L475 262V719H604V0H484ZM497 920Q500 899 500 873Q500 829 478 803T419 777Q390 777 342 801Q300 823 282 823Q263 823 263 804Q263 793 267 777H183Q180 798 180
824Q180 868 202 894T261 920Q290 920 338 896Q380 874 398 874Q417 874 417 893Q417 904 413 920H497Z" />
<glyph unicode="&#xd2;" glyph-name="Ograve" horiz-adv-x="744" d="M372 -12Q218 -12 134 85T49 360Q49 538 133 634T372 731Q527 731 611 635T695 360Q695 182 611 85T372 -12ZM372 114Q453 114 496 177T539 360Q539 479 496 542T372 605Q290 605 248 542T205
360Q205 240 248 177T372 114ZM310 778L189 889H351L449 778H310Z" />
<glyph unicode="&#xd3;" glyph-name="Oacute" horiz-adv-x="744" d="M372 -12Q218 -12 134 85T49 360Q49 538 133 634T372 731Q527 731 611 635T695 360Q695 182 611 85T372 -12ZM372 114Q453 114 496 177T539 360Q539 479 496 542T372 605Q290 605 248 542T205
360Q205 240 248 177T372 114ZM434 778H295L393 889H555L434 778Z" />
<glyph unicode="&#xd4;" glyph-name="Ocircumflex" horiz-adv-x="744" d="M372 -12Q218 -12 134 85T49 360Q49 538 133 634T372 731Q527 731 611 635T695 360Q695 182 611 85T372 -12ZM372 114Q453 114 496 177T539 360Q539 479 496 542T372 605Q290 605 248 542T205
360Q205 240 248 177T372 114ZM424 778L374 831L324 778H178L303 889H445L570 778H424Z" />
<glyph unicode="&#xd5;" glyph-name="Otilde" horiz-adv-x="744" d="M372 -12Q218 -12 134 85T49 360Q49 538 133 634T372 731Q527 731 611 635T695 360Q695 182 611 85T372 -12ZM372 114Q453 114 496 177T539 360Q539 479 496 542T372 605Q290 605 248 542T205
360Q205 240 248 177T372 114ZM528 921Q531 900 531 874Q531 830 509 804T450 778Q421 778 373 802Q331 824 313 824Q294 824 294 805Q294 794 298 778H214Q211 799 211 825Q211 869 233 895T292 921Q321 921 369 897Q411 875 429 875Q448 875 448 894Q448 905
444 921H528Z" />
<glyph unicode="&#xd6;" glyph-name="Odieresis" horiz-adv-x="744" d="M372 -12Q218 -12 134 85T49 360Q49 538 133 634T372 731Q527 731 611 635T695 360Q695 182 611 85T372 -12ZM372 114Q453 114 496 177T539 360Q539 479 496 542T372 605Q290 605 248 542T205
360Q205 240 248 177T372 114ZM555 837Q555 806 536 787T484 768Q452 768 433 787T413 837Q413 868 432 887T484 906Q516 906 535 887T555 837ZM329 837Q329 806 310 787T257 768Q226 768 207 787T187 837Q187 868 206 887T257 906Q290 906 309 887T329 837Z" />
<glyph unicode="&#xd7;" glyph-name="multiply" horiz-adv-x="596" d="M298 267L187 156L101 242L212 353L101 464L187 550L298 439L409 550L495 464L384 353L495 242L409 156L298 267Z" />
<glyph unicode="&#xd8;" glyph-name="Oslash" horiz-adv-x="744" d="M66 0L130 88Q49 186 49 360Q49 538 133 635T372 732Q484 732 560 680L589 719H678L614 631Q695 533 695 360Q695 182 611 85T372 -12Q260 -12 184 40L155 0H66ZM480 569Q442 606 372 606Q291
606 248 543T205 360Q205 272 223 216L480 569ZM264 150Q301 114 372 114Q453 114 496 177T539 360Q539 449 520 503L264 150Z" />
<glyph unicode="&#xd9;" glyph-name="Ugrave" horiz-adv-x="686" d="M466 719H613V315Q613 144 549 66T343 -12Q202 -12 138 66T73 315V719H220V346Q220 250 232 202T270 134T343 114Q393 114 419 136T455 208T466 346V719ZM296 778L175 889H337L435 778H296Z" />
<glyph unicode="&#xda;" glyph-name="Uacute" horiz-adv-x="686" d="M466 719H613V315Q613 144 549 66T343 -12Q202 -12 138 66T73 315V719H220V346Q220 250 232 202T270 134T343 114Q393 114 419 136T455 208T466 346V719ZM398 778H259L357 889H519L398 778Z" />
<glyph unicode="&#xdb;" glyph-name="Ucircumflex" horiz-adv-x="686" d="M466 719H613V315Q613 144 549 66T343 -12Q202 -12 138 66T73 315V719H220V346Q220 250 232 202T270 134T343 114Q393 114 419 136T455 208T466 346V719ZM393 778L343 831L293 778H147L272
889H414L539 778H393Z" />
<glyph unicode="&#xdc;" glyph-name="Udieresis" horiz-adv-x="686" d="M466 719H613V315Q613 144 549 66T343 -12Q202 -12 138 66T73 315V719H220V346Q220 250 232 202T270 134T343 114Q393 114 419 136T455 208T466 346V719ZM527 837Q527 806 508 787T456 768Q424
768 405 787T385 837Q385 868 404 887T456 906Q488 906 507 887T527 837ZM301 837Q301 806 282 787T229 768Q198 768 179 787T159 837Q159 868 178 887T229 906Q262 906 281 887T301 837Z" />
<glyph unicode="&#xdd;" glyph-name="Yacute" horiz-adv-x="631" d="M242 0V257L18 719H178L320 393L460 719H613L389 257V0H242ZM383 778H244L342 889H504L383 778Z" />
<glyph unicode="&#xde;" glyph-name="Thorn" horiz-adv-x="582" d="M76 0V719H223V620Q239 621 256 621Q394 621 469 559T545 383Q545 265 467 197T254 128Q234 128 223 129V0H76ZM223 244Q232 243 250 243Q317 243 353 278T389 379Q389 441 355 473T256 506Q234
506 223 504V244Z" />
<glyph unicode="&#xdf;" glyph-name="germandbls" horiz-adv-x="604" d="M261 118Q286 108 313 103T361 97Q395 97 414 111T433 152Q432 176 417 191T380 218T334 246T296 284T280 346Q280 374 288 395T309 433T334 468T355 505T364 553Q364 591 346 612T293 634Q248
634 227 597T206 480V0H67V480Q67 610 125 676T296 743Q395 743 452 695T509 565Q509 531 500 506T478 461T452 425T429 393T420 360Q421 337 435 322T472 293T516 261T552 215T568 143Q568 68 519 28T376 -12Q320 -12 269 8L261 118Z" />
<glyph unicode="&#xe0;" glyph-name="agrave" horiz-adv-x="525" d="M468 19Q371 -12 264 -12Q149 -12 93 26T37 143Q37 315 309 315H331V335Q331 417 222 417Q161 417 66 396L77 500Q161 529 245 529Q355 529 411 476T468 319V19ZM331 216H304Q232 216 202 203T172
159Q172 98 272 98Q307 98 331 104V216ZM212 593L112 722H255L340 593H212Z" />
<glyph unicode="&#xe1;" glyph-name="aacute" horiz-adv-x="525" d="M468 19Q371 -12 264 -12Q149 -12 93 26T37 143Q37 315 309 315H331V335Q331 417 222 417Q161 417 66 396L77 500Q161 529 245 529Q355 529 411 476T468 319V19ZM331 216H304Q232 216 202 203T172
159Q172 98 272 98Q307 98 331 104V216ZM183 593L268 722H411L311 593H183Z" />
<glyph unicode="&#xe2;" glyph-name="acircumflex" horiz-adv-x="525" d="M468 19Q371 -12 264 -12Q149 -12 93 26T37 143Q37 315 309 315H331V335Q331 417 222 417Q161 417 66 396L77 500Q161 529 245 529Q355 529 411 476T468 319V19ZM331 216H304Q232 216 202
203T172 159Q172 98 272 98Q307 98 331 104V216ZM314 593L262 661L210 593H75L187 722H337L449 593H314Z" />
<glyph unicode="&#xe3;" glyph-name="atilde" horiz-adv-x="525" d="M468 19Q371 -12 264 -12Q149 -12 93 26T37 143Q37 315 309 315H331V335Q331 417 222 417Q161 417 66 396L77 500Q161 529 245 529Q355 529 411 476T468 319V19ZM331 216H304Q232 216 202 203T172
159Q172 98 272 98Q307 98 331 104V216ZM103 593Q100 614 100 637Q100 679 120 702T174 726Q188 726 204 722T252 703Q257 701 265 697T284 690T303 686Q321 686 321 706Q321 717 317 726H401Q404 705 404 682Q404 640 384 617T330 593Q316 593 300 597T252 616Q247
618 239 622T220 629T201 633Q183 633 183 613Q183 602 187 593H103Z" />
<glyph unicode="&#xe4;" glyph-name="adieresis" horiz-adv-x="525" d="M468 19Q371 -12 264 -12Q149 -12 93 26T37 143Q37 315 309 315H331V335Q331 417 222 417Q161 417 66 396L77 500Q161 529 245 529Q355 529 411 476T468 319V19ZM331 216H304Q232 216 202
203T172 159Q172 98 272 98Q307 98 331 104V216ZM228 657Q228 627 209 608T158 589Q126 589 107 608T88 657Q88 687 107 706T158 725Q190 725 209 706T228 657ZM448 657Q448 627 429 608T378 589Q346 589 327 608T308 657Q308 687 327 706T378 725Q410 725 429
706T448 657Z" />
<glyph unicode="&#xe5;" glyph-name="aring" horiz-adv-x="525" d="M468 19Q371 -12 264 -12Q149 -12 93 26T37 143Q37 315 309 315H331V335Q331 417 222 417Q161 417 66 396L77 500Q161 529 245 529Q355 529 411 476T468 319V19ZM331 216H304Q232 216 202 203T172
159Q172 98 272 98Q307 98 331 104V216ZM384 695Q384 644 352 613T267 581Q215 581 183 612T150 695Q150 746 182 777T267 809Q319 809 351 778T384 695ZM267 640Q288 640 301 655T314 695Q314 720 301 735T267 750Q246 750 233 735T220 695Q220 670 233 655T267
640Z" />
<glyph unicode="&#xe6;" glyph-name="ae" horiz-adv-x="843" d="M785 18Q706 -12 606 -12Q504 -12 439 24Q344 -12 256 -12Q37 -12 37 144Q37 315 309 315H331V335Q331 417 222 417Q161 417 66 396L77 500Q161 529 245 529Q357 529 413 473Q478 529 584 529Q693
529 749 470T806 295Q806 245 801 215H467Q475 101 622 101Q661 101 710 108T792 126L785 18ZM304 216Q232 216 202 203T172 159Q172 129 197 114T270 98Q315 98 359 108Q337 152 331 216H304ZM673 314Q673 364 647 391T573 418Q526 418 499 392T468 314H673Z"
/>
<glyph unicode="&#xe7;" glyph-name="ccedilla" horiz-adv-x="494" d="M453 13Q424 1 384 -5T304 -12Q178 -12 109 58T39 253Q39 381 111 455T308 529Q379 529 440 503L450 392Q384 413 333 413Q256 413 220 375T183 255Q183 175 219 140T337 104Q400 104 465
124L453 13ZM166 -162Q182 -167 207 -171T251 -175Q279 -175 294 -167T310 -143Q310 -129 297 -121T259 -112Q227 -112 201 -119L194 -112L244 24H315L285 -53Q290 -52 303 -52Q349 -52 378 -77T408 -142Q408 -190 370 -218T264 -246Q213 -246 178 -236L166 -162Z"
/>
<glyph unicode="&#xe8;" glyph-name="egrave" horiz-adv-x="552" d="M382 314Q382 364 356 391T282 418Q235 418 208 392T177 314H382ZM494 18Q415 -12 315 -12Q39 -12 39 252Q39 384 105 456T293 529Q402 529 458 470T515 295Q515 245 510 215H176Q184 101 331
101Q370 101 419 108T501 126L494 18ZM248 593L148 722H291L376 593H248Z" />
<glyph unicode="&#xe9;" glyph-name="eacute" horiz-adv-x="552" d="M382 314Q382 364 356 391T282 418Q235 418 208 392T177 314H382ZM494 18Q415 -12 315 -12Q39 -12 39 252Q39 384 105 456T293 529Q402 529 458 470T515 295Q515 245 510 215H176Q184 101 331
101Q370 101 419 108T501 126L494 18ZM219 593L304 722H447L347 593H219Z" />
<glyph unicode="&#xea;" glyph-name="ecircumflex" horiz-adv-x="552" d="M382 314Q382 364 356 391T282 418Q235 418 208 392T177 314H382ZM494 18Q415 -12 315 -12Q39 -12 39 252Q39 384 105 456T293 529Q402 529 458 470T515 295Q515 245 510 215H176Q184 101
331 101Q370 101 419 108T501 126L494 18ZM339 593L287 661L235 593H100L212 722H362L474 593H339Z" />
<glyph unicode="&#xeb;" glyph-name="edieresis" horiz-adv-x="552" d="M382 314Q382 364 356 391T282 418Q235 418 208 392T177 314H382ZM494 18Q415 -12 315 -12Q39 -12 39 252Q39 384 105 456T293 529Q402 529 458 470T515 295Q515 245 510 215H176Q184 101
331 101Q370 101 419 108T501 126L494 18ZM251 657Q251 627 232 608T181 589Q149 589 130 608T111 657Q111 687 130 706T181 725Q213 725 232 706T251 657ZM471 657Q471 627 452 608T401 589Q369 589 350 608T331 657Q331 687 350 706T401 725Q433 725 452 706T471
657Z" />
<glyph unicode="&#xec;" glyph-name="igrave" horiz-adv-x="274" d="M67 0V518H207V0H67ZM76 593L-24 722H119L204 593H76Z" />
<glyph unicode="&#xed;" glyph-name="iacute" horiz-adv-x="274" d="M67 0V518H207V0H67ZM73 593L158 722H301L201 593H73Z" />
<glyph unicode="&#xee;" glyph-name="icircumflex" horiz-adv-x="274" d="M67 0V518H207V0H67ZM190 593L138 661L86 593H-49L63 722H213L325 593H190Z" />
<glyph unicode="&#xef;" glyph-name="idieresis" horiz-adv-x="274" d="M67 0V518H207V0H67ZM98 657Q98 627 79 608T28 589Q-4 589 -23 608T-42 657Q-42 687 -23 706T28 725Q60 725 79 706T98 657ZM318 657Q318 627 299 608T248 589Q216 589 197 608T178 657Q178
687 197 706T248 725Q280 725 299 706T318 657Z" />
<glyph unicode="&#xf0;" glyph-name="eth" horiz-adv-x="568" d="M389 639Q454 576 491 480T529 277Q529 138 465 63T283 -12Q170 -12 105 54T39 236Q39 309 66 365T143 454T260 487Q319 487 358 459Q347 491 327 519T281 567L191 507L152 568L207 604Q183 615
111 635L159 736Q228 728 326 684L406 738L448 678L389 639ZM283 92Q335 92 359 127T384 237Q384 312 360 348T283 384Q232 384 208 348T183 236Q183 163 207 128T283 92Z" />
<glyph unicode="&#xf1;" glyph-name="ntilde" horiz-adv-x="580" d="M383 0V273Q383 350 362 380T284 410Q249 410 207 399V0H67V484Q192 529 314 529Q394 529 439 507T503 439T523 316V0H383ZM143 593Q140 614 140 637Q140 679 160 702T214 726Q228 726 244 722T292
703Q297 701 305 697T324 690T343 686Q361 686 361 706Q361 717 357 726H441Q444 705 444 682Q444 640 424 617T370 593Q356 593 340 597T292 616Q287 618 279 622T260 629T241 633Q223 633 223 613Q223 602 227 593H143Z" />
<glyph unicode="&#xf2;" glyph-name="ograve" horiz-adv-x="602" d="M301 104Q358 104 388 144T419 259Q419 334 389 373T301 413Q244 413 214 374T183 259Q183 184 213 144T301 104ZM301 -12Q173 -12 106 57T39 259Q39 387 108 458T301 529Q429 529 496 460T563
259Q563 131 494 60T301 -12ZM271 593L171 722H314L399 593H271Z" />
<glyph unicode="&#xf3;" glyph-name="oacute" horiz-adv-x="602" d="M301 104Q358 104 388 144T419 259Q419 334 389 373T301 413Q244 413 214 374T183 259Q183 184 213 144T301 104ZM301 -12Q173 -12 106 57T39 259Q39 387 108 458T301 529Q429 529 496 460T563
259Q563 131 494 60T301 -12ZM251 593L336 722H479L379 593H251Z" />
<glyph unicode="&#xf4;" glyph-name="ocircumflex" horiz-adv-x="602" d="M301 104Q358 104 388 144T419 259Q419 334 389 373T301 413Q244 413 214 374T183 259Q183 184 213 144T301 104ZM301 -12Q173 -12 106 57T39 259Q39 387 108 458T301 529Q429 529 496
460T563 259Q563 131 494 60T301 -12ZM353 593L301 661L249 593H114L226 722H376L488 593H353Z" />
<glyph unicode="&#xf5;" glyph-name="otilde" horiz-adv-x="602" d="M301 104Q358 104 388 144T419 259Q419 334 389 373T301 413Q244 413 214 374T183 259Q183 184 213 144T301 104ZM301 -12Q173 -12 106 57T39 259Q39 387 108 458T301 529Q429 529 496 460T563
259Q563 131 494 60T301 -12ZM152 593Q149 614 149 637Q149 679 169 702T223 726Q237 726 253 722T301 703Q306 701 314 697T333 690T352 686Q370 686 370 706Q370 717 366 726H450Q453 705 453 682Q453 640 433 617T379 593Q365 593 349 597T301 616Q296 618 288
622T269 629T250 633Q232 633 232 613Q232 602 236 593H152Z" />
<glyph unicode="&#xf6;" glyph-name="odieresis" horiz-adv-x="602" d="M301 104Q358 104 388 144T419 259Q419 334 389 373T301 413Q244 413 214 374T183 259Q183 184 213 144T301 104ZM301 -12Q173 -12 106 57T39 259Q39 387 108 458T301 529Q429 529 496 460T563
259Q563 131 494 60T301 -12ZM261 657Q261 627 242 608T191 589Q159 589 140 608T121 657Q121 687 140 706T191 725Q223 725 242 706T261 657ZM481 657Q481 627 462 608T411 589Q379 589 360 608T341 657Q341 687 360 706T411 725Q443 725 462 706T481 657Z" />
<glyph unicode="&#xf7;" glyph-name="divide" horiz-adv-x="596" d="M381 559Q381 525 357 501T298 477Q264 477 240 501T215 559Q215 593 239 617T298 642Q332 642 356 618T381 559ZM80 293V414H516V293H80ZM298 65Q264 65 240 89T215 148Q215 182 239 206T298
230Q332 230 356 206T381 148Q381 114 357 90T298 65Z" />
<glyph unicode="&#xf8;" glyph-name="oslash" horiz-adv-x="602" d="M49 0L104 67Q72 103 56 152T39 258Q39 386 108 457T301 529Q388 529 450 491L472 518H553L498 450Q530 414 546 365T563 259Q563 131 494 60T301 -12Q214 -12 152 26L130 0H49ZM230 121Q257
103 301 103Q358 103 388 143T419 259Q419 312 409 342L230 121ZM372 396Q345 414 301 414Q244 414 214 374T183 258Q183 205 193 175L372 396Z" />
<glyph unicode="&#xf9;" glyph-name="ugrave" horiz-adv-x="574" d="M367 518H507V20Q407 -12 305 -12Q173 -12 115 46T57 239V518H197V243Q197 167 222 136T309 105Q343 105 367 112V518ZM223 593L123 722H266L351 593H223Z" />
<glyph unicode="&#xfa;" glyph-name="uacute" horiz-adv-x="574" d="M367 518H507V20Q407 -12 305 -12Q173 -12 115 46T57 239V518H197V243Q197 167 222 136T309 105Q343 105 367 112V518ZM213 593L298 722H441L341 593H213Z" />
<glyph unicode="&#xfb;" glyph-name="ucircumflex" horiz-adv-x="574" d="M367 518H507V20Q407 -12 305 -12Q173 -12 115 46T57 239V518H197V243Q197 167 222 136T309 105Q343 105 367 112V518ZM334 593L282 661L230 593H95L207 722H357L469 593H334Z" />
<glyph unicode="&#xfc;" glyph-name="udieresis" horiz-adv-x="574" d="M367 518H507V20Q407 -12 305 -12Q173 -12 115 46T57 239V518H197V243Q197 167 222 136T309 105Q343 105 367 112V518ZM242 657Q242 627 223 608T172 589Q140 589 121 608T102 657Q102 687
121 706T172 725Q204 725 223 706T242 657ZM462 657Q462 627 443 608T392 589Q360 589 341 608T322 657Q322 687 341 706T392 725Q424 725 443 706T462 657Z" />
<glyph unicode="&#xfd;" glyph-name="yacute" horiz-adv-x="551" d="M114 -238L205 0L8 518H166L279 142L393 518H543L255 -238H114ZM202 593L287 722H430L330 593H202Z" />
<glyph unicode="&#xfe;" glyph-name="thorn" horiz-adv-x="586" d="M67 -238V737H207V521Q247 529 283 529Q406 529 476 460T547 271Q547 189 512 125T410 25T257 -12Q229 -12 207 -10V-238H67ZM207 110Q227 104 257 104Q327 104 365 144T403 260Q403 333 368
373T267 413Q242 413 207 407V110Z" />
<glyph unicode="&#xff;" glyph-name="ydieresis" horiz-adv-x="551" d="M114 -238L205 0L8 518H166L279 142L393 518H543L255 -238H114ZM235 657Q235 627 216 608T165 589Q133 589 114 608T95 657Q95 687 114 706T165 725Q197 725 216 706T235 657ZM455 657Q455
627 436 608T385 589Q353 589 334 608T315 657Q315 687 334 706T385 725Q417 725 436 706T455 657Z" />
<glyph unicode="&#x131;" glyph-name="dotlessi" horiz-adv-x="274" d="M67 0V518H207V0H67Z" />
<glyph unicode="&#x152;" glyph-name="OE" horiz-adv-x="967" d="M490 0Q435 -12 372 -12Q218 -12 134 85T49 360Q49 538 133 634T372 731Q444 731 490 719H918V593H637V423H870V297H637V126H927V0H490ZM490 581Q475 590 443 597T378 605Q205 605 205 361Q205
239 247 177T373 114Q401 114 436 120T490 134V581Z" />
<glyph unicode="&#x153;" glyph-name="oe" horiz-adv-x="936" d="M878 18Q797 -12 699 -12Q625 -12 576 6T493 63Q449 22 405 5T301 -12Q173 -12 106 57T39 259Q39 387 108 458T301 529Q366 529 416 509T493 451Q521 486 571 507T677 529Q786 529 842 470T899
296Q899 245 894 215H560Q568 101 715 101Q754 101 803 108T885 126L878 18ZM766 314Q766 364 740 391T667 418Q619 418 592 392T561 314H766ZM301 104Q358 104 388 144T419 259Q419 334 389 373T301 413Q244 413 214 374T183 259Q183 184 213 144T301 104Z" />
<glyph unicode="&#x160;" glyph-name="Scaron" horiz-adv-x="555" d="M38 153Q124 112 232 112Q297 112 330 136T364 207Q364 231 354 243T318 270T229 311Q137 351 99 399T60 520Q60 621 124 676T309 731Q390 731 481 702L496 578Q456 593 407 602T317 611Q211
611 211 538Q211 512 223 495T265 460T354 413Q423 380 458 352T507 291T521 212Q521 105 447 47T236 -12Q181 -12 136 -3T45 26L38 153ZM348 778H206L81 889H227L277 836L327 889H473L348 778Z" />
<glyph unicode="&#x161;" glyph-name="scaron" horiz-adv-x="445" d="M38 137Q114 98 204 98Q245 98 263 108T281 142Q281 158 273 168T246 187T178 214Q103 241 73 276T42 365Q42 442 95 485T243 529Q325 529 387 497L394 390Q381 395 359 403T310 417T253 424Q214
424 194 412T173 376Q173 363 180 355T206 337T281 304Q341 279 367 259T405 212T416 152Q416 73 363 31T212 -12Q163 -12 118 -2T44 27L38 137ZM147 593L29 722H164L227 651L290 722H425L307 593H147Z" />
<glyph unicode="&#x178;" glyph-name="Ydieresis" horiz-adv-x="631" d="M242 0V257L18 719H178L320 393L460 719H613L389 257V0H242ZM503 837Q503 806 484 787T432 768Q400 768 381 787T361 837Q361 868 380 887T432 906Q464 906 483 887T503 837ZM277 837Q277
806 258 787T205 768Q174 768 155 787T135 837Q135 868 154 887T205 906Q238 906 257 887T277 837Z" />
<glyph unicode="&#x17d;" glyph-name="Zcaron" horiz-adv-x="579" d="M37 0L29 12L328 593H55V719H537L545 707L246 126H530V0H37ZM382 778H240L115 889H261L311 836L361 889H507L382 778Z" />
<glyph unicode="&#x17e;" glyph-name="zcaron" horiz-adv-x="492" d="M33 0L26 12L262 409H60V518H466L473 506L237 109H456V0H33ZM183 593L65 722H200L263 651L326 722H461L343 593H183Z" />
<glyph unicode="&#x192;" glyph-name="florin" horiz-adv-x="596" d="M30 -13Q40 -15 72 -17T123 -20Q165 -20 184 -1T209 67L244 369H149V477H257L262 518Q274 620 325 669T470 719Q516 719 557 707L566 595Q554 597 527 599T483 602Q442 602 424 584T400 515L395
477H501V369H383L347 64Q335 -37 283 -87T135 -137Q92 -137 49 -125L30 -13Z" />
<glyph unicode="&#x2c6;" glyph-name="circumflex" horiz-adv-x="580" d="M342 593L290 661L238 593H103L215 722H365L477 593H342Z" />
<glyph unicode="&#x2c7;" glyph-name="caron" horiz-adv-x="580" d="M210 593L92 722H227L290 651L353 722H488L370 593H210Z" />
<glyph unicode="&#x2da;" glyph-name="ring" horiz-adv-x="580" d="M407 695Q407 644 375 613T290 581Q238 581 206 612T173 695Q173 746 205 777T290 809Q342 809 374 778T407 695ZM290 640Q311 640 324 655T337 695Q337 720 324 735T290 750Q269 750 256 735T243
695Q243 670 256 655T290 640Z" />
<glyph unicode="&#x2dc;" glyph-name="tilde" horiz-adv-x="580" d="M141 593Q138 614 138 637Q138 679 158 702T212 726Q226 726 242 722T290 703Q295 701 303 697T322 690T341 686Q359 686 359 706Q359 717 355 726H439Q442 705 442 682Q442 640 422 617T368
593Q354 593 338 597T290 616Q285 618 277 622T258 629T239 633Q221 633 221 613Q221 602 225 593H141Z" />
<glyph unicode="&#x2013;" glyph-name="endash" horiz-adv-x="500" d="M0 215V336H500V215H0Z" />
<glyph unicode="&#x2014;" glyph-name="emdash" horiz-adv-x="1000" d="M0 215V336H1000V215H0Z" />
<glyph unicode="&#x2018;" glyph-name="quoteleft" horiz-adv-x="256" d="M53 513Q53 652 98 749H213Q183 659 183 513H53Z" />
<glyph unicode="&#x2019;" glyph-name="quoteright" horiz-adv-x="256" d="M43 513Q73 603 73 749H203Q203 610 158 513H43Z" />
<glyph unicode="&#x201a;" glyph-name="quotesinglbase" horiz-adv-x="256" d="M43 -117Q73 -27 73 119H203Q203 -20 158 -117H43Z" />
<glyph unicode="&#x201c;" glyph-name="quotedblleft" horiz-adv-x="468" d="M53 513Q53 652 98 749H213Q183 659 183 513H53ZM265 513Q265 652 310 749H425Q395 659 395 513H265Z" />
<glyph unicode="&#x201d;" glyph-name="quotedblright" horiz-adv-x="468" d="M43 513Q73 603 73 749H203Q203 610 158 513H43ZM255 513Q285 603 285 749H415Q415 610 370 513H255Z" />
<glyph unicode="&#x201e;" glyph-name="quotedblbase" horiz-adv-x="468" d="M43 -117Q73 -27 73 119H203Q203 -20 158 -117H43ZM255 -117Q285 -27 285 119H415Q415 -20 370 -117H255Z" />
<glyph unicode="&#x2020;" glyph-name="dagger" horiz-adv-x="543" d="M203 -172V360H54V483H203V719H340V483H489V360H340V-172H203Z" />
<glyph unicode="&#x2021;" glyph-name="daggerdbl" horiz-adv-x="543" d="M203 -172V39H54V162H203V385H54V508H203V719H340V508H489V385H340V162H489V39H340V-172H203Z" />
<glyph unicode="&#x2022;" glyph-name="bullet" horiz-adv-x="444" d="M222 190Q156 190 114 232T72 340Q72 405 114 447T222 490Q288 490 330 448T372 340Q372 275 330 233T222 190Z" />
<glyph unicode="&#x2026;" glyph-name="ellipsis" horiz-adv-x="1000" d="M246 66Q246 31 224 10T166 -12Q130 -12 108 9T86 66Q86 101 108 123T166 145Q202 145 224 123T246 66ZM579 66Q579 31 557 10T499 -12Q463 -12 441 9T419 66Q419 101 441 123T499 145Q535
145 557 123T579 66ZM914 66Q914 31 892 10T834 -12Q798 -12 776 9T754 66Q754 101 776 123T834 145Q870 145 892 123T914 66Z" />
<glyph unicode="&#x2030;" glyph-name="perthousand" horiz-adv-x="1484" d="M209 0L697 711H836L348 0H209ZM1253 83Q1290 83 1306 110T1323 200Q1323 262 1307 289T1253 317Q1216 317 1200 290T1183 200Q1183 138 1199 111T1253 83ZM1253 -12Q1159 -12 1110
42T1060 200Q1060 303 1109 357T1253 412Q1347 412 1396 358T1446 200Q1446 97 1397 43T1253 -12ZM812 84Q849 84 865 111T882 201Q882 263 866 290T812 318Q775 318 759 291T742 201Q742 139 758 112T812 84ZM812 -11Q718 -11 669 43T619 201Q619 304 668 358T812
413Q906 413 955 359T1005 201Q1005 98 956 44T812 -11ZM230 390Q267 390 283 417T300 507Q300 569 284 596T230 624Q193 624 177 597T160 507Q160 445 176 418T230 390ZM230 295Q136 295 87 349T37 507Q37 610 86 664T230 719Q324 719 373 665T423 507Q423 404
374 350T230 295Z" />
<glyph unicode="&#x2039;" glyph-name="guilsinglleft" horiz-adv-x="370" d="M194 46L38 266L194 488H340L186 266L340 46H194Z" />
<glyph unicode="&#x203a;" glyph-name="guilsinglright" horiz-adv-x="370" d="M30 46L184 267L30 488H176L332 267L176 46H30Z" />
<glyph unicode="&#x2044;" glyph-name="fraction" horiz-adv-x="0" d="M-313 0L175 711H314L-174 0H-313Z" />
<glyph unicode="&#x2070;" glyph-name="zerosuperior" horiz-adv-x="446" d="M223 390Q260 390 276 417T293 507Q293 569 277 596T223 624Q186 624 170 597T153 507Q153 445 169 418T223 390ZM223 295Q129 295 80 349T30 507Q30 610 79 664T223 719Q317 719 366
665T416 507Q416 404 367 350T223 295Z" />
<glyph unicode="&#x2074;" glyph-name="foursuperior" horiz-adv-x="446" d="M250 307V380H45L34 398L199 719L285 676L175 462H250V538H345V462H394V380H345V307H250Z" />
<glyph unicode="&#x20ac;" glyph-name="Euro" horiz-adv-x="596" d="M589 19Q503 -12 414 -12Q286 -12 211 48T109 232H27V316H98Q97 321 97 353Q97 385 98 391H27V475H108Q136 600 210 659T413 719Q505 719 579 688L585 572Q557 581 511 587T427 594Q354 594
318 567T266 475H473V391H255Q254 384 254 353Q254 343 254 334T256 316H473V232H267Q285 169 324 141T433 113Q475 113 521 119T595 135L589 19Z" />
<glyph unicode="&#x2122;" glyph-name="trademark" horiz-adv-x="791" d="M108 306V612H12V707H307V612H211V306H108ZM647 306L634 511L578 380H502L456 507L446 306H346L371 707H471L551 516L625 707H725L747 306H647Z" />
<glyph unicode="&#x2212;" glyph-name="minus" horiz-adv-x="596" d="M80 293V414H516V293H80Z" />
<glyph unicode="&#xfb00;" glyph-name="f_f" horiz-adv-x="715" d="M429 0V410H243V0H103V410H21V518H103V538Q103 628 157 683T300 738Q329 738 357 731L379 622Q343 626 328 626Q284 626 264 604T243 535V518H429V543Q429 633 482 688T624 743Q664 743 706 731L728
624Q684 631 655 631Q610 631 590 609T569 540V518H689V410H569V0H429Z" />
<glyph unicode="&#xfb01;" glyph-name="fi" horiz-adv-x="636" d="M429 0V410H243V0H103V410H21V518H103V542Q103 640 162 691T329 743Q371 743 419 736T510 714L527 603Q412 631 347 631Q293 631 268 609T243 539V518H569V0H429Z" />
<glyph unicode="&#xfb02;" glyph-name="fl" horiz-adv-x="636" d="M429 0V410H243V0H103V410H21V518H103V543Q103 633 157 688T300 743Q329 743 357 736L379 627Q343 631 328 631Q284 631 264 609T243 540V518H429V737H569V0H429Z" />
<glyph unicode="&#xfb03;" glyph-name="f_f_i" horiz-adv-x="962" d="M755 0V410H569V0H429V410H243V0H103V410H21V518H103V538Q103 628 157 683T300 738Q329 738 357 731L379 622Q343 626 328 626Q284 626 264 604T243 535V518H429V542Q429 640 488 691T655 743Q697
743 745 736T836 714L853 603Q738 631 673 631Q619 631 594 609T569 539V518H895V0H755Z" />
<glyph unicode="&#xfb04;" glyph-name="f_f_l" horiz-adv-x="962" d="M755 0V410H569V0H429V410H243V0H103V410H21V518H103V538Q103 628 157 683T300 738Q329 738 357 731L379 622Q343 626 328 626Q284 626 264 604T243 535V518H429V543Q429 633 483 688T626 743Q655
743 683 736L705 627Q669 631 654 631Q610 631 590 609T569 540V518H755V737H895V0H755Z" />
</font>
</defs>
</svg>
