<?xml version="1.0" standalone="no"?> <!DOCTYPE svg PUBLIC "-//W3C//DTD SVG 1.0//EN" "http://www.w3.org/TR/2001/REC-SVG-20010904/DTD/svg10.dtd" > <svg xmlns="http://www.w3.org/2000/svg" width="100%" height="100%">
<defs >
<font id="PrecisionSans_W_LtIt" horiz-adv-x="533" ><font-face
    font-family="Precision Sans W"
    units-per-em="1000"
    panose-1="2 11 4 3 2 2 4 2 2 4"
    ascent="957"
    descent="-249"
    alphabetic="0" />
<missing-glyph horiz-adv-x="500" d="M50 0V750H450V0H50ZM400 700H100V50H400V700Z" />
<glyph unicode="&#x0;" glyph-name=".null" horiz-adv-x="0" />
<glyph unicode="&#x8;" glyph-name=".null" horiz-adv-x="0" />
<glyph unicode="&#x9;" glyph-name="CR" horiz-adv-x="237" />
<glyph unicode="&#xd;" glyph-name="CR" horiz-adv-x="237" />
<glyph unicode="&#x1d;" glyph-name=".null" horiz-adv-x="0" />
<glyph unicode=" " glyph-name="space" horiz-adv-x="237" />
<glyph unicode="!" glyph-name="exclam" horiz-adv-x="264" d="M138 205L224 719H295L201 205H138ZM133 -4Q115 -4 105 5T94 33Q94 56 110 72T149 88Q167 88 177 79T188 51Q188 28 172 12T133 -4Z" />
<glyph unicode="&quot;" glyph-name="quotedbl" horiz-adv-x="353" d="M150 545L186 749H251L215 545H150ZM311 545L347 749H412L376 545H311Z" />
<glyph unicode="#" glyph-name="numbersign" horiz-adv-x="596" d="M467 459H308L256 260H415L467 459ZM352 19L401 203H242L192 19H126L176 203H59L68 260H191L243 459H124L134 516H258L307 700H371L322 516H481L531 700H597L547 516H664L655 459H532L480 260H599L589
203H465L416 19H352Z" />
<glyph unicode="$" glyph-name="dollar" horiz-adv-x="596" d="M240 -118L259 -11Q219 -11 166 -2T88 20V82Q135 66 175 59T268 52Q357 52 407 93T457 207Q457 253 432 284T344 345Q257 387 223 427T188 529Q188 608 240 657T388 717L403 805H460L445 719Q481
718 518 711T584 692L578 630Q550 642 506 650T422 659Q344 659 303 629T261 541Q261 500 288 470T381 407Q444 375 476 348T520 291T533 219Q533 130 475 69T317 -7L297 -118H240Z" />
<glyph unicode="%" glyph-name="percent" horiz-adv-x="1043" d="M229 0L839 711H922L312 0H229ZM811 46Q846 46 875 70T921 139T938 241Q938 300 918 328T855 356Q820 356 791 332T745 263T728 161Q728 102 748 74T811 46ZM806 -11Q734 -11 695 33T656 158Q656
228 681 286T753 378T860 413Q932 413 971 369T1010 244Q1010 174 985 116T913 24T806 -11ZM295 352Q330 352 359 376T405 445T422 547Q422 606 402 634T339 662Q304 662 275 638T229 569T212 467Q212 408 232 380T295 352ZM290 295Q218 295 179 339T140 464Q140
534 165 592T237 684T344 719Q416 719 455 675T494 550Q494 480 469 422T397 330T290 295Z" />
<glyph unicode="&amp;" glyph-name="ampersand" horiz-adv-x="703" d="M634 0L549 99Q505 45 443 17T308 -12Q246 -12 199 11T124 79T97 183Q97 257 144 317T282 418Q252 459 240 490T228 559Q228 636 280 683T416 731Q478 731 534 700L538 642Q478 676 418 676Q365
676 332 645T298 565Q298 528 319 489T390 389L540 210Q567 279 571 369H635Q635 247 586 155L717 0H634ZM507 149Q455 211 421 251T366 315T336 350T322 366T317 373Q173 311 173 192Q173 127 212 91T319 54Q379 54 427 78T507 149Z" />
<glyph unicode="&apos;" glyph-name="quotesingle" horiz-adv-x="192" d="M150 545L186 749H251L215 545H150Z" />
<glyph unicode="(" glyph-name="parenleft" horiz-adv-x="292" d="M170 -167Q146 -116 132 -38T118 125Q118 300 176 475T336 776H402Q297 634 242 466T186 123Q187 48 196 -9T216 -105T236 -167H170Z" />
<glyph unicode=")" glyph-name="parenright" horiz-adv-x="292" d="M-16 -167Q89 -25 144 143T200 486Q199 561 190 618T170 714T150 776H216Q240 725 254 647T268 484Q268 309 210 134T50 -167H-16Z" />
<glyph unicode="*" glyph-name="asterisk" horiz-adv-x="454" d="M289 595L317 719H368L351 595H289ZM129 565L151 611L264 580L237 521L129 565ZM157 392L239 495L284 460L193 361L157 392ZM376 362L310 460L366 495L415 392L376 362ZM382 521L374 580L499 614L504
565L382 521Z" />
<glyph unicode="+" glyph-name="plus" horiz-adv-x="596" d="M379 322L346 136H282L315 322H143L154 385H326L359 571H423L390 385H562L551 322H379Z" />
<glyph unicode="," glyph-name="comma" horiz-adv-x="192" d="M24 -138Q45 -94 63 -36T92 86H157Q134 -45 78 -138H24Z" />
<glyph unicode="-" glyph-name="hyphen" horiz-adv-x="330" d="M91 255L103 318H357L345 255H91Z" />
<glyph unicode="." glyph-name="period" horiz-adv-x="192" d="M95 -4Q77 -4 67 5T56 33Q56 56 72 72T111 88Q129 88 139 79T150 51Q150 28 134 12T95 -4Z" />
<glyph unicode="/" glyph-name="slash" horiz-adv-x="343" d="M28 0L386 719H454L96 0H28Z" />
<glyph unicode="0" glyph-name="zero" horiz-adv-x="596" d="M300 53Q369 53 426 104T516 250T550 466Q550 654 410 654Q341 654 284 603T194 457T160 241Q160 53 300 53ZM294 -12Q194 -12 141 53T87 240Q87 373 128 481T244 654T416 719Q516 719 569 654T623
467Q623 334 582 226T466 53T294 -12Z" />
<glyph unicode="1" glyph-name="one" horiz-adv-x="596" d="M270 0L378 612L210 535L190 584L456 712H465L339 0H270Z" />
<glyph unicode="2" glyph-name="two" horiz-adv-x="596" d="M64 0L61 12L323 281Q396 356 430 400T478 476T492 545Q492 654 355 654Q315 654 266 643T175 614L196 678Q235 697 283 708T373 719Q467 719 515 678T563 558Q563 492 521 423T375 246L198 64H541L530 0H64Z" />
<glyph unicode="3" glyph-name="three" horiz-adv-x="596" d="M98 94Q128 76 177 65T272 53Q366 53 421 102T477 234Q477 297 442 325T332 354Q286 354 247 346L239 360L484 643H192L203 707H606L609 699L365 415Q454 412 501 367T549 239Q549 168 515 111T419
21T273 -12Q225 -12 174 -2T95 25L98 94Z" />
<glyph unicode="4" glyph-name="four" horiz-adv-x="596" d="M382 0L406 136H79L75 146L464 721L517 694L182 199H417L455 412H523L485 199H586L575 136H474L450 0H382Z" />
<glyph unicode="5" glyph-name="five" horiz-adv-x="596" d="M85 94Q115 76 161 65T248 53Q307 53 353 77T427 148T454 254Q454 318 419 347T309 377Q245 377 172 357L166 364L238 707H585L573 643H288L243 429Q295 441 343 441Q430 441 479 393T528 259Q528 185
493 124T395 25T249 -12Q205 -12 157 -1T82 25L85 94Z" />
<glyph unicode="6" glyph-name="six" horiz-adv-x="596" d="M591 661Q455 648 355 569T216 366Q248 408 297 431T403 455Q485 455 530 407T576 271Q576 196 543 132T448 28T310 -12Q219 -12 169 46T119 212Q119 330 177 441T340 629T572 719L591 661ZM319 52Q369
52 411 78T478 153T504 263Q504 391 385 391Q332 391 288 367T217 297T191 194Q191 128 225 90T319 52Z" />
<glyph unicode="7" glyph-name="seven" horiz-adv-x="596" d="M168 23L539 643H190L201 707H644L648 703L226 -8L168 23Z" />
<glyph unicode="8" glyph-name="eight" horiz-adv-x="596" d="M466 378Q566 335 566 226Q566 160 532 106T436 20T293 -12Q197 -12 143 35T89 166Q89 217 109 261T168 338T256 385Q217 404 197 438T176 519Q176 574 206 619T291 692T418 719Q504 719 552 679T601
566Q601 504 565 454T466 378ZM492 227Q492 285 455 317T352 350Q298 350 256 328T188 266T163 172Q163 50 301 50Q389 50 440 97T492 227ZM529 559Q529 608 498 634T408 660Q335 660 291 622T246 521Q246 471 277 444T367 416Q438 416 483 456T529 559Z" />
<glyph unicode="9" glyph-name="nine" horiz-adv-x="596" d="M119 46Q210 55 286 95T417 202T501 360Q467 308 415 280T303 251Q223 251 177 300T131 438Q131 513 165 577T260 680T401 719Q492 719 539 664T587 500Q587 379 530 267T369 78T138 -12L119 46ZM321
315Q374 315 418 341T488 415T515 522Q515 586 482 620T389 655Q338 655 296 629T228 554T203 444Q203 315 321 315Z" />
<glyph unicode=":" glyph-name="colon" horiz-adv-x="192" d="M95 -4Q77 -4 67 5T56 33Q56 56 72 72T111 88Q129 88 139 79T150 51Q150 28 134 12T95 -4ZM167 404Q149 404 139 413T128 441Q128 464 144 480T183 496Q201 496 211 487T222 459Q222 436 206 420T167 404Z" />
<glyph unicode=";" glyph-name="semicolon" horiz-adv-x="192" d="M24 -138Q45 -94 63 -36T92 86H157Q134 -45 78 -138H24ZM167 404Q149 404 139 413T128 441Q128 464 144 480T183 496Q201 496 211 487T222 459Q222 436 206 420T167 404Z" />
<glyph unicode="&lt;" glyph-name="less" horiz-adv-x="596" d="M124 312L137 385L576 560L563 485L201 345L514 209L501 138L124 312Z" />
<glyph unicode="=" glyph-name="equal" horiz-adv-x="596" d="M124 231L135 294H543L532 231H124ZM156 413L167 476H575L564 413H156Z" />
<glyph unicode="&gt;" glyph-name="greater" horiz-adv-x="596" d="M124 138L137 213L499 353L186 489L199 560L576 386L563 313L124 138Z" />
<glyph unicode="?" glyph-name="question" horiz-adv-x="452" d="M188 205L216 360L252 371Q336 397 379 442T423 551Q423 604 388 632T287 660Q219 660 145 636L159 697Q206 711 239 716T309 722Q397 721 448 679T499 566Q499 475 436 410T271 317L251 205H188ZM183
-4Q165 -4 155 5T144 33Q144 56 160 72T199 88Q217 88 227 79T238 51Q238 28 222 12T183 -4Z" />
<glyph unicode="@" glyph-name="at" horiz-adv-x="961" d="M656 453Q631 460 604 460Q546 460 497 430T419 344T389 219Q389 162 414 136T493 110Q542 110 591 136L656 453ZM647 -118Q573 -149 449 -149Q340 -149 259 -107T135 15T91 211Q91 349 156 469T340 659T622
729Q731 729 812 690T938 576T982 395Q982 307 950 230T858 106T721 59Q654 59 612 86Q586 69 549 60T469 50Q399 50 357 92T315 204Q315 290 352 361T456 476T605 520Q663 520 736 500L659 130Q681 113 726 113Q777 113 819 149T888 253T915 395Q915 527 838 598T615
669Q521 669 441 638T298 546T199 399T162 215Q162 67 240 -11T466 -90Q513 -90 565 -83T652 -63L647 -118Z" />
<glyph unicode="A" glyph-name="A" horiz-adv-x="575" d="M488 0L463 184H181L94 0H19L368 719H455L563 0H488ZM400 644L211 247H454L400 644Z" />
<glyph unicode="B" glyph-name="B" horiz-adv-x="570" d="M225 722Q247 725 291 728T365 731Q465 731 519 690T573 571Q573 506 534 457T429 385Q488 376 521 335T554 226Q554 155 518 102T412 18T247 -12Q212 -12 168 -9T98 0L225 722ZM327 411Q407 411 454 453T501
565Q501 620 469 645T365 670Q318 670 285 666L240 411H327ZM229 350L177 54Q217 49 256 49Q362 49 420 94T479 220Q479 350 323 350H229Z" />
<glyph unicode="C" glyph-name="C" horiz-adv-x="589" d="M555 24Q521 7 473 -2T377 -12Q250 -12 183 63T115 280Q115 404 162 508T295 671T502 731Q549 731 591 722T658 699L649 635Q621 650 582 659T502 668Q408 668 338 622T229 488T189 287Q189 167 239 109T395
51Q441 51 489 61T571 89L555 24Z" />
<glyph unicode="D" glyph-name="D" horiz-adv-x="679" d="M226 722Q291 731 365 731Q528 731 605 655T683 419Q683 286 632 189T482 41T240 -11Q204 -11 164 -8T98 0L226 722ZM177 57Q225 51 282 51Q379 51 453 95T569 222T611 420Q611 549 552 608T364 668Q316
668 284 663L177 57Z" />
<glyph unicode="E" glyph-name="E" horiz-adv-x="510" d="M98 0L225 719H594L583 656H283L236 393H478L467 330H225L178 63H487L476 0H98Z" />
<glyph unicode="F" glyph-name="F" horiz-adv-x="479" d="M98 0L225 719H563L552 656H283L236 393H469L458 330H225L167 0H98Z" />
<glyph unicode="G" glyph-name="G" horiz-adv-x="658" d="M570 331H640L586 28Q549 10 495 -1T388 -12Q261 -12 188 66T115 280Q115 411 162 514T297 674T511 731Q556 731 599 723T668 701L659 637Q601 668 509 668Q411 668 340 622T229 486T189 280Q189 168 244
110T405 51Q478 51 524 70L570 331Z" />
<glyph unicode="H" glyph-name="H" horiz-adv-x="683" d="M511 0L573 350H229L167 0H98L225 719H294L240 413H584L638 719H707L580 0H511Z" />
<glyph unicode="I" glyph-name="I" horiz-adv-x="270" d="M98 0L225 719H294L167 0H98Z" />
<glyph unicode="J" glyph-name="J" horiz-adv-x="376" d="M336 719H405L303 144Q289 65 243 27T114 -12Q66 -12 27 4L34 64Q47 59 71 55T114 51Q155 51 178 61T215 93T236 152L336 719Z" />
<glyph unicode="K" glyph-name="K" horiz-adv-x="560" d="M98 0L225 719H294L167 0H98ZM487 0L236 368L572 719H653L317 367L566 0H487Z" />
<glyph unicode="L" glyph-name="L" horiz-adv-x="499" d="M98 0L225 719H294L178 63H485L474 0H98Z" />
<glyph unicode="M" glyph-name="M" horiz-adv-x="789" d="M625 0L705 605L444 149H390L281 605L148 0H79L240 719H321L431 232L702 719H785L695 0H625Z" />
<glyph unicode="N" glyph-name="N" horiz-adv-x="677" d="M502 0L270 602L165 0H98L224 719H296L528 114L633 719H700L575 0H502Z" />
<glyph unicode="O" glyph-name="O" horiz-adv-x="698" d="M343 -12Q237 -12 176 58T115 249Q115 382 160 491T287 665T474 731Q580 731 641 661T702 470Q702 337 657 228T530 54T343 -12ZM354 51Q431 51 493 102T593 248T630 463Q630 563 588 615T463 668Q386
668 324 617T224 471T187 256Q187 156 229 104T354 51Z" />
<glyph unicode="P" glyph-name="P" horiz-adv-x="549" d="M228 346Q257 342 297 342Q404 342 460 392T516 539Q516 608 478 639T353 670Q332 670 284 665L228 346ZM98 0L225 722Q251 725 294 728T363 731Q473 731 531 685T589 551Q589 427 512 354T301 281Q267
281 217 285L167 0H98Z" />
<glyph unicode="Q" glyph-name="Q" horiz-adv-x="698" d="M329 -12Q264 -9 216 22T142 112T115 249Q115 382 160 491T287 665T474 731Q580 731 641 661T702 470Q702 366 674 275T591 116T464 16L683 -18L660 -76L329 -12ZM354 51Q431 51 493 102T593 248T630 463Q630
563 588 615T463 668Q386 668 324 617T224 471T187 256Q187 156 229 104T354 51Z" />
<glyph unicode="R" glyph-name="R" horiz-adv-x="559" d="M475 0L236 369H284Q391 369 454 415T517 539Q517 609 479 639T353 670Q334 670 284 665L167 0H98L225 722Q306 731 363 731Q476 731 533 687T590 555Q590 458 525 394T348 317L559 0H475Z" />
<glyph unicode="S" glyph-name="S" horiz-adv-x="527" d="M64 83Q108 66 145 59T230 51Q324 51 377 93T431 211Q431 260 409 289T322 352Q236 395 203 436T169 539Q169 594 198 637T284 706T414 731Q500 731 570 702L567 636Q545 650 502 659T419 669Q334 669
289 638T243 549Q243 505 267 475T350 414Q413 381 446 353T493 294T507 223Q507 154 474 101T377 18T229 -12Q127 -12 58 18L64 83Z" />
<glyph unicode="T" glyph-name="T" horiz-adv-x="479" d="M201 0L316 656H132L143 719H580L569 656H385L270 0H201Z" />
<glyph unicode="U" glyph-name="U" horiz-adv-x="664" d="M624 719H693L613 265Q596 169 559 108T464 18T325 -12Q126 -12 126 180Q126 212 137 276L215 719H284L208 285Q197 222 197 179Q197 112 230 82T337 51Q425 51 475 105T548 285L624 719Z" />
<glyph unicode="V" glyph-name="V" horiz-adv-x="593" d="M264 0L159 719H234L320 69L598 719H675L352 0H264Z" />
<glyph unicode="W" glyph-name="W" horiz-adv-x="887" d="M592 0L543 626L288 0H197L162 719H235L256 77L517 719H603L651 77L885 719H960L681 0H592Z" />
<glyph unicode="X" glyph-name="X" horiz-adv-x="584" d="M26 0L286 387L163 719H234L357 379L103 0H26ZM500 0L361 379L592 719H665L432 378L567 0H500Z" />
<glyph unicode="Y" glyph-name="Y" horiz-adv-x="528" d="M232 0L279 266L138 719H214L324 341L546 719H622L346 262L301 0H232Z" />
<glyph unicode="Z" glyph-name="Z" horiz-adv-x="522" d="M42 0L38 8L484 656H168L179 719H594L598 711L152 63H495L484 0H42Z" />
<glyph unicode="[" glyph-name="bracketleft" horiz-adv-x="310" d="M61 -168L222 748H415L405 691H279L138 -112H269L259 -168H61Z" />
<glyph unicode="\" glyph-name="backslash" horiz-adv-x="340" d="M247 0L139 719H203L311 0H247Z" />
<glyph unicode="]" glyph-name="bracketright" horiz-adv-x="310" d="M1 -168L11 -111H137L278 692H147L157 748H355L194 -168H1Z" />
<glyph unicode="^" glyph-name="asciicircum" horiz-adv-x="596" d="M456 372L377 669L195 372H125L345 719H425L524 372H456Z" />
<glyph unicode="_" glyph-name="underscore" horiz-adv-x="500" d="M-5 -87L5 -24H505L494 -87H-5Z" />
<glyph unicode="`" glyph-name="grave" horiz-adv-x="583" d="M303 593L203 722H277L364 593H303Z" />
<glyph unicode="a" glyph-name="a" horiz-adv-x="543" d="M405 0L413 89Q378 42 330 15T229 -12Q164 -12 126 36T88 167Q88 261 128 341T240 472T401 522Q474 522 545 492L495 214Q477 110 467 0H405ZM473 454Q439 464 399 464Q334 464 279 427T191 322T158 169Q158
110 180 78T244 46Q294 46 340 79T423 174L473 454Z" />
<glyph unicode="b" glyph-name="b" horiz-adv-x="542" d="M228 737H294L252 499Q307 522 364 522Q453 522 502 471T552 328Q552 227 515 151T408 31T243 -12Q168 -12 102 17L228 737ZM175 59Q210 46 258 46Q323 46 373 80T453 177T482 324Q482 464 339 464Q288
464 243 446L175 59Z" />
<glyph unicode="c" glyph-name="c" horiz-adv-x="447" d="M419 9Q394 -1 360 -6T293 -12Q193 -12 141 42T88 198Q88 285 124 359T226 478T381 522Q444 522 492 504L487 447Q443 464 388 464Q317 464 266 433T187 341T158 205Q158 123 196 85T313 46Q370 46 433 68L419 9Z" />
<glyph unicode="d" glyph-name="d" horiz-adv-x="537" d="M515 737H581L456 25Q387 -12 281 -12Q192 -12 140 43T88 196Q88 264 108 322T166 426T260 496T382 522Q426 522 475 508L515 737ZM465 451Q430 464 381 464Q280 464 219 392T158 200Q158 124 193 85T299
46Q357 46 396 59L465 451Z" />
<glyph unicode="e" glyph-name="e" horiz-adv-x="483" d="M438 15Q409 3 367 -4T287 -12Q189 -12 139 43T88 205Q88 284 124 357T225 476T371 522Q432 522 468 492T504 411Q504 338 439 293T229 226L156 214V200Q156 124 193 85T302 46Q373 46 444 73L438 15ZM221
278Q332 295 384 326T437 405Q437 433 416 450T360 467Q315 467 274 443T203 373T165 269L221 278Z" />
<glyph unicode="f" glyph-name="f" horiz-adv-x="307" d="M105 0L184 454H98L108 510H194L202 555Q235 743 400 743Q434 743 465 735L467 677Q435 685 400 685Q341 685 311 655T267 552L260 510H401L391 454H250L171 0H105Z" />
<glyph unicode="g" glyph-name="g" horiz-adv-x="546" d="M414 102Q379 56 330 30T227 4Q163 4 126 49T89 172Q89 239 111 301T175 412T276 492T402 522Q437 522 475 514T547 492L460 0Q438 -127 364 -188T158 -249Q129 -249 93 -243T36 -227L39 -171Q68 -180
105 -186T171 -192Q271 -192 323 -145T396 10L414 102ZM475 454Q441 464 400 464Q336 464 281 428T193 326T159 176Q159 121 180 92T242 62Q295 62 343 96T429 194L475 454Z" />
<glyph unicode="h" glyph-name="h" horiz-adv-x="584" d="M440 0L493 302Q500 343 500 372Q500 416 474 439T398 462Q310 462 241 436L165 0H99L228 737H294L252 494Q333 522 414 522Q490 522 529 489T569 392Q569 361 562 322L506 0H440Z" />
<glyph unicode="i" glyph-name="i" horiz-adv-x="250" d="M99 0L188 510H254L165 0H99ZM297 687Q297 664 281 649T242 633Q224 633 214 643T203 671Q203 694 219 709T258 725Q276 725 286 715T297 687Z" />
<glyph unicode="j" glyph-name="j" horiz-adv-x="250" d="M188 510H254L146 -109Q134 -178 93 -213T-15 -249Q-68 -249 -98 -235L-93 -181Q-84 -185 -62 -188T-17 -191Q23 -191 47 -172T79 -116L188 510ZM298 687Q298 664 282 649T243 633Q225 633 215 643T204
671Q204 694 220 709T259 725Q277 725 287 715T298 687Z" />
<glyph unicode="k" glyph-name="k" horiz-adv-x="473" d="M99 0L228 737H294L165 0H99ZM423 0L215 264L459 510H541L296 265L505 0H423Z" />
<glyph unicode="l" glyph-name="l" horiz-adv-x="250" d="M99 0L228 737H294L165 0H99Z" />
<glyph unicode="m" glyph-name="m" horiz-adv-x="841" d="M697 0L750 302Q757 346 757 372Q757 415 732 438T660 462Q593 462 518 420Q523 395 523 373Q523 342 516 303L463 0H397L450 302Q457 346 457 372Q457 414 434 438T369 462Q309 462 240 436L164 0H98L182
479Q250 503 296 512T383 522Q464 522 498 471Q591 522 678 522Q748 522 787 488T826 392Q826 364 819 322L763 0H697Z" />
<glyph unicode="n" glyph-name="n" horiz-adv-x="583" d="M439 0L492 302Q499 343 499 372Q499 416 473 439T397 462Q307 462 240 436L164 0H98L182 479Q247 502 301 512T413 522Q489 522 528 489T568 392Q568 361 561 322L505 0H439Z" />
<glyph unicode="o" glyph-name="o" horiz-adv-x="538" d="M273 46Q332 46 377 81T450 184T478 327Q478 392 448 428T363 464Q304 464 259 429T186 326T158 183Q158 118 188 82T273 46ZM266 -12Q180 -12 134 38T88 182Q88 265 123 345T222 474T370 522Q456 522
502 472T548 328Q548 245 513 165T414 36T266 -12Z" />
<glyph unicode="p" glyph-name="p" horiz-adv-x="541" d="M57 -238L182 479Q274 522 364 522Q453 522 502 471T551 328Q551 227 514 151T407 31T242 -12Q202 -12 161 -3L122 -238H57ZM174 59Q209 46 257 46Q322 46 372 80T452 177T481 324Q481 464 338 464Q287
464 242 446L174 59Z" />
<glyph unicode="q" glyph-name="q" horiz-adv-x="544" d="M351 -238L410 86Q375 40 328 14T229 -12Q164 -12 126 36T88 167Q88 261 128 341T240 472T401 522Q474 522 545 492L417 -238H351ZM473 454Q439 464 399 464Q334 464 279 427T191 322T158 169Q158 110
180 78T244 46Q294 46 340 79T423 174L473 454Z" />
<glyph unicode="r" glyph-name="r" horiz-adv-x="352" d="M99 0L184 486Q281 522 360 522Q395 522 427 515L422 452Q393 460 347 460Q289 460 242 443L165 0H99Z" />
<glyph unicode="s" glyph-name="s" horiz-adv-x="422" d="M61 85Q81 68 120 57T199 46Q270 46 304 71T338 147Q338 182 320 201T241 244Q191 263 169 280T136 321T125 375Q125 442 176 482T316 522Q355 522 392 512T448 484L440 424Q382 464 306 464Q251 464 223
443T195 382Q195 354 211 337T275 300Q299 291 323 280T366 254T398 217T410 163Q410 79 354 34T198 -12Q151 -12 114 -3T54 23L61 85Z" />
<glyph unicode="t" glyph-name="t" horiz-adv-x="320" d="M320 6Q271 -12 215 -12Q168 -12 142 13T116 84Q116 100 119 119L179 454H92L102 510H189L213 646H279L255 510H395L385 454H245L189 140Q184 116 184 98Q184 46 255 46Q289 46 334 59L320 6Z" />
<glyph unicode="u" glyph-name="u" horiz-adv-x="563" d="M501 510H567L480 13Q381 -12 305 -12Q207 -12 160 28T112 151Q112 179 119 219L171 510H237L186 223Q180 186 180 158Q180 97 212 72T321 46Q377 46 422 59L501 510Z" />
<glyph unicode="v" glyph-name="v" horiz-adv-x="469" d="M196 0L101 510H168L242 69L472 510H545L263 0H196Z" />
<glyph unicode="w" glyph-name="w" horiz-adv-x="725" d="M490 0L424 399L264 0H194L111 510H183L241 82L410 510H473L538 82L716 510H781L559 0H490Z" />
<glyph unicode="x" glyph-name="x" horiz-adv-x="474" d="M18 0L221 271L133 510H203L290 266L94 0H18ZM398 0L294 266L471 510H547L363 271L468 0H398Z" />
<glyph unicode="y" glyph-name="y" horiz-adv-x="469" d="M64 -238L196 0L101 510H168L242 69L472 510H545L132 -238H64Z" />
<glyph unicode="z" glyph-name="z" horiz-adv-x="431" d="M41 0L40 16L378 454H137L146 510H488L489 494L151 56H411L402 0H41Z" />
<glyph unicode="{" glyph-name="braceleft" horiz-adv-x="368" d="M294 -168Q212 -168 176 -137T139 -38Q139 -24 142 0T160 109Q166 144 166 168Q166 209 149 237T92 292Q139 316 163 339T201 393T223 473L238 561Q256 664 301 707T435 750Q452 750 456 749L446
693Q394 693 369 680T330 633T304 535L296 492Q283 422 269 386T235 329T178 291Q211 268 223 245T236 182Q236 156 225 88Q208 -12 208 -38Q208 -79 229 -95T304 -112L294 -168Z" />
<glyph unicode="|" glyph-name="bar" horiz-adv-x="322" d="M98 -168L265 776H332L165 -168H98Z" />
<glyph unicode="}" glyph-name="braceright" horiz-adv-x="368" d="M20 -111Q72 -111 97 -98T136 -51T162 47L170 90Q183 160 197 196T231 253T288 291Q255 314 243 337T230 400Q230 426 241 494Q258 594 258 620Q258 661 237 677T162 694L172 750Q254 750 290
719T327 620Q327 606 324 583T306 473Q300 439 300 414Q300 373 317 345T374 290Q327 266 303 243T265 189T243 109L228 21Q210 -82 165 -125T31 -168Q14 -168 10 -167L20 -111Z" />
<glyph unicode="~" glyph-name="asciitilde" horiz-adv-x="596" d="M572 435Q572 414 567 385Q548 273 440 273Q395 273 350 312Q310 347 294 357T261 367Q224 367 215 313Q212 301 211 273H142Q142 294 147 323Q166 435 274 435Q319 435 364 396Q404 361 420
351T453 341Q490 341 499 395Q502 407 503 435H572Z" />
<glyph unicode="&#xa0;" glyph-name="uni00A0" horiz-adv-x="237" />
<glyph unicode="&#xa1;" glyph-name="exclamdown" horiz-adv-x="264" d="M59 -207L153 307H216L130 -207H59ZM205 424Q187 424 177 433T166 461Q166 484 182 500T221 516Q239 516 249 507T260 479Q260 456 244 440T205 424Z" />
<glyph unicode="&#xa2;" glyph-name="cent" horiz-adv-x="596" d="M292 -118L312 -8Q236 4 196 56T156 198Q156 277 186 346T272 462T403 519L424 638H481L460 522Q517 520 560 504L555 447Q511 464 456 464Q385 464 334 433T255 341T226 205Q226 123 264 85T381
46Q438 46 501 68L487 9Q437 -10 369 -12L349 -118H292Z" />
<glyph unicode="&#xa3;" glyph-name="sterling" horiz-adv-x="596" d="M107 0L105 10Q175 70 208 133T241 273Q241 300 240 312H151L162 375H233Q228 420 228 459Q228 583 293 651T476 719Q549 719 606 692L602 631Q550 657 475 657Q384 657 342 609T299 454Q299
413 304 375H515L504 312H311Q312 305 312 288Q312 215 293 161T231 63H533L522 0H107Z" />
<glyph unicode="&#xa4;" glyph-name="currency" horiz-adv-x="596" d="M559 96L476 180Q419 141 352 141Q285 141 228 180L145 96L99 140L183 224Q140 281 140 352Q140 423 183 480L99 564L145 608L228 524Q285 563 352 563Q419 563 476 524L559 608L605 564L521
480Q564 423 564 352Q564 281 521 224L605 140L559 96ZM352 199Q392 199 425 218T479 273T499 352Q499 393 481 428T428 484T352 505Q312 505 279 486T225 431T205 352Q205 311 223 276T276 220T352 199Z" />
<glyph unicode="&#xa5;" glyph-name="yen" horiz-adv-x="596" d="M351 157L323 0H254L282 157H84L94 215H292L310 316H112L122 374H292L165 707H243L354 387L559 707H637L415 374H587L577 316H379L361 215H559L549 157H351Z" />
<glyph unicode="&#xa6;" glyph-name="brokenbar" horiz-adv-x="322" d="M206 444L265 776H332L273 444H206ZM98 -168L157 164H224L165 -168H98Z" />
<glyph unicode="&#xa7;" glyph-name="section" horiz-adv-x="523" d="M223 246Q170 264 147 288T123 348Q123 421 201 485Q187 502 179 524T170 567Q170 634 229 676T382 719Q421 719 449 715T522 698L515 641Q463 662 373 662Q310 662 274 639T238 576Q238 547
259 528T330 491L421 459Q474 441 496 418T518 359Q518 327 498 293T441 226Q461 209 470 190T479 147Q479 71 419 30T247 -12Q149 -12 79 16L87 73Q115 60 157 53T239 45Q318 45 364 70T410 138Q410 163 391 178T321 212L223 246ZM283 442Q265 449 258 452T245
458Q190 407 190 367Q190 341 205 326T254 299L356 266Q386 256 394 251Q421 274 436 299T452 346Q452 368 436 381T380 409L283 442Z" />
<glyph unicode="&#xa8;" glyph-name="dieresis" horiz-adv-x="583" d="M241 663Q241 640 225 625T186 609Q169 609 158 619T147 647Q147 670 163 685T202 701Q219 701 230 691T241 663ZM427 663Q427 640 411 625T372 609Q355 609 344 619T333 647Q333 670 349
685T388 701Q405 701 416 691T427 663Z" />
<glyph unicode="&#xa9;" glyph-name="copyright" horiz-adv-x="858" d="M604 170Q554 146 498 146Q409 146 356 203T302 356Q302 456 358 515T512 574Q550 574 596 560L598 511Q560 522 512 522Q366 522 366 356Q366 282 402 240T503 198Q534 198 561 203T603
217L604 170ZM484 -13Q380 -13 296 33T163 164T113 359Q113 464 159 548T289 681T484 731Q588 731 672 685T805 554T855 359Q855 255 809 171T678 37T484 -13ZM484 46Q571 46 639 84T747 194T787 359Q787 448 750 519T644 631T484 672Q397 672 329 634T221 524T181
359Q181 270 218 199T324 87T484 46Z" />
<glyph unicode="&#xaa;" glyph-name="ordfeminine" horiz-adv-x="461" d="M354 301L360 375Q332 337 294 316T216 295Q166 295 136 333T105 437Q105 511 137 575T229 679T360 719Q417 719 474 696L434 474Q422 411 412 301H354ZM406 658Q373 665 355 665Q305 665
263 637T196 556T170 440Q170 398 186 374T231 349Q268 349 303 376T368 453L406 658Z" />
<glyph unicode="&#xab;" glyph-name="guillemotleft" horiz-adv-x="570" d="M240 46L100 272L309 488H393L184 268L316 46H240ZM465 46L325 272L534 488H618L409 268L541 46H465Z" />
<glyph unicode="&#xac;" glyph-name="logicalnot" horiz-adv-x="596" d="M443 97L483 322H143L154 385H562L511 97H443Z" />
<glyph unicode="&#xad;" glyph-name="uni00AD" horiz-adv-x="330" d="M91 255L103 318H357L345 255H91Z" />
<glyph unicode="&#xae;" glyph-name="registered" horiz-adv-x="858" d="M582 172L434 367H455Q506 367 534 386T562 443Q562 477 538 496T472 515Q449 515 428 512V172H369V554Q429 564 467 564Q540 564 581 533T623 446Q623 403 595 371T522 333L647 172H582ZM484
-13Q380 -13 296 33T163 164T113 359Q113 464 159 548T289 681T484 731Q588 731 672 685T805 554T855 359Q855 255 809 171T678 37T484 -13ZM484 46Q571 46 639 84T747 194T787 359Q787 448 750 519T644 631T484 672Q397 672 329 634T221 524T181 359Q181 270 218
199T324 87T484 46Z" />
<glyph unicode="&#xaf;" glyph-name="macron" horiz-adv-x="583" d="M145 630L154 685H428L419 630H145Z" />
<glyph unicode="&#xb0;" glyph-name="degree" horiz-adv-x="357" d="M399 584Q399 517 361 480T256 442Q189 442 151 479T113 584Q113 651 151 688T256 726Q323 726 361 689T399 584ZM256 496Q296 496 318 519T340 584Q340 626 318 649T256 672Q216 672 194 649T172
584Q172 542 194 519T256 496Z" />
<glyph unicode="&#xb1;" glyph-name="plusminus" horiz-adv-x="596" d="M381 322L348 136H284L317 322H145L156 385H328L361 571H425L392 385H564L553 322H381ZM113 0L124 63H532L521 0H113Z" />
<glyph unicode="&#xb2;" glyph-name="twosuperior" horiz-adv-x="446" d="M94 307L93 315L245 445Q307 498 332 533T358 604Q358 636 338 650T274 664Q215 664 162 647L181 701Q232 719 285 719Q353 719 388 692T424 611Q424 565 396 522T301 423L228 362H402L392
307H94Z" />
<glyph unicode="&#xb3;" glyph-name="threesuperior" horiz-adv-x="446" d="M123 377Q145 364 175 357T235 349Q286 349 315 372T345 437Q345 472 324 490T263 509Q241 509 226 506L223 512L344 656H175L185 711H443L446 701L318 549Q363 543 387 516T412 444Q412
402 390 369T326 315T233 295Q172 295 121 322L123 377Z" />
<glyph unicode="&#xb4;" glyph-name="acute" horiz-adv-x="583" d="M203 593L290 722H364L264 593H203Z" />
<glyph unicode="&#xb5;" glyph-name="mu" horiz-adv-x="596" d="M523 510H589L506 44Q409 -12 307 -12Q208 -12 176 43L127 -238H62L192 510H257L210 237Q202 186 202 161Q202 102 230 75T317 47Q392 47 446 79L523 510Z" />
<glyph unicode="&#xb6;" glyph-name="paragraph" horiz-adv-x="554" d="M243 0L298 313H285Q196 313 146 354T95 469Q95 589 180 652T432 719L305 0H243ZM389 0L516 719H578L451 0H389Z" />
<glyph unicode="&#xb7;" glyph-name="periodcentered" horiz-adv-x="192" d="M138 230Q120 230 110 239T99 267Q99 290 115 306T154 322Q172 322 182 313T193 285Q193 262 177 246T138 230Z" />
<glyph unicode="&#xb8;" glyph-name="cedilla" horiz-adv-x="583" d="M180 -171Q195 -180 216 -185T258 -191Q292 -191 312 -177T333 -137Q333 -104 268 -104Q249 -104 215 -110L211 -106L283 24H341L291 -61Q296 -60 300 -60T310 -60Q352 -60 374 -79T397 -134Q397
-182 359 -211T263 -241Q212 -241 173 -219L180 -171Z" />
<glyph unicode="&#xb9;" glyph-name="onesuperior" horiz-adv-x="446" d="M230 307L286 628L172 584L156 632L354 711H366L295 307H230Z" />
<glyph unicode="&#xba;" glyph-name="ordmasculine" horiz-adv-x="444" d="M254 295Q182 295 144 337T105 459Q105 527 133 587T212 683T329 719Q401 719 439 677T478 556Q478 488 450 428T371 331T254 295ZM264 352Q307 352 340 377T392 451T412 556Q412 608
389 635T319 662Q276 662 243 637T191 563T171 459Q171 407 194 380T264 352Z" />
<glyph unicode="&#xbb;" glyph-name="guillemotright" horiz-adv-x="570" d="M52 46L261 266L129 488H205L345 262L136 46H52ZM277 46L486 266L354 488H430L570 262L361 46H277Z" />
<glyph unicode="&#xbc;" glyph-name="onequarter" horiz-adv-x="1043" d="M209 -1L819 710H902L292 -1H209ZM794 0L808 82H606L602 90L817 414L870 396L699 138H817L833 224H890L875 138H930L920 82H865L850 0H794ZM230 307L286 628L172 584L156 632L354 711H366L295
307H230Z" />
<glyph unicode="&#xbd;" glyph-name="onehalf" horiz-adv-x="1043" d="M175 0L785 711H868L258 0H175ZM619 0L618 8L770 138Q832 191 857 226T883 297Q883 329 863 343T799 357Q740 357 687 340L706 394Q757 412 810 412Q878 412 913 385T949 304Q949 258 921
215T826 116L753 55H927L917 0H619ZM230 307L286 628L172 584L156 632L354 711H366L295 307H230Z" />
<glyph unicode="&#xbe;" glyph-name="threequarters" horiz-adv-x="1043" d="M223 -1L833 710H916L306 -1H223ZM794 0L808 82H606L602 90L817 414L870 396L699 138H817L833 224H890L875 138H930L920 82H865L850 0H794ZM123 377Q145 364 175 357T235 349Q286 349
315 372T345 437Q345 472 324 490T263 509Q241 509 226 506L223 512L344 656H175L185 711H443L446 701L318 549Q363 543 387 516T412 444Q412 402 390 369T326 315T233 295Q172 295 121 322L123 377Z" />
<glyph unicode="&#xbf;" glyph-name="questiondown" horiz-adv-x="452" d="M413 -185Q366 -199 333 -204T263 -210Q175 -209 124 -167T73 -54Q73 37 136 102T301 195L321 307H384L356 152L320 141Q236 115 193 70T149 -39Q149 -92 184 -120T285 -148Q353 -148
427 -124L413 -185ZM373 424Q355 424 345 433T334 461Q334 484 350 500T389 516Q407 516 417 507T428 479Q428 456 412 440T373 424Z" />
<glyph unicode="&#xc0;" glyph-name="Agrave" horiz-adv-x="575" d="M488 0L463 184H181L94 0H19L368 719H455L563 0H488ZM400 644L211 247H454L400 644ZM374 778L266 889H344L443 778H374Z" />
<glyph unicode="&#xc1;" glyph-name="Aacute" horiz-adv-x="575" d="M488 0L463 184H181L94 0H19L368 719H455L563 0H488ZM400 644L211 247H454L400 644ZM384 778L485 889H563L453 778H384Z" />
<glyph unicode="&#xc2;" glyph-name="Acircumflex" horiz-adv-x="575" d="M488 0L463 184H181L94 0H19L368 719H455L563 0H488ZM400 644L211 247H454L400 644ZM487 778L430 851L349 778H268L398 889H470L559 778H487Z" />
<glyph unicode="&#xc3;" glyph-name="Atilde" horiz-adv-x="575" d="M488 0L463 184H181L94 0H19L368 719H455L563 0H488ZM400 644L211 247H454L400 644ZM570 897Q570 846 543 813T473 779Q456 779 442 786T404 816Q387 832 379 837T359 842Q345 842 336 825T326
779H275Q275 830 302 863T371 897Q389 897 404 890T440 861Q457 845 465 840T485 835Q499 835 508 851T518 897H570Z" />
<glyph unicode="&#xc4;" glyph-name="Adieresis" horiz-adv-x="575" d="M488 0L463 184H181L94 0H19L368 719H455L563 0H488ZM400 644L211 247H454L400 644ZM369 841Q369 818 353 802T313 786Q295 786 284 796T273 825Q273 848 289 864T329 880Q347 880 358 870T369
841ZM573 841Q573 818 557 802T517 786Q499 786 488 796T477 825Q477 848 493 864T533 880Q551 880 562 870T573 841Z" />
<glyph unicode="&#xc5;" glyph-name="Aring" horiz-adv-x="575" d="M488 0L463 184H181L94 0H19L368 719H455L563 0H488ZM400 644L211 247H454L400 644ZM414 756Q442 756 458 776T475 830Q475 890 426 890Q398 890 382 870T365 816Q365 756 414 756ZM409 711Q364
711 337 738T310 809Q310 863 343 899T428 935Q475 935 502 907T530 836Q530 782 496 747T409 711Z" />
<glyph unicode="&#xc6;" glyph-name="AE" horiz-adv-x="843" d="M431 0L463 184H211L80 0H0L510 719H927L916 656H616L569 393H811L800 330H558L511 63H820L809 0H431ZM548 661H544L257 247H474L548 661Z" />
<glyph unicode="&#xc7;" glyph-name="Ccedilla" horiz-adv-x="589" d="M555 24Q521 7 473 -2T377 -12Q250 -12 183 63T115 280Q115 404 162 508T295 671T502 731Q549 731 591 722T658 699L649 635Q621 650 582 659T502 668Q408 668 338 622T229 488T189 287Q189
167 239 109T395 51Q441 51 489 61T571 89L555 24ZM245 -169Q260 -178 281 -183T323 -189Q358 -189 377 -176T397 -137Q397 -104 333 -104Q314 -104 280 -110L276 -106L348 24H406L356 -61Q361 -60 365 -60T375 -60Q418 -60 440 -79T463 -134Q463 -182 425 -211T328
-241Q277 -241 238 -219L245 -169Z" />
<glyph unicode="&#xc8;" glyph-name="Egrave" horiz-adv-x="510" d="M98 0L225 719H594L583 656H283L236 393H478L467 330H225L178 63H487L476 0H98ZM410 778L302 889H380L479 778H410Z" />
<glyph unicode="&#xc9;" glyph-name="Eacute" horiz-adv-x="510" d="M98 0L225 719H594L583 656H283L236 393H478L467 330H225L178 63H487L476 0H98ZM369 778L470 889H548L438 778H369Z" />
<glyph unicode="&#xca;" glyph-name="Ecircumflex" horiz-adv-x="510" d="M98 0L225 719H594L583 656H283L236 393H478L467 330H225L178 63H487L476 0H98ZM506 778L449 851L368 778H287L417 889H489L578 778H506Z" />
<glyph unicode="&#xcb;" glyph-name="Edieresis" horiz-adv-x="510" d="M98 0L225 719H594L583 656H283L236 393H478L467 330H225L178 63H487L476 0H98ZM380 841Q380 818 364 802T324 786Q306 786 295 796T284 825Q284 848 300 864T340 880Q358 880 369 870T380
841ZM584 841Q584 818 568 802T528 786Q510 786 499 796T488 825Q488 848 504 864T544 880Q562 880 573 870T584 841Z" />
<glyph unicode="&#xcc;" glyph-name="Igrave" horiz-adv-x="270" d="M98 0L225 719H294L167 0H98ZM227 778L119 889H197L296 778H227Z" />
<glyph unicode="&#xcd;" glyph-name="Iacute" horiz-adv-x="270" d="M98 0L225 719H294L167 0H98ZM234 778L335 889H413L303 778H234Z" />
<glyph unicode="&#xce;" glyph-name="Icircumflex" horiz-adv-x="270" d="M98 0L225 719H294L167 0H98ZM339 778L282 851L201 778H120L250 889H322L411 778H339Z" />
<glyph unicode="&#xcf;" glyph-name="Idieresis" horiz-adv-x="270" d="M98 0L225 719H294L167 0H98ZM223 841Q223 818 207 802T167 786Q149 786 138 796T127 825Q127 848 143 864T183 880Q201 880 212 870T223 841ZM427 841Q427 818 411 802T371 786Q353 786
342 796T331 825Q331 848 347 864T387 880Q405 880 416 870T427 841Z" />
<glyph unicode="&#xd0;" glyph-name="Eth" horiz-adv-x="693" d="M173 345H77L87 400H183L240 722Q305 731 384 731Q542 731 619 658T697 436Q697 305 648 204T506 45T289 -12Q242 -12 189 -9T112 0L173 345ZM242 345L191 57Q239 51 299 51Q395 51 468 95T583
224T625 422Q625 548 566 608T382 668Q330 668 298 663L251 400H428L418 345H242Z" />
<glyph unicode="&#xd1;" glyph-name="Ntilde" horiz-adv-x="677" d="M502 0L270 602L165 0H98L224 719H296L528 114L633 719H700L575 0H502ZM633 897Q633 846 606 813T536 779Q519 779 505 786T467 816Q450 832 442 837T422 842Q408 842 399 825T389 779H338Q338
830 365 863T434 897Q452 897 467 890T503 861Q520 845 528 840T548 835Q562 835 571 851T581 897H633Z" />
<glyph unicode="&#xd2;" glyph-name="Ograve" horiz-adv-x="698" d="M343 -12Q237 -12 176 58T115 249Q115 382 160 491T287 665T474 731Q580 731 641 661T702 470Q702 337 657 228T530 54T343 -12ZM354 51Q431 51 493 102T593 248T630 463Q630 563 588 615T463
668Q386 668 324 617T224 471T187 256Q187 156 229 104T354 51ZM473 778L365 889H443L542 778H473Z" />
<glyph unicode="&#xd3;" glyph-name="Oacute" horiz-adv-x="698" d="M343 -12Q237 -12 176 58T115 249Q115 382 160 491T287 665T474 731Q580 731 641 661T702 470Q702 337 657 228T530 54T343 -12ZM354 51Q431 51 493 102T593 248T630 463Q630 563 588 615T463
668Q386 668 324 617T224 471T187 256Q187 156 229 104T354 51ZM476 778L577 889H655L545 778H476Z" />
<glyph unicode="&#xd4;" glyph-name="Ocircumflex" horiz-adv-x="698" d="M343 -12Q237 -12 176 58T115 249Q115 382 160 491T287 665T474 731Q580 731 641 661T702 470Q702 337 657 228T530 54T343 -12ZM354 51Q431 51 493 102T593 248T630 463Q630 563 588 615T463
668Q386 668 324 617T224 471T187 256Q187 156 229 104T354 51ZM574 778L517 851L436 778H355L485 889H557L646 778H574Z" />
<glyph unicode="&#xd5;" glyph-name="Otilde" horiz-adv-x="698" d="M343 -12Q237 -12 176 58T115 249Q115 382 160 491T287 665T474 731Q580 731 641 661T702 470Q702 337 657 228T530 54T343 -12ZM354 51Q431 51 493 102T593 248T630 463Q630 563 588 615T463
668Q386 668 324 617T224 471T187 256Q187 156 229 104T354 51ZM666 897Q666 846 639 813T569 779Q552 779 538 786T500 816Q483 832 475 837T455 842Q441 842 432 825T422 779H371Q371 830 398 863T467 897Q485 897 500 890T536 861Q553 845 561 840T581 835Q595
835 604 851T614 897H666Z" />
<glyph unicode="&#xd6;" glyph-name="Odieresis" horiz-adv-x="698" d="M343 -12Q237 -12 176 58T115 249Q115 382 160 491T287 665T474 731Q580 731 641 661T702 470Q702 337 657 228T530 54T343 -12ZM354 51Q431 51 493 102T593 248T630 463Q630 563 588 615T463
668Q386 668 324 617T224 471T187 256Q187 156 229 104T354 51ZM463 841Q463 818 447 802T407 786Q389 786 378 796T367 825Q367 848 383 864T423 880Q441 880 452 870T463 841ZM667 841Q667 818 651 802T611 786Q593 786 582 796T571 825Q571 848 587 864T627
880Q645 880 656 870T667 841Z" />
<glyph unicode="&#xd7;" glyph-name="multiply" horiz-adv-x="596" d="M449 178L342 308L190 178L152 224L302 353L193 486L243 528L350 398L502 528L540 482L390 353L499 220L449 178Z" />
<glyph unicode="&#xd8;" glyph-name="Oslash" horiz-adv-x="698" d="M46 0L145 109Q115 168 115 249Q115 382 160 491T287 665T474 731Q577 731 642 655L700 719H771L672 610Q702 547 702 470Q702 337 657 228T530 54T343 -12Q291 -12 248 7T175 63L117 0H46ZM596
604Q553 668 463 668Q386 668 324 617T224 471T187 256Q187 206 198 167L596 604ZM221 114Q263 51 354 51Q431 51 493 102T593 248T630 463Q630 511 619 552L221 114Z" />
<glyph unicode="&#xd9;" glyph-name="Ugrave" horiz-adv-x="664" d="M624 719H693L613 265Q596 169 559 108T464 18T325 -12Q126 -12 126 180Q126 212 137 276L215 719H284L208 285Q197 222 197 179Q197 112 230 82T337 51Q425 51 475 105T548 285L624 719ZM440
778L332 889H410L509 778H440Z" />
<glyph unicode="&#xda;" glyph-name="Uacute" horiz-adv-x="664" d="M624 719H693L613 265Q596 169 559 108T464 18T325 -12Q126 -12 126 180Q126 212 137 276L215 719H284L208 285Q197 222 197 179Q197 112 230 82T337 51Q425 51 475 105T548 285L624 719ZM418
778L519 889H597L487 778H418Z" />
<glyph unicode="&#xdb;" glyph-name="Ucircumflex" horiz-adv-x="664" d="M624 719H693L613 265Q596 169 559 108T464 18T325 -12Q126 -12 126 180Q126 212 137 276L215 719H284L208 285Q197 222 197 179Q197 112 230 82T337 51Q425 51 475 105T548 285L624 719ZM540
778L483 851L402 778H321L451 889H523L612 778H540Z" />
<glyph unicode="&#xdc;" glyph-name="Udieresis" horiz-adv-x="664" d="M624 719H693L613 265Q596 169 559 108T464 18T325 -12Q126 -12 126 180Q126 212 137 276L215 719H284L208 285Q197 222 197 179Q197 112 230 82T337 51Q425 51 475 105T548 285L624 719ZM414
841Q414 818 398 802T358 786Q340 786 329 796T318 825Q318 848 334 864T374 880Q392 880 403 870T414 841ZM618 841Q618 818 602 802T562 786Q544 786 533 796T522 825Q522 848 538 864T578 880Q596 880 607 870T618 841Z" />
<glyph unicode="&#xdd;" glyph-name="Yacute" horiz-adv-x="528" d="M232 0L279 266L138 719H214L324 341L546 719H622L346 262L301 0H232ZM342 778L443 889H521L411 778H342Z" />
<glyph unicode="&#xde;" glyph-name="Thorn" horiz-adv-x="559" d="M98 0L225 719H294L274 604Q321 610 342 610Q453 610 511 564T569 430Q569 343 535 278T434 177T277 141Q243 141 193 145L167 0H98ZM203 206Q232 202 273 202Q381 202 438 257T495 418Q495 488
457 518T332 549Q311 549 263 544L203 206Z" />
<glyph unicode="&#xdf;" glyph-name="germandbls" horiz-adv-x="571" d="M257 71Q284 60 315 53T375 46Q424 46 454 70T485 135Q485 164 473 183T442 218T405 250T374 289T360 344Q361 375 373 400T405 447T443 492T475 542T489 603Q489 643 465 664T394 686Q349
686 323 670T280 616T252 511L165 0H98L188 527Q208 646 257 694T404 743Q477 743 516 708T555 607Q554 568 542 538T511 484T473 440T442 398T428 352Q429 331 441 315T472 282T509 247T540 203T553 144Q553 76 504 32T377 -12Q338 -12 311 -7T251 13L257 71Z"
/>
<glyph unicode="&#xe0;" glyph-name="agrave" horiz-adv-x="543" d="M405 0L413 89Q378 42 330 15T229 -12Q164 -12 126 36T88 167Q88 261 128 341T240 472T401 522Q474 522 545 492L495 214Q477 110 467 0H405ZM473 454Q439 464 399 464Q334 464 279 427T191
322T158 169Q158 110 180 78T244 46Q294 46 340 79T423 174L473 454ZM407 593L307 722H381L468 593H407Z" />
<glyph unicode="&#xe1;" glyph-name="aacute" horiz-adv-x="543" d="M405 0L413 89Q378 42 330 15T229 -12Q164 -12 126 36T88 167Q88 261 128 341T240 472T401 522Q474 522 545 492L495 214Q477 110 467 0H405ZM473 454Q439 464 399 464Q334 464 279 427T191
322T158 169Q158 110 180 78T244 46Q294 46 340 79T423 174L473 454ZM371 593L458 722H532L432 593H371Z" />
<glyph unicode="&#xe2;" glyph-name="acircumflex" horiz-adv-x="543" d="M405 0L413 89Q378 42 330 15T229 -12Q164 -12 126 36T88 167Q88 261 128 341T240 472T401 522Q474 522 545 492L495 214Q477 110 467 0H405ZM473 454Q439 464 399 464Q334 464 279 427T191
322T158 169Q158 110 180 78T244 46Q294 46 340 79T423 174L473 454ZM481 593L423 685L335 593H256L386 722H466L550 593H481Z" />
<glyph unicode="&#xe3;" glyph-name="atilde" horiz-adv-x="543" d="M405 0L413 89Q378 42 330 15T229 -12Q164 -12 126 36T88 167Q88 261 128 341T240 472T401 522Q474 522 545 492L495 214Q477 110 467 0H405ZM473 454Q439 464 399 464Q334 464 279 427T191
322T158 169Q158 110 180 78T244 46Q294 46 340 79T423 174L473 454ZM547 707Q547 658 521 626T455 594Q438 594 424 601T389 629Q373 644 365 649T346 654Q333 654 325 638T314 594H265Q265 643 291 675T357 707Q374 707 388 700T423 672Q439 657 447 652T466
647Q479 647 487 663T498 707H547Z" />
<glyph unicode="&#xe4;" glyph-name="adieresis" horiz-adv-x="543" d="M405 0L413 89Q378 42 330 15T229 -12Q164 -12 126 36T88 167Q88 261 128 341T240 472T401 522Q474 522 545 492L495 214Q477 110 467 0H405ZM473 454Q439 464 399 464Q334 464 279 427T191
322T158 169Q158 110 180 78T244 46Q294 46 340 79T423 174L473 454ZM363 663Q363 640 347 625T308 609Q291 609 280 619T269 647Q269 670 285 685T324 701Q341 701 352 691T363 663ZM549 663Q549 640 533 625T494 609Q477 609 466 619T455 647Q455 670 471 685T510
701Q527 701 538 691T549 663Z" />
<glyph unicode="&#xe5;" glyph-name="aring" horiz-adv-x="543" d="M405 0L413 89Q378 42 330 15T229 -12Q164 -12 126 36T88 167Q88 261 128 341T240 472T401 522Q474 522 545 492L495 214Q477 110 467 0H405ZM473 454Q439 464 399 464Q334 464 279 427T191 322T158
169Q158 110 180 78T244 46Q294 46 340 79T423 174L473 454ZM423 589Q382 589 357 614T332 679Q332 728 363 760T442 793Q483 793 508 768T533 704Q533 655 502 622T423 589ZM427 633Q452 633 466 651T481 697Q481 749 438 749Q413 749 399 732T384 686Q384 661
395 647T427 633Z" />
<glyph unicode="&#xe6;" glyph-name="ae" horiz-adv-x="820" d="M473 454Q439 464 399 464Q334 464 279 427T191 322T158 169Q158 110 180 78T244 46Q294 46 340 79T423 174L473 454ZM558 278Q669 295 721 326T774 405Q774 433 753 450T697 467Q652 467 611 443T540
373T502 269L558 278ZM775 15Q746 3 704 -4T624 -12Q551 -12 504 19T438 109Q399 51 345 20T229 -12Q164 -12 126 36T88 167Q88 261 128 341T240 472T401 522Q474 522 545 492L539 457Q614 522 708 522Q769 522 805 492T841 411Q841 338 776 293T566 226L493 214V200Q493
124 530 85T639 46Q710 46 781 73L775 15Z" />
<glyph unicode="&#xe7;" glyph-name="ccedilla" horiz-adv-x="447" d="M419 9Q394 -1 360 -6T293 -12Q193 -12 141 42T88 198Q88 285 124 359T226 478T381 522Q444 522 492 504L487 447Q443 464 388 464Q317 464 266 433T187 341T158 205Q158 123 196 85T313 46Q370
46 433 68L419 9ZM155 -171Q170 -180 191 -185T233 -191Q267 -191 287 -177T308 -137Q308 -104 243 -104Q224 -104 190 -110L186 -106L258 24H316L266 -61Q271 -60 275 -60T285 -60Q327 -60 349 -79T372 -134Q372 -182 334 -211T238 -241Q187 -241 148 -219L155
-171Z" />
<glyph unicode="&#xe8;" glyph-name="egrave" horiz-adv-x="483" d="M438 15Q409 3 367 -4T287 -12Q189 -12 139 43T88 205Q88 284 124 357T225 476T371 522Q432 522 468 492T504 411Q504 338 439 293T229 226L156 214V200Q156 124 193 85T302 46Q373 46 444 73L438
15ZM221 278Q332 295 384 326T437 405Q437 433 416 450T360 467Q315 467 274 443T203 373T165 269L221 278ZM358 593L258 722H332L419 593H358Z" />
<glyph unicode="&#xe9;" glyph-name="eacute" horiz-adv-x="483" d="M438 15Q409 3 367 -4T287 -12Q189 -12 139 43T88 205Q88 284 124 357T225 476T371 522Q432 522 468 492T504 411Q504 338 439 293T229 226L156 214V200Q156 124 193 85T302 46Q373 46 444 73L438
15ZM221 278Q332 295 384 326T437 405Q437 433 416 450T360 467Q315 467 274 443T203 373T165 269L221 278ZM348 593L435 722H509L409 593H348Z" />
<glyph unicode="&#xea;" glyph-name="ecircumflex" horiz-adv-x="483" d="M438 15Q409 3 367 -4T287 -12Q189 -12 139 43T88 205Q88 284 124 357T225 476T371 522Q432 522 468 492T504 411Q504 338 439 293T229 226L156 214V200Q156 124 193 85T302 46Q373 46
444 73L438 15ZM221 278Q332 295 384 326T437 405Q437 433 416 450T360 467Q315 467 274 443T203 373T165 269L221 278ZM454 593L396 685L308 593H229L359 722H439L523 593H454Z" />
<glyph unicode="&#xeb;" glyph-name="edieresis" horiz-adv-x="483" d="M438 15Q409 3 367 -4T287 -12Q189 -12 139 43T88 205Q88 284 124 357T225 476T371 522Q432 522 468 492T504 411Q504 338 439 293T229 226L156 214V200Q156 124 193 85T302 46Q373 46 444
73L438 15ZM221 278Q332 295 384 326T437 405Q437 433 416 450T360 467Q315 467 274 443T203 373T165 269L221 278ZM333 663Q333 640 317 625T278 609Q261 609 250 619T239 647Q239 670 255 685T294 701Q311 701 322 691T333 663ZM519 663Q519 640 503 625T464
609Q447 609 436 619T425 647Q425 670 441 685T480 701Q497 701 508 691T519 663Z" />
<glyph unicode="&#xec;" glyph-name="igrave" horiz-adv-x="250" d="M99 0L188 510H254L165 0H99ZM196 593L96 722H170L257 593H196Z" />
<glyph unicode="&#xed;" glyph-name="iacute" horiz-adv-x="250" d="M99 0L188 510H254L165 0H99ZM202 593L289 722H363L263 593H202Z" />
<glyph unicode="&#xee;" glyph-name="icircumflex" horiz-adv-x="250" d="M99 0L188 510H254L165 0H99ZM303 593L245 685L157 593H78L208 722H288L372 593H303Z" />
<glyph unicode="&#xef;" glyph-name="idieresis" horiz-adv-x="250" d="M99 0L188 510H254L165 0H99ZM194 663Q194 640 178 625T139 609Q122 609 111 619T100 647Q100 670 116 685T155 701Q172 701 183 691T194 663ZM380 663Q380 640 364 625T325 609Q308 609
297 619T286 647Q286 670 302 685T341 701Q358 701 369 691T380 663Z" />
<glyph unicode="&#xf0;" glyph-name="eth" horiz-adv-x="550" d="M280 47Q329 47 373 77T446 160T475 277Q475 349 439 388T336 427Q288 427 248 397T183 313T158 190Q158 47 280 47ZM496 423Q496 480 481 529T439 610L330 550L302 596L396 648Q371 664 338 675T275
689L300 737Q398 726 458 680L567 738L592 690L500 641Q565 556 565 403Q565 282 530 188T428 41T272 -12Q185 -12 137 40T88 187Q88 268 119 335T208 444T337 485Q390 485 431 463T496 401V423Z" />
<glyph unicode="&#xf1;" glyph-name="ntilde" horiz-adv-x="583" d="M439 0L492 302Q499 343 499 372Q499 416 473 439T397 462Q307 462 240 436L164 0H98L182 479Q247 502 301 512T413 522Q489 522 528 489T568 392Q568 361 561 322L505 0H439ZM563 707Q563 658
537 626T471 594Q454 594 440 601T405 629Q389 644 381 649T362 654Q349 654 341 638T330 594H281Q281 643 307 675T373 707Q390 707 404 700T439 672Q455 657 463 652T482 647Q495 647 503 663T514 707H563Z" />
<glyph unicode="&#xf2;" glyph-name="ograve" horiz-adv-x="538" d="M273 46Q332 46 377 81T450 184T478 327Q478 392 448 428T363 464Q304 464 259 429T186 326T158 183Q158 118 188 82T273 46ZM266 -12Q180 -12 134 38T88 182Q88 265 123 345T222 474T370 522Q456
522 502 472T548 328Q548 245 513 165T414 36T266 -12ZM362 593L262 722H336L423 593H362Z" />
<glyph unicode="&#xf3;" glyph-name="oacute" horiz-adv-x="538" d="M273 46Q332 46 377 81T450 184T478 327Q478 392 448 428T363 464Q304 464 259 429T186 326T158 183Q158 118 188 82T273 46ZM266 -12Q180 -12 134 38T88 182Q88 265 123 345T222 474T370 522Q456
522 502 472T548 328Q548 245 513 165T414 36T266 -12ZM357 593L444 722H518L418 593H357Z" />
<glyph unicode="&#xf4;" glyph-name="ocircumflex" horiz-adv-x="538" d="M273 46Q332 46 377 81T450 184T478 327Q478 392 448 428T363 464Q304 464 259 429T186 326T158 183Q158 118 188 82T273 46ZM266 -12Q180 -12 134 38T88 182Q88 265 123 345T222 474T370
522Q456 522 502 472T548 328Q548 245 513 165T414 36T266 -12ZM479 593L421 685L333 593H254L384 722H464L548 593H479Z" />
<glyph unicode="&#xf5;" glyph-name="otilde" horiz-adv-x="538" d="M273 46Q332 46 377 81T450 184T478 327Q478 392 448 428T363 464Q304 464 259 429T186 326T158 183Q158 118 188 82T273 46ZM266 -12Q180 -12 134 38T88 182Q88 265 123 345T222 474T370 522Q456
522 502 472T548 328Q548 245 513 165T414 36T266 -12ZM552 707Q552 658 526 626T460 594Q443 594 429 601T394 629Q378 644 370 649T351 654Q338 654 330 638T319 594H270Q270 643 296 675T362 707Q379 707 393 700T428 672Q444 657 452 652T471 647Q484 647 492
663T503 707H552Z" />
<glyph unicode="&#xf6;" glyph-name="odieresis" horiz-adv-x="538" d="M273 46Q332 46 377 81T450 184T478 327Q478 392 448 428T363 464Q304 464 259 429T186 326T158 183Q158 118 188 82T273 46ZM266 -12Q180 -12 134 38T88 182Q88 265 123 345T222 474T370
522Q456 522 502 472T548 328Q548 245 513 165T414 36T266 -12ZM375 663Q375 640 359 625T320 609Q303 609 292 619T281 647Q281 670 297 685T336 701Q353 701 364 691T375 663ZM561 663Q561 640 545 625T506 609Q489 609 478 619T467 647Q467 670 483 685T522
701Q539 701 550 691T561 663Z" />
<glyph unicode="&#xf7;" glyph-name="divide" horiz-adv-x="596" d="M143 322L154 385H562L551 322H143ZM314 131Q290 131 277 143T264 178Q264 207 284 227T334 248Q358 248 371 236T384 201Q384 172 364 152T314 131ZM371 459Q347 459 334 471T321 506Q321 535
341 555T391 576Q415 576 428 564T441 529Q441 500 421 480T371 459Z" />
<glyph unicode="&#xf8;" glyph-name="oslash" horiz-adv-x="538" d="M49 0L114 70Q88 114 88 182Q88 265 123 345T222 474T370 522Q446 522 492 477L523 510H587L521 440Q548 392 548 328Q548 245 513 165T414 36T266 -12Q190 -12 143 32L113 0H49ZM448 429Q416
464 363 464Q304 464 258 428T183 325T155 183Q155 149 164 123L448 429ZM188 80Q219 46 273 46Q332 46 378 82T453 185T481 327Q481 355 472 386L188 80Z" />
<glyph unicode="&#xf9;" glyph-name="ugrave" horiz-adv-x="563" d="M501 510H567L480 13Q381 -12 305 -12Q207 -12 160 28T112 151Q112 179 119 219L171 510H237L186 223Q180 186 180 158Q180 97 212 72T321 46Q377 46 422 59L501 510ZM348 593L248 722H322L409
593H348Z" />
<glyph unicode="&#xfa;" glyph-name="uacute" horiz-adv-x="563" d="M501 510H567L480 13Q381 -12 305 -12Q207 -12 160 28T112 151Q112 179 119 219L171 510H237L186 223Q180 186 180 158Q180 97 212 72T321 46Q377 46 422 59L501 510ZM342 593L429 722H503L403
593H342Z" />
<glyph unicode="&#xfb;" glyph-name="ucircumflex" horiz-adv-x="563" d="M501 510H567L480 13Q381 -12 305 -12Q207 -12 160 28T112 151Q112 179 119 219L171 510H237L186 223Q180 186 180 158Q180 97 212 72T321 46Q377 46 422 59L501 510ZM463 593L405 685L317
593H238L368 722H448L532 593H463Z" />
<glyph unicode="&#xfc;" glyph-name="udieresis" horiz-adv-x="563" d="M501 510H567L480 13Q381 -12 305 -12Q207 -12 160 28T112 151Q112 179 119 219L171 510H237L186 223Q180 186 180 158Q180 97 212 72T321 46Q377 46 422 59L501 510ZM349 663Q349 640 333
625T294 609Q277 609 266 619T255 647Q255 670 271 685T310 701Q327 701 338 691T349 663ZM535 663Q535 640 519 625T480 609Q463 609 452 619T441 647Q441 670 457 685T496 701Q513 701 524 691T535 663Z" />
<glyph unicode="&#xfd;" glyph-name="yacute" horiz-adv-x="469" d="M64 -238L196 0L101 510H168L242 69L472 510H545L132 -238H64ZM295 593L382 722H456L356 593H295Z" />
<glyph unicode="&#xfe;" glyph-name="thorn" horiz-adv-x="541" d="M57 -238L227 737H293L251 499Q306 522 364 522Q453 522 502 471T551 328Q551 227 514 151T407 31T242 -12Q202 -12 161 -3L122 -238H57ZM174 59Q209 46 257 46Q322 46 372 80T452 177T481 324Q481
464 338 464Q287 464 242 446L174 59Z" />
<glyph unicode="&#xff;" glyph-name="ydieresis" horiz-adv-x="469" d="M64 -238L196 0L101 510H168L242 69L472 510H545L132 -238H64ZM286 663Q286 640 270 625T231 609Q214 609 203 619T192 647Q192 670 208 685T247 701Q264 701 275 691T286 663ZM472 663Q472
640 456 625T417 609Q400 609 389 619T378 647Q378 670 394 685T433 701Q450 701 461 691T472 663Z" />
<glyph unicode="&#x131;" glyph-name="dotlessi" horiz-adv-x="250" d="M99 0L188 510H254L165 0H99Z" />
<glyph unicode="&#x152;" glyph-name="OE" horiz-adv-x="892" d="M472 0Q403 -12 349 -12Q236 -12 176 59T115 264Q115 388 161 496T290 667T486 731Q543 731 606 719H976L965 656H665L618 393H860L849 330H607L560 63H869L858 0H472ZM596 655Q576 661 542 664T480
668Q394 668 329 619T225 475T187 266Q187 153 229 102T364 51Q393 51 430 55T492 66L596 655Z" />
<glyph unicode="&#x153;" glyph-name="oe" horiz-adv-x="862" d="M817 15Q788 3 746 -4T666 -12Q594 -12 546 19T479 109Q439 50 385 19T266 -12Q180 -12 134 38T88 182Q88 265 123 345T222 474T370 522Q432 522 473 492T531 403Q571 460 628 491T750 522Q811
522 847 492T883 411Q883 337 817 293T608 226L535 214V200Q535 124 572 85T681 46Q752 46 823 73L817 15ZM600 278Q710 295 763 326T816 405Q816 433 795 450T739 467Q693 467 652 443T582 373T544 269L600 278ZM273 46Q332 46 377 81T450 184T478 327Q478 392
448 428T363 464Q304 464 259 429T186 326T158 183Q158 118 188 82T273 46Z" />
<glyph unicode="&#x160;" glyph-name="Scaron" horiz-adv-x="527" d="M64 83Q108 66 145 59T230 51Q324 51 377 93T431 211Q431 260 409 289T322 352Q236 395 203 436T169 539Q169 594 198 637T284 706T414 731Q500 731 570 702L567 636Q545 650 502 659T419 669Q334
669 289 638T243 549Q243 505 267 475T350 414Q413 381 446 353T493 294T507 223Q507 154 474 101T377 18T229 -12Q127 -12 58 18L64 83ZM451 778H379L297 889H372L420 819L501 889H587L451 778Z" />
<glyph unicode="&#x161;" glyph-name="scaron" horiz-adv-x="422" d="M61 85Q81 68 120 57T199 46Q270 46 304 71T338 147Q338 182 320 201T241 244Q191 263 169 280T136 321T125 375Q125 442 176 482T316 522Q355 522 392 512T448 484L440 424Q382 464 306 464Q251
464 223 443T195 382Q195 354 211 337T275 300Q299 291 323 280T366 254T398 217T410 163Q410 79 354 34T198 -12Q151 -12 114 -3T54 23L61 85ZM285 593L196 722H267L329 630L413 722H492L372 593H285Z" />
<glyph unicode="&#x178;" glyph-name="Ydieresis" horiz-adv-x="528" d="M232 0L279 266L138 719H214L324 341L546 719H622L346 262L301 0H232ZM341 841Q341 818 325 802T285 786Q267 786 256 796T245 825Q245 848 261 864T301 880Q319 880 330 870T341 841ZM545
841Q545 818 529 802T489 786Q471 786 460 796T449 825Q449 848 465 864T505 880Q523 880 534 870T545 841Z" />
<glyph unicode="&#x17d;" glyph-name="Zcaron" horiz-adv-x="522" d="M42 0L38 8L484 656H168L179 719H594L598 711L152 63H495L484 0H42ZM426 778H354L272 889H347L395 819L476 889H562L426 778Z" />
<glyph unicode="&#x17e;" glyph-name="zcaron" horiz-adv-x="431" d="M41 0L40 16L378 454H137L146 510H488L489 494L151 56H411L402 0H41ZM295 593L206 722H277L339 630L423 722H502L382 593H295Z" />
<glyph unicode="&#x192;" glyph-name="florin" horiz-adv-x="596" d="M72 -73Q81 -75 106 -77T148 -80Q185 -80 205 -68T236 -28T256 53L311 399H202V455H320L333 531Q345 607 366 646T421 702T506 719Q542 719 574 711L577 654Q567 656 545 658T507 661Q470 661
450 649T419 609T399 528L387 455H515V399H378L322 50Q310 -26 289 -65T234 -121T149 -138Q113 -138 81 -130L72 -73Z" />
<glyph unicode="&#x2c6;" glyph-name="circumflex" horiz-adv-x="583" d="M365 593L307 685L219 593H140L270 722H350L434 593H365Z" />
<glyph unicode="&#x2c7;" glyph-name="caron" horiz-adv-x="583" d="M228 593L139 722H210L272 630L356 722H435L315 593H228Z" />
<glyph unicode="&#x2da;" glyph-name="ring" horiz-adv-x="583" d="M275 589Q234 589 209 614T184 679Q184 728 215 760T294 793Q335 793 360 768T385 704Q385 655 354 622T275 589ZM279 633Q304 633 318 651T333 697Q333 749 290 749Q265 749 251 732T236 686Q236
661 247 647T279 633Z" />
<glyph unicode="&#x2dc;" glyph-name="tilde" horiz-adv-x="583" d="M428 707Q428 658 402 626T336 594Q319 594 305 601T270 629Q254 644 246 649T227 654Q214 654 206 638T195 594H146Q146 643 172 675T238 707Q255 707 269 700T304 672Q320 657 328 652T347
647Q360 647 368 663T379 707H428Z" />
<glyph unicode="&#x2013;" glyph-name="endash" horiz-adv-x="500" d="M50 255L60 318H560L549 255H50Z" />
<glyph unicode="&#x2014;" glyph-name="emdash" horiz-adv-x="1000" d="M50 255L60 318H1060L1049 255H50Z" />
<glyph unicode="&#x2018;" glyph-name="quoteleft" horiz-adv-x="192" d="M148 545Q167 658 223 749H277Q232 658 213 545H148Z" />
<glyph unicode="&#x2019;" glyph-name="quoteright" horiz-adv-x="192" d="M123 545Q168 636 187 749H252Q233 636 177 545H123Z" />
<glyph unicode="&#x201a;" glyph-name="quotesinglbase" horiz-adv-x="192" d="M24 -118Q69 -27 88 86H153Q134 -27 78 -118H24Z" />
<glyph unicode="&#x201c;" glyph-name="quotedblleft" horiz-adv-x="353" d="M148 545Q167 658 223 749H277Q232 658 213 545H148ZM309 545Q328 658 384 749H438Q393 658 374 545H309Z" />
<glyph unicode="&#x201d;" glyph-name="quotedblright" horiz-adv-x="353" d="M123 545Q168 636 187 749H252Q233 636 177 545H123ZM284 545Q329 636 348 749H413Q394 636 338 545H284Z" />
<glyph unicode="&#x201e;" glyph-name="quotedblbase" horiz-adv-x="353" d="M24 -118Q69 -27 88 86H153Q134 -27 78 -118H24ZM185 -118Q230 -27 249 86H314Q295 -27 239 -118H185Z" />
<glyph unicode="&#x2020;" glyph-name="dagger" horiz-adv-x="443" d="M155 -172L254 388H114L125 451H265L312 719H377L330 451H470L459 388H319L220 -172H155Z" />
<glyph unicode="&#x2021;" glyph-name="daggerdbl" horiz-adv-x="443" d="M155 -172L197 66H57L68 129H208L259 418H119L130 481H270L312 719H377L335 481H475L464 418H324L273 129H413L402 66H262L220 -172H155Z" />
<glyph unicode="&#x2022;" glyph-name="bullet" horiz-adv-x="368" d="M235 227Q188 227 155 260T122 340Q122 387 155 420T235 453Q282 453 315 420T348 340Q348 293 315 260T235 227Z" />
<glyph unicode="&#x2026;" glyph-name="ellipsis" horiz-adv-x="1000" d="M159 -4Q141 -4 131 5T120 33Q120 56 136 72T175 88Q193 88 203 79T214 51Q214 28 198 12T159 -4ZM492 -4Q474 -4 464 5T453 33Q453 56 469 72T508 88Q526 88 536 79T547 51Q547 28 531
12T492 -4ZM825 -4Q807 -4 797 5T786 33Q786 56 802 72T841 88Q859 88 869 79T880 51Q880 28 864 12T825 -4Z" />
<glyph unicode="&#x2030;" glyph-name="perthousand" horiz-adv-x="1481" d="M229 0L839 711H922L312 0H229ZM811 46Q846 46 875 70T921 139T938 241Q938 300 918 328T855 356Q820 356 791 332T745 263T728 161Q728 102 748 74T811 46ZM806 -11Q734 -11 695 33T656
158Q656 228 681 286T753 378T860 413Q932 413 971 369T1010 244Q1010 174 985 116T913 24T806 -11ZM1249 46Q1284 46 1313 70T1359 139T1376 241Q1376 300 1356 328T1293 356Q1258 356 1229 332T1183 263T1166 161Q1166 102 1186 74T1249 46ZM1244 -11Q1172 -11
1133 33T1094 158Q1094 228 1119 286T1191 378T1298 413Q1370 413 1409 369T1448 244Q1448 174 1423 116T1351 24T1244 -11ZM295 352Q330 352 359 376T405 445T422 547Q422 606 402 634T339 662Q304 662 275 638T229 569T212 467Q212 408 232 380T295 352ZM290
295Q218 295 179 339T140 464Q140 534 165 592T237 684T344 719Q416 719 455 675T494 550Q494 480 469 422T397 330T290 295Z" />
<glyph unicode="&#x2039;" glyph-name="guilsinglleft" horiz-adv-x="345" d="M240 46L100 272L309 488H393L184 268L316 46H240Z" />
<glyph unicode="&#x203a;" glyph-name="guilsinglright" horiz-adv-x="345" d="M52 46L261 266L129 488H205L345 262L136 46H52Z" />
<glyph unicode="&#x2044;" glyph-name="fraction" horiz-adv-x="0" d="M-346 0L264 711H347L-263 0H-346Z" />
<glyph unicode="&#x2070;" glyph-name="zerosuperior" horiz-adv-x="446" d="M269 352Q304 352 333 376T379 445T396 547Q396 606 376 634T313 662Q278 662 249 638T203 569T186 467Q186 408 206 380T269 352ZM264 295Q192 295 153 339T114 464Q114 534 139 592T211
684T318 719Q390 719 429 675T468 550Q468 480 443 422T371 330T264 295Z" />
<glyph unicode="&#x2074;" glyph-name="foursuperior" horiz-adv-x="446" d="M300 307L314 389H112L108 397L323 721L376 703L205 445H323L339 531H396L381 445H436L426 389H371L356 307H300Z" />
<glyph unicode="&#x20ac;" glyph-name="Euro" horiz-adv-x="596" d="M590 24Q513 -12 403 -12Q284 -12 220 54T152 246H74L84 304H153Q156 361 166 405H102L112 463H182Q222 587 309 653T521 719Q597 719 673 692L666 629Q598 657 513 657Q419 657 353 608T254
463H548L538 405H239Q229 362 226 304H521L510 246H227Q232 147 277 99T411 50Q460 50 517 60T605 85L590 24Z" />
<glyph unicode="&#x2122;" glyph-name="trademark" horiz-adv-x="838" d="M239 306V651H114V707H422V651H297V306H239ZM815 306L799 600L690 385H648L543 599L529 306H470L489 707H555L672 467L788 707H854L872 306H815Z" />
<glyph unicode="&#x2212;" glyph-name="minus" horiz-adv-x="596" d="M143 322L154 385H562L551 322H143Z" />
<glyph unicode="&#xfb00;" glyph-name="f_f" horiz-adv-x="610" d="M408 0L487 454H250L171 0H105L184 454H98L108 510H194L201 550Q235 738 402 738Q434 738 465 730L467 672Q435 680 399 680Q356 680 330 666T289 623T266 547L260 510H497L505 555Q538 743 703
743Q737 743 768 735L770 677Q738 685 703 685Q644 685 614 655T570 552L563 510H704L694 454H553L474 0H408Z" />
<glyph unicode="&#xfb01;" glyph-name="fi" horiz-adv-x="560" d="M409 0L488 454H250L171 0H105L184 454H98L108 510H194L202 555Q218 647 276 695T432 743Q469 743 494 739T555 722V664Q504 685 425 685Q372 685 341 672T293 629T267 552L260 510H564L475 0H409Z" />
<glyph unicode="&#xfb02;" glyph-name="fl" horiz-adv-x="560" d="M409 0L488 454H250L171 0H105L184 454H98L108 510H194L202 555Q235 743 400 743Q434 743 465 735L467 677Q435 685 400 685Q341 685 311 655T267 552L260 510H498L538 737H604L475 0H409Z" />
<glyph unicode="&#xfb03;" glyph-name="f_f_i" horiz-adv-x="863" d="M712 0L791 454H553L474 0H408L487 454H250L171 0H105L184 454H98L108 510H194L201 550Q235 738 402 738Q434 738 465 730L467 672Q435 680 399 680Q356 680 330 666T289 623T266 547L260 510H497L505
555Q521 647 579 695T735 743Q772 743 797 739T858 722V664Q807 685 728 685Q675 685 644 672T596 629T570 552L563 510H867L778 0H712Z" />
<glyph unicode="&#xfb04;" glyph-name="f_f_l" horiz-adv-x="863" d="M712 0L791 454H553L474 0H408L487 454H250L171 0H105L184 454H98L108 510H194L201 550Q235 738 402 738Q434 738 465 730L467 672Q435 680 399 680Q356 680 330 666T289 623T266 547L260 510H497L505
555Q538 743 703 743Q737 743 768 735L770 677Q738 685 703 685Q644 685 614 655T570 552L563 510H801L841 737H907L778 0H712Z" />
</font>
</defs>
</svg>
