<?xml version="1.0" standalone="no"?> <!DOCTYPE svg PUBLIC "-//W3C//DTD SVG 1.0//EN" "http://www.w3.org/TR/2001/REC-SVG-20010904/DTD/svg10.dtd" > <svg xmlns="http://www.w3.org/2000/svg" width="100%" height="100%">
<defs >
<font id="PrecisionSans_W_BdIt" horiz-adv-x="552" ><font-face
    font-family="Precision Sans W"
    units-per-em="1000"
    panose-1="2 11 7 3 2 2 4 2 2 4"
    ascent="957"
    descent="-249"
    alphabetic="0" />
<missing-glyph horiz-adv-x="500" d="M50 0V750H450V0H50ZM400 700H100V50H400V700Z" />
<glyph unicode="&#x0;" glyph-name=".null" horiz-adv-x="0" />
<glyph unicode="&#x8;" glyph-name=".null" horiz-adv-x="0" />
<glyph unicode="&#x9;" glyph-name="CR" horiz-adv-x="209" />
<glyph unicode="&#xd;" glyph-name="CR" horiz-adv-x="209" />
<glyph unicode="&#x1d;" glyph-name=".null" horiz-adv-x="0" />
<glyph unicode=" " glyph-name="space" horiz-adv-x="209" />
<glyph unicode="!" glyph-name="exclam" horiz-adv-x="274" d="M111 226L187 719H343L247 226H111ZM231 80Q231 40 204 14T136 -12Q106 -12 88 6T69 53Q69 93 96 119T164 145Q194 145 212 127T231 80Z" />
<glyph unicode="&quot;" glyph-name="quotedbl" horiz-adv-x="450" d="M148 513L189 749H318L277 513H148ZM348 513L389 749H518L477 513H348Z" />
<glyph unicode="#" glyph-name="numbersign" horiz-adv-x="596" d="M328 19L373 190H264L219 19H98L143 190H51L68 297H171L204 422H111L129 529H232L277 700H398L353 529H462L507 700H628L583 529H675L658 422H555L522 297H615L597 190H494L449 19H328ZM434 422H325L292
297H401L434 422Z" />
<glyph unicode="$" glyph-name="dollar" horiz-adv-x="596" d="M239 -118L258 -12Q156 -9 72 22L67 156Q102 138 154 127T254 115Q321 115 363 142T406 212Q405 240 389 260T346 297T292 330Q219 374 191 414T163 510Q163 567 189 612T266 685T387 720L406 825H493L474
720Q533 716 601 693L594 568Q553 584 510 593T429 603Q376 603 346 585T316 531Q316 513 324 499T351 469T411 429Q487 383 514 357T553 300T565 234Q565 178 539 129T464 45T347 -2L326 -118H239Z" />
<glyph unicode="%" glyph-name="percent" horiz-adv-x="1043" d="M273 0L761 711H900L412 0H273ZM830 83Q856 83 875 103T906 163T918 245Q918 279 905 298T869 317Q843 317 824 297T793 237T781 155Q781 121 794 102T830 83ZM817 -12Q742 -12 701 32T659 152Q659
223 686 282T765 377T882 412Q957 412 998 368T1040 248Q1040 177 1013 118T934 23T817 -12ZM301 390Q327 390 346 410T377 470T389 552Q389 586 376 605T340 624Q314 624 295 604T264 544T252 462Q252 428 265 409T301 390ZM288 295Q213 295 172 339T130 459Q130
530 157 589T236 684T353 719Q428 719 469 675T511 555Q511 484 484 425T405 330T288 295Z" />
<glyph unicode="&amp;" glyph-name="ampersand" horiz-adv-x="735" d="M592 0L540 61Q458 -12 337 -12Q210 -12 143 42T76 197Q76 268 120 328T240 420Q218 454 208 485T198 550Q198 635 251 683T395 731Q482 731 539 704L544 596Q489 626 436 626Q343 626 343
550Q343 518 360 486T425 397L532 271Q544 330 544 404H670Q670 264 623 165L764 0H592ZM298 342Q264 318 246 284T227 209Q227 160 259 132T351 103Q423 103 465 147L298 342Z" />
<glyph unicode="&apos;" glyph-name="quotesingle" horiz-adv-x="250" d="M148 513L189 749H318L277 513H148Z" />
<glyph unicode="(" glyph-name="parenleft" horiz-adv-x="359" d="M163 -167Q141 -111 128 -29T114 134Q114 316 168 481T325 776H468Q365 634 312 472T259 136Q259 57 271 -31T302 -167H163Z" />
<glyph unicode=")" glyph-name="parenright" horiz-adv-x="359" d="M-5 -167Q98 -25 151 137T204 473Q204 552 192 640T161 776H300Q322 720 335 638T349 475Q349 293 295 128T138 -167H-5Z" />
<glyph unicode="*" glyph-name="asterisk" horiz-adv-x="485" d="M199 301L143 346L235 463L305 405L199 301ZM409 301L327 405L407 463L469 346L409 301ZM413 479L399 573L538 604L554 532L413 479ZM125 532L154 604L283 573L235 479L125 532ZM293 582L328 719H404L391
582H293Z" />
<glyph unicode="+" glyph-name="plus" horiz-adv-x="596" d="M401 293L370 116H250L281 293H123L144 414H302L333 591H453L422 414H580L559 293H401Z" />
<glyph unicode="," glyph-name="comma" horiz-adv-x="256" d="M13 -138Q43 -85 62 -27T96 119H226Q213 42 191 -16T127 -138H13Z" />
<glyph unicode="-" glyph-name="hyphen" horiz-adv-x="362" d="M86 215L107 336H372L351 215H86Z" />
<glyph unicode="." glyph-name="period" horiz-adv-x="256" d="M223 80Q223 40 196 14T128 -12Q98 -12 80 6T61 53Q61 93 88 119T156 145Q186 145 204 127T223 80Z" />
<glyph unicode="/" glyph-name="slash" horiz-adv-x="397" d="M3 0L372 719H514L145 0H3Z" />
<glyph unicode="0" glyph-name="zero" horiz-adv-x="596" d="M292 -12Q187 -12 133 51T79 236Q79 366 119 478T233 654T413 717Q518 717 572 654T626 469Q626 339 586 227T472 51T292 -12ZM310 111Q356 111 392 157T450 289T473 464Q473 533 455 563T395 594Q349
594 313 548T255 416T232 241Q232 172 250 142T310 111Z" />
<glyph unicode="1" glyph-name="one" horiz-adv-x="596" d="M243 0L336 524L207 477L172 586L483 712H512L386 0H243Z" />
<glyph unicode="2" glyph-name="two" horiz-adv-x="596" d="M35 0L33 25L254 248Q337 332 372 374T419 445T431 509Q431 594 334 594Q259 594 138 555L178 680Q241 702 285 710T375 719Q473 719 529 670T585 535Q585 482 567 437T508 342T396 222L294 124H546L524 0H35Z" />
<glyph unicode="3" glyph-name="three" horiz-adv-x="596" d="M88 140Q130 125 163 119T235 113Q311 113 359 148T408 245Q408 291 376 314T280 338Q240 338 197 326L190 341L396 583H161L183 707H621L628 690L407 422Q478 412 519 366T560 249Q560 130 480 59T267
-12Q163 -12 80 19L88 140Z" />
<glyph unicode="4" glyph-name="four" horiz-adv-x="596" d="M361 0L386 136H51L45 150L402 726L518 679L256 257H408L441 412H575L546 257H618L596 136H524L499 0H361Z" />
<glyph unicode="5" glyph-name="five" horiz-adv-x="596" d="M91 140Q162 113 242 113Q324 113 370 146T416 240Q416 334 300 334Q231 334 164 313L152 326L233 707H610L589 587H343L314 449Q338 452 376 452Q434 452 478 429T545 363T568 256Q568 177 532 116T427
22T263 -12Q166 -12 83 19L91 140Z" />
<glyph unicode="6" glyph-name="six" horiz-adv-x="596" d="M627 614Q517 614 421 561T276 421Q333 464 420 464Q500 464 550 416T600 289Q600 210 565 142T465 31T322 -12Q97 -12 97 217Q97 312 132 400T234 560T394 675T593 719L627 614ZM317 104Q351 104 381
125T431 185T451 269Q451 310 428 331T362 352Q308 352 273 307T237 194Q237 152 258 128T317 104Z" />
<glyph unicode="7" glyph-name="seven" horiz-adv-x="596" d="M116 41L429 583H151L172 707H648L651 695L247 -19L116 41Z" />
<glyph unicode="8" glyph-name="eight" horiz-adv-x="596" d="M490 377Q535 359 561 319T588 230Q588 161 553 106T451 20T296 -12Q193 -12 137 34T81 166Q81 239 126 301T239 384Q208 401 189 434T170 505Q170 565 202 613T293 690T429 719Q520 719 569 678T619
562Q619 504 583 453T490 377ZM318 99Q377 99 411 135T445 234Q445 276 422 299T356 322Q300 322 264 282T228 178Q228 99 318 99ZM376 430Q423 430 452 461T482 541Q482 575 463 593T408 612Q360 612 331 583T302 507Q302 472 322 451T376 430Z" />
<glyph unicode="9" glyph-name="nine" horiz-adv-x="596" d="M89 93Q176 102 249 131T373 208T447 315Q419 281 375 262T278 243Q202 243 157 293T111 427Q111 486 130 538T187 631T278 695T395 719Q499 719 557 662T615 501Q615 399 582 309T484 149T327 36T123
-12L89 93ZM341 355Q397 355 435 399T474 511Q474 555 453 579T392 603Q333 603 297 557T260 438Q260 355 341 355Z" />
<glyph unicode=":" glyph-name="colon" horiz-adv-x="256" d="M223 80Q223 40 196 14T128 -12Q98 -12 80 6T61 53Q61 93 88 119T156 145Q186 145 204 127T223 80ZM288 434Q288 394 261 368T193 342Q163 342 145 360T126 407Q126 447 153 473T221 499Q251 499 269
481T288 434Z" />
<glyph unicode=";" glyph-name="semicolon" horiz-adv-x="256" d="M13 -138Q43 -85 62 -27T96 119H226Q213 42 191 -16T127 -138H13ZM289 435Q289 395 262 369T194 343Q164 343 146 361T127 408Q127 448 154 474T222 500Q252 500 270 482T289 435Z" />
<glyph unicode="&lt;" glyph-name="less" horiz-adv-x="596" d="M119 268L144 411L602 579L579 446L253 335L541 221L519 99L119 268Z" />
<glyph unicode="=" glyph-name="equal" horiz-adv-x="596" d="M111 185L132 306H568L547 185H111ZM147 390L168 511H604L583 390H147Z" />
<glyph unicode="&gt;" glyph-name="greater" horiz-adv-x="596" d="M98 99L121 232L447 343L159 457L181 579L581 410L556 267L98 99Z" />
<glyph unicode="?" glyph-name="question" horiz-adv-x="464" d="M181 226L211 398Q282 409 327 446T372 536Q372 602 272 602Q211 602 146 582L173 698Q244 722 319 722Q412 722 467 678T522 558Q522 506 499 460T430 377T327 317L311 226H181ZM297 80Q297 40
270 14T202 -12Q172 -12 154 6T135 53Q135 93 162 119T230 145Q260 145 278 127T297 80Z" />
<glyph unicode="@" glyph-name="at" horiz-adv-x="1013" d="M638 413Q624 418 600 418Q561 418 529 396T478 334T458 242Q458 196 476 175T534 154Q568 154 595 165L638 413ZM704 -112Q670 -129 613 -139T491 -150Q369 -150 280 -106T142 22T93 223Q93 367 161
481T355 662T646 729Q825 729 923 641T1022 391Q1022 294 987 218T885 97T731 52Q697 52 673 60T626 89Q591 69 558 60T486 51Q407 51 366 94T325 223Q325 306 362 374T466 484T620 525Q657 525 701 518T780 498L716 159Q726 151 749 151Q789 151 823 181T878 268T899
396Q899 508 834 563T638 618Q511 618 416 571T269 435T216 222Q216 -39 512 -39Q645 -39 713 -12L704 -112Z" />
<glyph unicode="A" glyph-name="A" horiz-adv-x="632" d="M467 0L454 144H235L171 0H24L360 719H527L615 0H467ZM420 570L289 265H443L420 570Z" />
<glyph unicode="B" glyph-name="B" horiz-adv-x="581" d="M203 719Q269 731 353 731Q481 731 544 689T607 560Q607 519 590 482T540 419T467 384Q522 371 556 328T590 228Q590 112 500 50T242 -12Q168 -12 76 0L203 719ZM277 325L239 107Q254 103 285 103Q358
103 400 139T443 237Q443 325 334 325H277ZM335 432Q394 432 428 461T463 540Q463 579 440 597T366 616Q343 616 329 613L297 432H335Z" />
<glyph unicode="C" glyph-name="C" horiz-adv-x="570" d="M542 19Q458 -12 363 -12Q235 -12 165 64T95 280Q95 411 142 513T279 673T486 731Q573 731 643 700L625 568Q594 585 556 595T484 605Q415 605 363 566T281 453T251 280Q251 114 394 114Q433 114 483 122T572
143L542 19Z" />
<glyph unicode="D" glyph-name="D" horiz-adv-x="681" d="M202 719Q295 731 373 731Q529 731 617 653T705 438Q705 304 651 203T492 45T246 -12Q167 -12 76 0L202 719ZM243 117Q261 114 293 114Q366 114 424 152T515 260T549 424Q549 509 506 557T386 605Q362
605 329 602L243 117Z" />
<glyph unicode="E" glyph-name="E" horiz-adv-x="525" d="M76 0L203 719H603L581 593H328L298 423H502L480 297H275L245 126H507L485 0H76Z" />
<glyph unicode="F" glyph-name="F" horiz-adv-x="495" d="M76 0L203 719H589L567 593H328L298 423H513L491 297H275L223 0H76Z" />
<glyph unicode="G" glyph-name="G" horiz-adv-x="642" d="M500 331H647L593 19Q550 5 488 -3T363 -12Q235 -12 165 63T95 278Q95 410 142 512T278 673T486 731Q578 731 668 703L650 573Q615 587 572 596T493 605Q418 605 364 567T280 455T251 277Q251 194 288
154T403 114Q439 114 464 119L500 331Z" />
<glyph unicode="H" glyph-name="H" horiz-adv-x="672" d="M449 0L503 306H277L223 0H76L203 719H350L299 432H525L576 719H723L596 0H449Z" />
<glyph unicode="I" glyph-name="I" horiz-adv-x="299" d="M76 0L203 719H350L223 0H76Z" />
<glyph unicode="J" glyph-name="J" horiz-adv-x="411" d="M57 125Q71 122 91 118T132 114Q164 114 183 123T212 152T229 213L318 719H465L372 191Q354 88 297 38T141 -12Q91 -12 48 3L57 125Z" />
<glyph unicode="K" glyph-name="K" horiz-adv-x="593" d="M444 0L292 362L546 719H708L442 362L606 0H444ZM76 0L203 719H350L223 0H76Z" />
<glyph unicode="L" glyph-name="L" horiz-adv-x="498" d="M76 0L203 719H350L245 126H499L477 0H76Z" />
<glyph unicode="M" glyph-name="M" horiz-adv-x="807" d="M607 0L679 497L478 139H374L302 497L192 0H59L230 719H381L461 324L689 719H841L746 0H607Z" />
<glyph unicode="N" glyph-name="N" horiz-adv-x="661" d="M465 0L286 457L205 0H76L203 719H323L502 262L583 719H712L585 0H465Z" />
<glyph unicode="O" glyph-name="O" horiz-adv-x="690" d="M356 114Q411 114 458 158T533 284T562 467Q562 605 453 605Q398 605 351 561T276 435T247 252Q247 114 356 114ZM343 -12Q223 -12 159 57T95 257Q95 388 141 495T272 667T466 731Q586 731 650 662T714
462Q714 331 668 224T537 52T343 -12Z" />
<glyph unicode="P" glyph-name="P" horiz-adv-x="573" d="M284 355Q296 352 329 352Q393 352 432 396T472 513Q472 562 445 589T367 616Q341 616 330 614L284 355ZM76 0L203 719Q274 731 359 731Q486 731 555 677T625 523Q625 439 587 375T477 274T309 237Q285
237 264 240L222 0H76Z" />
<glyph unicode="Q" glyph-name="Q" horiz-adv-x="690" d="M320 -11Q210 -4 153 65T95 257Q95 388 141 495T272 667T466 731Q586 731 650 662T714 462Q714 377 693 299T630 157T533 55L693 35L643 -77L320 -11ZM356 114Q411 114 458 158T533 284T562 467Q562 605
453 605Q398 605 351 561T276 435T247 252Q247 114 356 114Z" />
<glyph unicode="R" glyph-name="R" horiz-adv-x="586" d="M434 0L295 361H312Q382 361 427 402T472 508Q472 558 443 587T364 616Q357 616 331 614L223 0H76L203 718Q275 731 352 731Q482 731 551 678T620 525Q620 479 601 434T546 354T466 301L588 0H434Z" />
<glyph unicode="S" glyph-name="S" horiz-adv-x="527" d="M62 157Q133 112 230 112Q296 112 335 142T375 222Q375 244 366 258T336 288T272 329Q197 373 165 416T133 518Q133 615 206 673T402 731Q481 731 574 702L567 576Q529 592 484 601T401 611Q345 611 316
592T286 537Q286 509 305 487T373 437Q440 399 473 369T520 305T534 225Q534 157 497 104T388 19T223 -12Q174 -12 134 -4T49 24L62 157Z" />
<glyph unicode="T" glyph-name="T" horiz-adv-x="539" d="M193 0L298 593H119L141 719H646L624 593H445L340 0H193Z" />
<glyph unicode="U" glyph-name="U" horiz-adv-x="663" d="M570 719H717L646 315Q624 190 586 120T486 19T330 -12Q219 -12 167 39T115 201Q115 249 126 315L197 719H343L278 346Q263 255 263 218Q263 163 283 139T349 114Q397 114 425 136T471 208T504 346L570 719Z" />
<glyph unicode="V" glyph-name="V" horiz-adv-x="612" d="M217 0L127 719H281L327 152L574 719H727L386 0H217Z" />
<glyph unicode="W" glyph-name="W" horiz-adv-x="900" d="M551 0L534 479L342 0H185L133 719H285L303 178L510 719H652L672 178L859 719H1013L716 0H551Z" />
<glyph unicode="X" glyph-name="X" horiz-adv-x="622" d="M461 0L375 373L548 719H706L521 379L618 0H461ZM23 0L223 371L158 719H309L368 373L187 0H23Z" />
<glyph unicode="Y" glyph-name="Y" horiz-adv-x="553" d="M200 0L245 257L114 719H268L346 393L530 719H685L392 257L347 0H200Z" />
<glyph unicode="Z" glyph-name="Z" horiz-adv-x="537" d="M24 0L18 12L415 593H145L167 719H645L651 707L254 126H528L506 0H24Z" />
<glyph unicode="[" glyph-name="bracketleft" horiz-adv-x="342" d="M43 -168L209 774H447L426 660H326L201 -54H301L280 -168H43Z" />
<glyph unicode="\" glyph-name="backslash" horiz-adv-x="486" d="M353 0L110 719H252L495 0H353Z" />
<glyph unicode="]" glyph-name="bracketright" horiz-adv-x="342" d="M3 -168L24 -54H124L249 660H149L170 774H407L241 -168H3Z" />
<glyph unicode="^" glyph-name="asciicircum" horiz-adv-x="596" d="M434 362L388 579L262 362H129L341 719H476L562 362H434Z" />
<glyph unicode="_" glyph-name="underscore" horiz-adv-x="500" d="M-10 -145L10 -24H510L490 -145H-10Z" />
<glyph unicode="`" glyph-name="grave" horiz-adv-x="578" d="M273 593L161 722H331L400 593H273Z" />
<glyph unicode="a" glyph-name="a" horiz-adv-x="551" d="M379 0L376 72Q346 31 305 10T216 -12Q149 -12 110 38T70 173Q70 270 112 351T231 480T407 529Q496 529 571 501L522 224Q505 122 505 0H379ZM418 408Q403 413 385 413Q341 413 303 385T240 305T216 190Q216
147 230 125T273 102Q299 102 326 120T376 171L418 408Z" />
<glyph unicode="b" glyph-name="b" horiz-adv-x="557" d="M194 737H334L295 518Q337 529 378 529Q466 529 517 473T568 319Q568 219 528 145T410 29T227 -12Q151 -12 67 18L194 737ZM223 111Q239 104 270 104Q340 105 381 159T422 306Q422 413 326 413Q306 413
275 406L223 111Z" />
<glyph unicode="c" glyph-name="c" horiz-adv-x="451" d="M423 13Q362 -12 280 -12Q178 -12 125 41T71 196Q71 286 108 361T213 483T366 529Q436 529 493 503L483 392Q424 413 370 413Q301 413 259 357T217 209Q217 159 245 132T323 104Q383 104 455 124L423 13Z" />
<glyph unicode="d" glyph-name="d" horiz-adv-x="559" d="M477 737H617L491 20Q451 6 391 -3T280 -12Q183 -12 127 47T71 208Q71 298 108 371T213 486T370 529Q399 529 439 521L477 737ZM421 407Q406 413 371 413Q297 413 257 361T217 212Q217 104 317 104Q346
104 368 109L421 407Z" />
<glyph unicode="e" glyph-name="e" horiz-adv-x="495" d="M267 298Q328 308 359 329T391 382Q391 401 379 413T345 425Q301 425 266 389T215 290L267 298ZM447 18Q374 -12 280 -12Q180 -12 126 43T71 200Q71 287 109 361T216 482T370 529Q444 529 485 495T526
400Q526 325 462 276T277 207L210 196Q222 101 310 101Q344 101 390 108T473 126L447 18Z" />
<glyph unicode="f" glyph-name="f" horiz-adv-x="367" d="M93 0L165 410H83L102 518H184L189 543Q208 640 267 691T419 743Q459 743 499 731L503 624Q456 631 430 631Q385 631 361 609T328 540L324 518H444L425 410H305L233 0H93Z" />
<glyph unicode="g" glyph-name="g" horiz-adv-x="555" d="M353 55Q296 0 217 0Q152 0 112 49T71 178Q71 275 109 354T219 481T381 529Q437 529 481 523T572 501L483 -4Q463 -120 387 -184T192 -249Q128 -249 85 -238T6 -203L20 -96Q78 -120 114 -128T196 -137Q255
-137 293 -107T339 -24L353 55ZM419 407Q406 413 368 413Q327 413 293 386T238 310T217 199Q217 159 232 137T274 114Q300 114 328 132T379 183L419 407Z" />
<glyph unicode="h" glyph-name="h" horiz-adv-x="578" d="M373 0L421 273Q426 305 426 326Q426 370 405 390T336 410Q311 410 275 401L204 0H64L193 737H333L294 516Q339 529 387 529Q481 529 527 491T574 374Q574 342 569 316L513 0H373Z" />
<glyph unicode="i" glyph-name="i" horiz-adv-x="273" d="M64 0L155 518H295L204 0H64ZM329 678Q329 639 303 614T237 588Q207 588 189 606T171 652Q171 691 197 716T264 742Q293 742 311 725T329 678Z" />
<glyph unicode="j" glyph-name="j" horiz-adv-x="273" d="M329 678Q329 639 303 614T237 588Q207 588 189 606T171 652Q171 691 197 716T264 742Q293 742 311 725T329 678ZM-114 -128Q-53 -137 -33 -137Q39 -137 56 -46L155 518H295L192 -68Q159 -249 -21 -249Q-80
-249 -123 -232L-114 -128Z" />
<glyph unicode="k" glyph-name="k" horiz-adv-x="513" d="M373 0L256 271L459 518H611L399 272L520 0H373ZM64 0L193 737H333L204 0H64Z" />
<glyph unicode="l" glyph-name="l" horiz-adv-x="273" d="M64 0L193 737H333L204 0H64Z" />
<glyph unicode="m" glyph-name="m" horiz-adv-x="865" d="M660 0L708 273Q713 301 713 326Q713 369 693 389T630 410Q590 410 560 400Q563 381 563 363Q563 346 558 316L502 0H362L410 273Q415 301 415 326Q415 369 395 389T332 410Q309 410 275 401L204 0H64L149
484Q221 508 274 518T382 529Q469 529 517 486Q609 529 683 529Q771 529 816 490T861 374Q861 346 856 316L800 0H660Z" />
<glyph unicode="n" glyph-name="n" horiz-adv-x="578" d="M373 0L421 273Q426 305 426 326Q426 370 405 390T336 410Q311 410 275 401L204 0H64L149 484Q218 508 274 518T387 529Q481 529 527 491T574 374Q574 342 569 316L513 0H373Z" />
<glyph unicode="o" glyph-name="o" horiz-adv-x="564" d="M278 -12Q177 -12 124 40T71 193Q71 285 108 361T213 483T368 529Q469 529 522 477T575 324Q575 232 538 156T433 34T278 -12ZM291 104Q329 104 360 132T411 212T430 326Q430 371 413 392T355 413Q317
413 286 385T235 305T216 191Q216 146 233 125T291 104Z" />
<glyph unicode="p" glyph-name="p" horiz-adv-x="557" d="M22 -238L152 498Q192 512 247 520T358 529Q458 529 513 474T568 319Q568 231 534 156T436 34T294 -12Q251 -12 204 2L162 -238H22ZM223 111Q239 104 270 104Q340 105 381 159T422 306Q422 413 326 413Q306
413 275 406L223 111Z" />
<glyph unicode="q" glyph-name="q" horiz-adv-x="553" d="M302 -238L351 42Q296 -12 217 -12Q150 -12 111 38T71 173Q71 271 110 351T220 480T384 529Q435 529 478 523T572 502L442 -238H302ZM419 407Q404 413 368 413Q304 413 261 349T217 190Q217 147 231 125T274
102Q300 102 327 120T377 171L419 407Z" />
<glyph unicode="r" glyph-name="r" horiz-adv-x="381" d="M64 0L150 489Q205 511 248 520T342 529Q395 529 442 519L434 400Q382 408 338 408Q315 408 275 404L204 0H64Z" />
<glyph unicode="s" glyph-name="s" horiz-adv-x="442" d="M60 137Q130 98 204 98Q242 98 266 115T291 160Q291 179 276 193T219 224Q163 248 139 278T114 353Q114 404 140 443T216 506T331 529Q371 529 408 521T473 497L461 390Q413 410 384 417T320 424Q289 424
272 412T254 379Q254 357 267 344T320 313Q380 286 406 255T433 180Q433 93 368 41T196 -12Q153 -12 113 -2T47 27L60 137Z" />
<glyph unicode="t" glyph-name="t" horiz-adv-x="372" d="M362 6Q342 -2 308 -7T243 -12Q178 -12 143 24T108 130Q108 157 114 190L153 410H71L90 518H172L197 658H337L312 518H421L402 410H293L257 206Q253 180 253 165Q253 131 269 116T322 100Q343 100 393 110L362 6Z" />
<glyph unicode="u" glyph-name="u" horiz-adv-x="569" d="M452 518H592L503 18Q406 -12 303 -12Q193 -12 142 28T91 158Q91 188 99 239L148 518H288L240 243Q234 212 234 188Q234 144 255 125T327 105Q354 105 381 110L452 518Z" />
<glyph unicode="v" glyph-name="v" horiz-adv-x="523" d="M179 0L88 518H240L279 142L460 518H610L325 0H179Z" />
<glyph unicode="w" glyph-name="w" horiz-adv-x="802" d="M476 0L446 329L306 0H153L100 518H247L260 135L410 518H555L581 135L728 518H870L631 0H476Z" />
<glyph unicode="x" glyph-name="x" horiz-adv-x="531" d="M12 0L181 262L121 518H269L314 259L162 0H12ZM388 0L318 259L450 518H602L451 262L531 0H388Z" />
<glyph unicode="y" glyph-name="y" horiz-adv-x="519" d="M47 -238L180 0L86 518H238L277 142L458 518H608L188 -238H47Z" />
<glyph unicode="z" glyph-name="z" horiz-adv-x="465" d="M22 0L17 12L312 409H110L129 518H525L530 506L235 109H453L434 0H22Z" />
<glyph unicode="{" glyph-name="braceleft" horiz-adv-x="377" d="M323 -166Q304 -168 285 -168Q203 -168 164 -134T125 -26Q125 12 132 51Q143 112 147 141T152 188Q152 224 138 253T91 313Q150 348 175 384T210 483L224 570Q242 680 294 731T440 782Q463 782
490 779L470 670Q466 671 452 671Q418 671 401 660T372 621T352 543Q337 460 322 415T287 345T234 305Q263 289 275 264T288 194Q288 178 284 153T274 100T265 44T260 -3Q260 -32 275 -44T328 -57H342L323 -166Z" />
<glyph unicode="|" glyph-name="bar" horiz-adv-x="330" d="M66 -168L233 776H370L203 -168H66Z" />
<glyph unicode="}" glyph-name="braceright" horiz-adv-x="377" d="M22 -56Q26 -57 40 -57Q74 -57 91 -46T120 -7T140 71Q155 154 170 199T205 269T258 309Q229 325 217 350T204 420Q204 436 208 461T218 514T227 570T232 617Q232 646 217 658T164 671H150L169
780Q188 782 207 782Q289 782 328 748T367 640Q367 602 360 563Q349 502 345 473T340 426Q340 390 354 361T401 301Q342 266 317 230T282 131L268 44Q250 -66 198 -117T52 -168Q29 -168 2 -165L22 -56Z" />
<glyph unicode="~" glyph-name="asciitilde" horiz-adv-x="596" d="M584 456Q584 429 577 392Q565 325 529 288T438 250Q412 250 388 259T335 291Q310 311 297 317T274 323Q261 323 253 308T240 250H119Q119 277 126 314Q138 381 174 418T265 456Q316 456 367
416Q393 396 406 390T429 383Q442 383 450 398T463 456H584Z" />
<glyph unicode="&#xa0;" glyph-name="uni00A0" horiz-adv-x="209" />
<glyph unicode="&#xa1;" glyph-name="exclamdown" horiz-adv-x="274" d="M25 -208L121 285H257L181 -208H25ZM299 458Q299 418 272 392T204 366Q174 366 156 384T137 431Q137 471 164 497T232 523Q262 523 280 505T299 458Z" />
<glyph unicode="&#xa2;" glyph-name="cent" horiz-adv-x="596" d="M271 -118L290 -8Q213 4 173 56T133 196Q133 253 150 309T200 410T279 486T384 525L404 638H491L471 526Q513 522 555 503L545 392Q484 413 432 413Q386 413 352 388T299 316T279 209Q279 158
306 131T385 104Q448 104 517 124L485 13Q440 -5 377 -10L358 -118H271Z" />
<glyph unicode="&#xa3;" glyph-name="sterling" horiz-adv-x="596" d="M73 0L72 14Q136 61 173 133T215 288H115L134 396H209Q207 407 207 447Q207 574 277 646T473 719Q560 719 627 691L614 575Q563 590 534 595T468 600Q347 600 347 453Q347 419 350 396H526L508
288H355Q351 209 301 126H557L535 0H73Z" />
<glyph unicode="&#xa4;" glyph-name="currency" horiz-adv-x="596" d="M357 244Q400 244 429 274T459 351Q459 397 430 427T357 458Q314 458 285 428T255 351Q255 305 284 275T357 244ZM551 83L469 165Q417 134 357 134Q297 134 245 165L163 83L82 160L167 246Q140
295 140 351Q140 407 167 456L82 542L163 619L245 537Q297 568 357 568Q417 568 469 537L551 619L632 542L547 456Q574 407 574 351Q574 295 547 246L632 160L551 83Z" />
<glyph unicode="&#xa5;" glyph-name="yen" horiz-adv-x="596" d="M393 146L367 0H222L248 146H86L101 230H262L277 312H115L130 396H265L144 707H288L375 428L544 707H697L484 396H618L603 312H422L407 230H589L574 146H393Z" />
<glyph unicode="&#xa6;" glyph-name="brokenbar" horiz-adv-x="330" d="M174 444L233 776H370L311 444H174ZM66 -168L125 164H262L203 -168H66Z" />
<glyph unicode="&#xa7;" glyph-name="section" horiz-adv-x="576" d="M298 426Q254 393 254 356Q254 340 264 330T298 313L396 283Q421 304 432 320T443 352Q443 384 389 400L298 426ZM220 221Q173 237 153 262T132 331Q132 366 151 398T214 472Q194 496 194 534Q194
585 223 627T306 694T429 719Q512 719 584 691L572 587Q552 597 506 605T423 613Q380 613 357 599T333 560Q333 545 343 537T378 520L480 487Q526 472 546 448T566 382Q566 300 484 231Q505 207 505 170Q505 120 473 79T383 13T250 -12Q147 -12 76 16L87 120Q107
110 155 102T245 94Q304 94 335 108T366 151Q366 164 357 171T321 187L220 221Z" />
<glyph unicode="&#xa8;" glyph-name="dieresis" horiz-adv-x="578" d="M247 669Q247 635 224 613T166 590Q140 590 125 605T109 646Q109 680 132 702T190 725Q216 725 231 710T247 669ZM461 669Q461 635 438 613T380 590Q354 590 339 605T323 646Q323 680 346
702T404 725Q430 725 445 710T461 669Z" />
<glyph unicode="&#xa9;" glyph-name="copyright" horiz-adv-x="818" d="M590 173Q544 155 491 155Q396 155 343 210T289 360Q289 455 342 511T488 567Q537 567 585 548L589 460Q573 466 547 469T499 473Q399 473 399 360Q399 303 424 276T502 249Q556 249 589
263L590 173ZM466 61Q549 61 615 97T719 201T757 359Q757 444 722 511T620 618T466 657Q383 657 317 621T213 517T175 359Q175 274 210 207T312 100T466 61ZM466 -13Q362 -13 278 33T145 164T95 359Q95 463 141 547T272 681T466 731Q570 731 654 685T787 554T837
359Q837 255 791 171T660 37T466 -13Z" />
<glyph unicode="&#xaa;" glyph-name="ordfeminine" horiz-adv-x="493" d="M374 302L371 358Q347 327 314 311T240 295Q186 295 155 333T124 437Q124 514 157 578T252 680T391 719Q428 719 465 713T528 696L490 477Q476 393 476 302H374ZM404 623Q388 627 377 627Q342
627 312 604T263 540T244 450Q244 386 289 386Q310 386 332 399T371 436L404 623Z" />
<glyph unicode="&#xab;" glyph-name="guillemotleft" horiz-adv-x="642" d="M214 46L83 269L293 488H448L235 260L360 46H214ZM481 46L350 269L560 488H715L502 260L627 46H481Z" />
<glyph unicode="&#xac;" glyph-name="logicalnot" horiz-adv-x="596" d="M401 92L437 293H123L144 414H581L524 92H401Z" />
<glyph unicode="&#xad;" glyph-name="uni00AD" horiz-adv-x="362" d="M86 215L107 336H372L351 215H86Z" />
<glyph unicode="&#xae;" glyph-name="registered" horiz-adv-x="818" d="M544 172L430 361H441Q472 361 491 381T510 433Q510 488 444 488Q437 488 433 488T426 487V172H331V554Q410 561 444 561Q524 561 567 528T610 435Q610 399 593 371T543 329L644 172H544ZM466
61Q549 61 615 97T719 201T757 359Q757 444 722 511T620 618T466 657Q383 657 317 621T213 517T175 359Q175 274 210 207T312 100T466 61ZM466 -13Q362 -13 278 33T145 164T95 359Q95 463 141 547T272 681T466 731Q570 731 654 685T787 554T837 359Q837 255 791
171T660 37T466 -13Z" />
<glyph unicode="&#xaf;" glyph-name="macron" horiz-adv-x="578" d="M140 607L157 708H431L414 607H140Z" />
<glyph unicode="&#xb0;" glyph-name="degree" horiz-adv-x="371" d="M408 576Q408 510 366 468T256 426Q189 426 147 468T104 576Q104 642 146 684T256 726Q323 726 365 684T408 576ZM256 510Q287 510 303 527T320 576Q320 608 304 625T256 642Q225 642 209 625T192
576Q192 544 208 527T256 510Z" />
<glyph unicode="&#xb1;" glyph-name="plusminus" horiz-adv-x="596" d="M404 363L373 186H253L284 363H126L147 484H305L336 661H456L425 484H583L562 363H404ZM63 0L84 121H520L499 0H63Z" />
<glyph unicode="&#xb2;" glyph-name="twosuperior" horiz-adv-x="446" d="M99 307L95 325L248 470Q285 506 298 522T317 552T323 578Q323 625 256 625Q218 625 158 610L186 699Q241 719 306 719Q370 719 407 688T445 603Q445 559 421 518T335 423L307 399H429L412
307H99Z" />
<glyph unicode="&#xb3;" glyph-name="threesuperior" horiz-adv-x="446" d="M141 401Q173 390 196 386T246 382Q283 382 305 398T327 443Q327 462 311 473T266 485Q243 485 224 479L212 496L323 619H178L194 711H468L475 690L349 544Q387 541 413 515T439 449Q439
405 416 370T349 315T248 295Q172 295 131 314L141 401Z" />
<glyph unicode="&#xb4;" glyph-name="acute" horiz-adv-x="578" d="M152 593L257 722H400L279 593H152Z" />
<glyph unicode="&#xb5;" glyph-name="mu" horiz-adv-x="596" d="M33 -238L167 518H307L259 243Q253 210 253 187Q253 143 274 124T346 105Q377 105 400 113L471 518H611L529 55Q492 25 437 7T329 -12Q264 -12 218 17L173 -238H33Z" />
<glyph unicode="&#xb6;" glyph-name="paragraph" horiz-adv-x="602" d="M281 0L336 313H325Q232 313 182 353T131 468Q131 594 221 656T498 719L371 0H281ZM436 0L563 719H653L526 0H436Z" />
<glyph unicode="&#xb7;" glyph-name="periodcentered" horiz-adv-x="256" d="M246 279Q246 239 219 213T151 187Q121 187 103 205T84 252Q84 292 111 318T179 344Q209 344 227 326T246 279Z" />
<glyph unicode="&#xb8;" glyph-name="cedilla" horiz-adv-x="578" d="M166 -162Q202 -175 238 -175Q269 -175 286 -166T303 -138Q303 -126 291 -119T257 -112Q226 -112 198 -119L192 -112L266 24H337L294 -53Q299 -52 313 -52Q353 -52 375 -73T398 -132Q398 -187
356 -216T239 -246Q218 -246 200 -242T166 -233V-162Z" />
<glyph unicode="&#xb9;" glyph-name="onesuperior" horiz-adv-x="446" d="M216 307L263 576L182 548L154 633L371 711H396L325 307H216Z" />
<glyph unicode="&#xba;" glyph-name="ordmasculine" horiz-adv-x="493" d="M286 294Q206 294 165 335T124 456Q124 527 153 588T234 684T359 719Q439 719 480 678T521 557Q521 486 492 425T411 329T286 294ZM298 394Q327 394 349 414T385 474T399 557Q399 587
386 603T347 619Q318 619 296 599T260 539T246 456Q246 426 259 410T298 394Z" />
<glyph unicode="&#xbb;" glyph-name="guillemotright" horiz-adv-x="642" d="M28 46L241 274L116 488H262L393 265L183 46H28ZM295 46L508 274L383 488H529L660 265L450 46H295Z" />
<glyph unicode="&#xbc;" glyph-name="onequarter" horiz-adv-x="1043" d="M252 0L740 711H879L391 0H252ZM820 0L833 73H625L617 91L829 412L907 369L765 155H848L865 231H956L943 155H989L974 73H928L915 0H820ZM216 307L263 576L182 548L154 633L371 711H396L325
307H216Z" />
<glyph unicode="&#xbd;" glyph-name="onehalf" horiz-adv-x="1043" d="M253 0L741 711H880L392 0H253ZM678 0L674 18L827 163Q864 199 877 215T896 245T902 271Q902 318 835 318Q797 318 737 303L765 392Q820 412 885 412Q949 412 986 381T1024 296Q1024 252 1000
211T914 116L886 92H1008L991 0H678ZM216 307L263 576L182 548L154 633L371 711H396L325 307H216Z" />
<glyph unicode="&#xbe;" glyph-name="threequarters" horiz-adv-x="1043" d="M265 0L753 711H892L404 0H265ZM820 0L833 73H625L617 91L829 412L907 369L765 155H848L865 231H956L943 155H989L974 73H928L915 0H820ZM141 401Q173 390 196 386T246 382Q283 382
305 398T327 443Q327 462 311 473T266 485Q243 485 224 479L212 496L323 619H178L194 711H468L475 690L349 544Q387 541 413 515T439 449Q439 405 416 370T349 315T248 295Q172 295 131 314L141 401Z" />
<glyph unicode="&#xbf;" glyph-name="questiondown" horiz-adv-x="464" d="M401 -187Q331 -211 255 -211Q162 -211 107 -167T52 -47Q52 5 75 51T144 134T247 194L263 285H393L363 113Q292 102 247 65T202 -25Q202 -91 302 -91Q363 -91 428 -71L401 -187ZM439 458Q439
418 412 392T344 366Q314 366 296 384T277 431Q277 471 304 497T372 523Q402 523 420 505T439 458Z" />
<glyph unicode="&#xc0;" glyph-name="Agrave" horiz-adv-x="632" d="M467 0L454 144H235L171 0H24L360 719H527L615 0H467ZM420 570L289 265H443L420 570ZM372 778L254 889H416L510 778H372Z" />
<glyph unicode="&#xc1;" glyph-name="Aacute" horiz-adv-x="632" d="M467 0L454 144H235L171 0H24L360 719H527L615 0H467ZM420 570L289 265H443L420 570ZM515 778H376L493 889H655L515 778Z" />
<glyph unicode="&#xc2;" glyph-name="Acircumflex" horiz-adv-x="632" d="M467 0L454 144H235L171 0H24L360 719H527L615 0H467ZM420 570L289 265H443L420 570ZM507 778L474 831L417 778H272L412 889H551L643 778H507Z" />
<glyph unicode="&#xc3;" glyph-name="Atilde" horiz-adv-x="632" d="M467 0L454 144H235L171 0H24L360 719H527L615 0H467ZM420 570L289 265H443L420 570ZM617 921Q617 903 613 875Q606 832 579 806T514 779Q500 779 485 783T443 802Q419 816 408 820T389 824Q363
824 363 779H279Q279 797 283 825Q290 868 317 894T382 921Q396 921 411 917T453 898Q477 884 488 880T507 876Q533 876 533 921H617Z" />
<glyph unicode="&#xc4;" glyph-name="Adieresis" horiz-adv-x="632" d="M467 0L454 144H235L171 0H24L360 719H527L615 0H467ZM420 570L289 265H443L420 570ZM412 848Q412 813 389 791T328 768Q302 768 286 784T270 825Q270 860 293 883T353 906Q380 906 396 891T412
848ZM632 848Q632 813 609 791T549 768Q522 768 506 783T490 825Q490 860 513 883T573 906Q599 906 615 890T632 848Z" />
<glyph unicode="&#xc5;" glyph-name="Aring" horiz-adv-x="632" d="M467 0L454 144H235L171 0H24L360 719H527L615 0H467ZM420 570L289 265H443L420 570ZM579 821Q579 767 538 728T437 688Q390 688 363 714T336 787Q336 841 377 880T478 920Q525 920 552 894T579
821ZM447 747Q472 747 489 769T506 821Q506 840 496 850T468 861Q443 861 426 839T409 787Q409 768 419 758T447 747Z" />
<glyph unicode="&#xc6;" glyph-name="AE" horiz-adv-x="911" d="M462 0L487 144H254L159 0H0L490 719H989L967 593H714L684 423H888L866 297H661L631 126H893L871 0H462ZM569 607H562L335 265H509L569 607Z" />
<glyph unicode="&#xc7;" glyph-name="Ccedilla" horiz-adv-x="570" d="M542 19Q458 -12 363 -12Q235 -12 165 64T95 280Q95 411 142 513T279 673T486 731Q573 731 643 700L625 568Q594 585 556 595T484 605Q415 605 363 566T281 453T251 280Q251 114 394 114Q433
114 483 122T572 143L542 19ZM255 -159Q290 -172 327 -172Q362 -172 382 -163T402 -138Q402 -128 387 -122T346 -115Q316 -115 290 -124L281 -112L355 24H428L388 -46H403Q445 -46 472 -70T500 -132Q500 -184 458 -215T345 -246Q299 -246 255 -233V-159Z" />
<glyph unicode="&#xc8;" glyph-name="Egrave" horiz-adv-x="525" d="M76 0L203 719H603L581 593H328L298 423H502L480 297H275L245 126H507L485 0H76ZM365 778L247 889H409L503 778H365Z" />
<glyph unicode="&#xc9;" glyph-name="Eacute" horiz-adv-x="525" d="M76 0L203 719H603L581 593H328L298 423H502L480 297H275L245 126H507L485 0H76ZM466 778H327L444 889H606L466 778Z" />
<glyph unicode="&#xca;" glyph-name="Ecircumflex" horiz-adv-x="525" d="M76 0L203 719H603L581 593H328L298 423H502L480 297H275L245 126H507L485 0H76ZM463 778L430 831L373 778H228L368 889H507L599 778H463Z" />
<glyph unicode="&#xcb;" glyph-name="Edieresis" horiz-adv-x="525" d="M76 0L203 719H603L581 593H328L298 423H502L480 297H275L245 126H507L485 0H76ZM381 848Q381 813 358 791T297 768Q271 768 255 784T239 825Q239 860 262 883T322 906Q349 906 365 891T381
848ZM601 848Q601 813 578 791T518 768Q491 768 475 783T459 825Q459 860 482 883T542 906Q568 906 584 890T601 848Z" />
<glyph unicode="&#xcc;" glyph-name="Igrave" horiz-adv-x="299" d="M76 0L203 719H350L223 0H76ZM214 778L96 889H258L352 778H214Z" />
<glyph unicode="&#xcd;" glyph-name="Iacute" horiz-adv-x="299" d="M76 0L203 719H350L223 0H76ZM356 778H217L334 889H496L356 778Z" />
<glyph unicode="&#xce;" glyph-name="Icircumflex" horiz-adv-x="299" d="M76 0L203 719H350L223 0H76ZM341 778L308 831L251 778H106L246 889H385L477 778H341Z" />
<glyph unicode="&#xcf;" glyph-name="Idieresis" horiz-adv-x="299" d="M76 0L203 719H350L223 0H76ZM259 848Q259 813 236 791T175 768Q149 768 133 784T117 825Q117 860 140 883T200 906Q227 906 243 891T259 848ZM479 848Q479 813 456 791T396 768Q369 768
353 783T337 825Q337 860 360 883T420 906Q446 906 462 890T479 848Z" />
<glyph unicode="&#xd0;" glyph-name="Eth" horiz-adv-x="692" d="M141 312H75L93 413H159L213 719Q304 731 384 731Q539 731 627 654T716 438Q716 303 662 202T503 45T257 -12Q213 -12 177 -10T87 0L141 312ZM288 312L254 117Q272 114 304 114Q377 114 435 152T526
260T560 424Q560 510 517 557T397 605Q369 605 340 602L306 413H447L429 312H288Z" />
<glyph unicode="&#xd1;" glyph-name="Ntilde" horiz-adv-x="661" d="M465 0L286 457L205 0H76L203 719H323L502 262L583 719H712L585 0H465ZM653 921Q653 903 649 875Q642 832 615 806T550 779Q536 779 521 783T479 802Q455 816 444 820T425 824Q399 824 399 779H315Q315
797 319 825Q326 868 353 894T418 921Q432 921 447 917T489 898Q513 884 524 880T543 876Q569 876 569 921H653Z" />
<glyph unicode="&#xd2;" glyph-name="Ograve" horiz-adv-x="690" d="M356 114Q411 114 458 158T533 284T562 467Q562 605 453 605Q398 605 351 561T276 435T247 252Q247 114 356 114ZM343 -12Q223 -12 159 57T95 257Q95 388 141 495T272 667T466 731Q586 731 650
662T714 462Q714 331 668 224T537 52T343 -12ZM436 778L318 889H480L574 778H436Z" />
<glyph unicode="&#xd3;" glyph-name="Oacute" horiz-adv-x="690" d="M356 114Q411 114 458 158T533 284T562 467Q562 605 453 605Q398 605 351 561T276 435T247 252Q247 114 356 114ZM343 -12Q223 -12 159 57T95 257Q95 388 141 495T272 667T466 731Q586 731 650
662T714 462Q714 331 668 224T537 52T343 -12ZM559 778H420L537 889H699L559 778Z" />
<glyph unicode="&#xd4;" glyph-name="Ocircumflex" horiz-adv-x="690" d="M356 114Q411 114 458 158T533 284T562 467Q562 605 453 605Q398 605 351 561T276 435T247 252Q247 114 356 114ZM343 -12Q223 -12 159 57T95 257Q95 388 141 495T272 667T466 731Q586
731 650 662T714 462Q714 331 668 224T537 52T343 -12ZM535 778L502 831L445 778H300L440 889H579L671 778H535Z" />
<glyph unicode="&#xd5;" glyph-name="Otilde" horiz-adv-x="690" d="M356 114Q411 114 458 158T533 284T562 467Q562 605 453 605Q398 605 351 561T276 435T247 252Q247 114 356 114ZM343 -12Q223 -12 159 57T95 257Q95 388 141 495T272 667T466 731Q586 731 650
662T714 462Q714 331 668 224T537 52T343 -12ZM681 921Q681 903 677 875Q670 832 643 806T578 779Q564 779 549 783T507 802Q483 816 472 820T453 824Q427 824 427 779H343Q343 797 347 825Q354 868 381 894T446 921Q460 921 475 917T517 898Q541 884 552 880T571
876Q597 876 597 921H681Z" />
<glyph unicode="&#xd6;" glyph-name="Odieresis" horiz-adv-x="690" d="M356 114Q411 114 458 158T533 284T562 467Q562 605 453 605Q398 605 351 561T276 435T247 252Q247 114 356 114ZM343 -12Q223 -12 159 57T95 257Q95 388 141 495T272 667T466 731Q586 731
650 662T714 462Q714 331 668 224T537 52T343 -12ZM482 848Q482 813 459 791T398 768Q372 768 356 784T340 825Q340 860 363 883T423 906Q450 906 466 891T482 848ZM702 848Q702 813 679 791T619 768Q592 768 576 783T560 825Q560 860 583 883T643 906Q669 906
685 890T702 848Z" />
<glyph unicode="&#xd7;" glyph-name="multiply" horiz-adv-x="596" d="M426 156L334 267L204 156L133 242L264 353L172 464L273 550L365 439L495 550L566 464L436 353L527 242L426 156Z" />
<glyph unicode="&#xd8;" glyph-name="Oslash" horiz-adv-x="690" d="M10 0L121 116Q95 174 95 257Q95 388 141 495T272 667T466 731Q583 731 646 666L697 719H799L688 602Q714 544 714 462Q714 331 668 224T537 52T343 -12Q226 -12 163 53L112 0H10ZM547 562Q520
611 454 611Q397 611 349 565T272 436T243 249V243L547 562ZM566 475L262 157Q290 108 355 108Q412 108 460 154T537 283T566 470V475Z" />
<glyph unicode="&#xd9;" glyph-name="Ugrave" horiz-adv-x="663" d="M570 719H717L646 315Q624 190 586 120T486 19T330 -12Q219 -12 167 39T115 201Q115 249 126 315L197 719H343L278 346Q263 255 263 218Q263 163 283 139T349 114Q397 114 425 136T471 208T504
346L570 719ZM393 778L275 889H437L531 778H393Z" />
<glyph unicode="&#xda;" glyph-name="Uacute" horiz-adv-x="663" d="M570 719H717L646 315Q624 190 586 120T486 19T330 -12Q219 -12 167 39T115 201Q115 249 126 315L197 719H343L278 346Q263 255 263 218Q263 163 283 139T349 114Q397 114 425 136T471 208T504
346L570 719ZM524 778H385L502 889H664L524 778Z" />
<glyph unicode="&#xdb;" glyph-name="Ucircumflex" horiz-adv-x="663" d="M570 719H717L646 315Q624 190 586 120T486 19T330 -12Q219 -12 167 39T115 201Q115 249 126 315L197 719H343L278 346Q263 255 263 218Q263 163 283 139T349 114Q397 114 425 136T471
208T504 346L570 719ZM525 778L492 831L435 778H290L430 889H569L661 778H525Z" />
<glyph unicode="&#xdc;" glyph-name="Udieresis" horiz-adv-x="663" d="M570 719H717L646 315Q624 190 586 120T486 19T330 -12Q219 -12 167 39T115 201Q115 249 126 315L197 719H343L278 346Q263 255 263 218Q263 163 283 139T349 114Q397 114 425 136T471 208T504
346L570 719ZM425 848Q425 813 402 791T341 768Q315 768 299 784T283 825Q283 860 306 883T366 906Q393 906 409 891T425 848ZM645 848Q645 813 622 791T562 768Q535 768 519 783T503 825Q503 860 526 883T586 906Q612 906 628 890T645 848Z" />
<glyph unicode="&#xdd;" glyph-name="Yacute" horiz-adv-x="553" d="M200 0L245 257L114 719H268L346 393L530 719H685L392 257L347 0H200ZM472 778H333L450 889H612L472 778Z" />
<glyph unicode="&#xde;" glyph-name="Thorn" horiz-adv-x="578" d="M76 0L203 719H350L333 621H338Q465 621 534 567T604 413Q604 330 566 266T457 165T288 128Q260 128 246 130L223 0H76ZM266 245Q290 243 308 243Q372 243 411 287T451 403Q451 506 330 506Q326
506 322 506T312 505L266 245Z" />
<glyph unicode="&#xdf;" glyph-name="germandbls" horiz-adv-x="594" d="M289 119Q322 97 381 97Q410 97 429 114T448 157Q448 177 437 191T408 219T374 247T345 282T333 332Q334 362 346 387T378 435T417 479T448 522T462 570Q462 599 443 616T392 634Q350 634
328 609T296 523L204 0H64L154 517Q175 635 235 689T406 743Q493 743 543 702T594 590Q594 554 582 526T551 476T515 435T484 398T471 360Q471 342 482 327T510 297T543 264T571 222T583 162Q583 82 527 35T376 -12Q316 -12 277 14L289 119Z" />
<glyph unicode="&#xe0;" glyph-name="agrave" horiz-adv-x="551" d="M379 0L376 72Q346 31 305 10T216 -12Q149 -12 110 38T70 173Q70 270 112 351T231 480T407 529Q496 529 571 501L522 224Q505 122 505 0H379ZM418 408Q403 413 385 413Q341 413 303 385T240
305T216 190Q216 147 230 125T273 102Q299 102 326 120T376 171L418 408ZM364 593L252 722H422L491 593H364Z" />
<glyph unicode="&#xe1;" glyph-name="aacute" horiz-adv-x="551" d="M379 0L376 72Q346 31 305 10T216 -12Q149 -12 110 38T70 173Q70 270 112 351T231 480T407 529Q496 529 571 501L522 224Q505 122 505 0H379ZM418 408Q403 413 385 413Q341 413 303 385T240
305T216 190Q216 147 230 125T273 102Q299 102 326 120T376 171L418 408ZM350 593L455 722H598L477 593H350Z" />
<glyph unicode="&#xe2;" glyph-name="acircumflex" horiz-adv-x="551" d="M379 0L376 72Q346 31 305 10T216 -12Q149 -12 110 38T70 173Q70 270 112 351T231 480T407 529Q496 529 571 501L522 224Q505 122 505 0H379ZM418 408Q403 413 385 413Q341 413 303 385T240
305T216 190Q216 147 230 125T273 102Q299 102 326 120T376 171L418 408ZM447 593L417 660L366 593H227L353 722H494L580 593H447Z" />
<glyph unicode="&#xe3;" glyph-name="atilde" horiz-adv-x="551" d="M379 0L376 72Q346 31 305 10T216 -12Q149 -12 110 38T70 173Q70 270 112 351T231 480T407 529Q496 529 571 501L522 224Q505 122 505 0H379ZM418 408Q403 413 385 413Q341 413 303 385T240
305T216 190Q216 147 230 125T273 102Q299 102 326 120T376 171L418 408ZM580 726Q580 707 575 682Q568 640 545 617T486 593Q466 594 448 601T415 617Q385 633 369 633Q357 633 350 622T343 593H259Q259 612 264 637Q271 679 294 702T353 726Q373 725 391 718T424
702Q454 686 470 686Q482 686 489 697T496 726H580Z" />
<glyph unicode="&#xe4;" glyph-name="adieresis" horiz-adv-x="551" d="M379 0L376 72Q346 31 305 10T216 -12Q149 -12 110 38T70 173Q70 270 112 351T231 480T407 529Q496 529 571 501L522 224Q505 122 505 0H379ZM418 408Q403 413 385 413Q341 413 303 385T240
305T216 190Q216 147 230 125T273 102Q299 102 326 120T376 171L418 408ZM374 669Q374 635 351 613T293 590Q267 590 252 605T236 646Q236 680 259 702T317 725Q343 725 358 710T374 669ZM588 669Q588 635 565 613T507 590Q481 590 466 605T450 646Q450 680 473
702T531 725Q557 725 572 710T588 669Z" />
<glyph unicode="&#xe5;" glyph-name="aring" horiz-adv-x="551" d="M379 0L376 72Q346 31 305 10T216 -12Q149 -12 110 38T70 173Q70 270 112 351T231 480T407 529Q496 529 571 501L522 224Q505 122 505 0H379ZM418 408Q403 413 385 413Q341 413 303 385T240 305T216
190Q216 147 230 125T273 102Q299 102 326 120T376 171L418 408ZM433 581Q385 581 358 608T330 683Q330 717 345 746T388 792T453 809Q501 809 528 782T556 707Q556 673 541 644T498 598T433 581ZM439 640Q461 640 474 658T487 702Q487 725 477 737T447 750Q425
750 412 732T399 688Q399 665 409 653T439 640Z" />
<glyph unicode="&#xe6;" glyph-name="ae" horiz-adv-x="811" d="M763 18Q692 -12 598 -12Q530 -12 488 18T426 114Q397 58 339 23T216 -12Q149 -12 110 38T70 173Q70 270 112 351T231 480T407 529Q465 529 536 508L527 460Q559 492 604 510T697 529Q764 529 803
494T842 400Q842 325 778 276T593 207L526 196Q538 101 628 101Q661 101 706 108T789 126L763 18ZM418 408Q403 413 385 413Q341 413 303 385T240 305T216 190Q216 147 230 125T273 102Q299 102 326 120T376 170L418 408ZM583 298Q644 308 675 329T707 382Q707
401 695 413T661 425Q617 425 582 389T531 290L583 298Z" />
<glyph unicode="&#xe7;" glyph-name="ccedilla" horiz-adv-x="451" d="M423 13Q362 -12 280 -12Q178 -12 125 41T71 196Q71 286 108 361T213 483T366 529Q436 529 493 503L483 392Q424 413 370 413Q301 413 259 357T217 209Q217 159 245 132T323 104Q383 104 455
124L423 13ZM159 -162Q195 -175 231 -175Q262 -175 279 -166T296 -138Q296 -126 284 -119T250 -112Q219 -112 191 -119L185 -112L259 24H330L287 -53Q292 -52 306 -52Q346 -52 368 -73T391 -132Q391 -187 349 -216T232 -246Q211 -246 193 -242T159 -233V-162Z"
/>
<glyph unicode="&#xe8;" glyph-name="egrave" horiz-adv-x="495" d="M267 298Q328 308 359 329T391 382Q391 401 379 413T345 425Q301 425 266 389T215 290L267 298ZM447 18Q374 -12 280 -12Q180 -12 126 43T71 200Q71 287 109 361T216 482T370 529Q444 529 485
495T526 400Q526 325 462 276T277 207L210 196Q222 101 310 101Q344 101 390 108T473 126L447 18ZM325 593L213 722H383L452 593H325Z" />
<glyph unicode="&#xe9;" glyph-name="eacute" horiz-adv-x="495" d="M267 298Q328 308 359 329T391 382Q391 401 379 413T345 425Q301 425 266 389T215 290L267 298ZM447 18Q374 -12 280 -12Q180 -12 126 43T71 200Q71 287 109 361T216 482T370 529Q444 529 485
495T526 400Q526 325 462 276T277 207L210 196Q222 101 310 101Q344 101 390 108T473 126L447 18ZM326 593L431 722H574L453 593H326Z" />
<glyph unicode="&#xea;" glyph-name="ecircumflex" horiz-adv-x="495" d="M267 298Q328 308 359 329T391 382Q391 401 379 413T345 425Q301 425 266 389T215 290L267 298ZM447 18Q374 -12 280 -12Q180 -12 126 43T71 200Q71 287 109 361T216 482T370 529Q444 529
485 495T526 400Q526 325 462 276T277 207L210 196Q222 101 310 101Q344 101 390 108T473 126L447 18ZM426 593L396 660L345 593H206L332 722H473L559 593H426Z" />
<glyph unicode="&#xeb;" glyph-name="edieresis" horiz-adv-x="495" d="M267 298Q328 308 359 329T391 382Q391 401 379 413T345 425Q301 425 266 389T215 290L267 298ZM447 18Q374 -12 280 -12Q180 -12 126 43T71 200Q71 287 109 361T216 482T370 529Q444 529
485 495T526 400Q526 325 462 276T277 207L210 196Q222 101 310 101Q344 101 390 108T473 126L447 18ZM329 669Q329 635 306 613T248 590Q222 590 207 605T191 646Q191 680 214 702T272 725Q298 725 313 710T329 669ZM543 669Q543 635 520 613T462 590Q436 590
421 605T405 646Q405 680 428 702T486 725Q512 725 527 710T543 669Z" />
<glyph unicode="&#xec;" glyph-name="igrave" horiz-adv-x="273" d="M64 0L155 518H295L204 0H64ZM166 593L54 722H224L293 593H166Z" />
<glyph unicode="&#xed;" glyph-name="iacute" horiz-adv-x="273" d="M64 0L155 518H295L204 0H64ZM173 593L278 722H421L300 593H173Z" />
<glyph unicode="&#xee;" glyph-name="icircumflex" horiz-adv-x="273" d="M64 0L155 518H295L204 0H64ZM285 593L255 660L204 593H65L191 722H332L418 593H285Z" />
<glyph unicode="&#xef;" glyph-name="idieresis" horiz-adv-x="273" d="M64 0L155 518H295L204 0H64ZM210 669Q210 635 187 613T129 590Q103 590 88 605T72 646Q72 680 95 702T153 725Q179 725 194 710T210 669ZM424 669Q424 635 401 613T343 590Q317 590 302
605T286 646Q286 680 309 702T367 725Q393 725 408 710T424 669Z" />
<glyph unicode="&#xf0;" glyph-name="eth" horiz-adv-x="559" d="M491 636Q530 581 548 516T567 369Q567 258 531 172T428 37T270 -12Q175 -12 123 39T71 186Q71 270 103 338T194 447T330 487Q362 487 391 476T441 444Q415 535 377 564L290 513L254 570L327 615Q311
626 283 633T226 642L262 737Q314 737 361 723T437 685L522 737L560 679L491 636ZM288 92Q344 92 380 148T416 294Q416 384 340 384Q305 384 276 360T230 290T213 188Q213 139 231 116T288 92Z" />
<glyph unicode="&#xf1;" glyph-name="ntilde" horiz-adv-x="578" d="M373 0L421 273Q426 305 426 326Q426 370 405 390T336 410Q311 410 275 401L204 0H64L149 484Q218 508 274 518T387 529Q481 529 527 491T574 374Q574 342 569 316L513 0H373ZM557 726Q557 707
552 682Q545 640 522 617T463 593Q443 594 425 601T392 617Q362 633 346 633Q334 633 327 622T320 593H236Q236 612 241 637Q248 679 271 702T330 726Q350 725 368 718T401 702Q431 686 447 686Q459 686 466 697T473 726H557Z" />
<glyph unicode="&#xf2;" glyph-name="ograve" horiz-adv-x="564" d="M278 -12Q177 -12 124 40T71 193Q71 285 108 361T213 483T368 529Q469 529 522 477T575 324Q575 232 538 156T433 34T278 -12ZM291 104Q329 104 360 132T411 212T430 326Q430 371 413 392T355
413Q317 413 286 385T235 305T216 191Q216 146 233 125T291 104ZM340 593L228 722H398L467 593H340Z" />
<glyph unicode="&#xf3;" glyph-name="oacute" horiz-adv-x="564" d="M278 -12Q177 -12 124 40T71 193Q71 285 108 361T213 483T368 529Q469 529 522 477T575 324Q575 232 538 156T433 34T278 -12ZM291 104Q329 104 360 132T411 212T430 326Q430 371 413 392T355
413Q317 413 286 385T235 305T216 191Q216 146 233 125T291 104ZM347 593L452 722H595L474 593H347Z" />
<glyph unicode="&#xf4;" glyph-name="ocircumflex" horiz-adv-x="564" d="M278 -12Q177 -12 124 40T71 193Q71 285 108 361T213 483T368 529Q469 529 522 477T575 324Q575 232 538 156T433 34T278 -12ZM291 104Q329 104 360 132T411 212T430 326Q430 371 413 392T355
413Q317 413 286 385T235 305T216 191Q216 146 233 125T291 104ZM451 593L421 660L370 593H231L357 722H498L584 593H451Z" />
<glyph unicode="&#xf5;" glyph-name="otilde" horiz-adv-x="564" d="M278 -12Q177 -12 124 40T71 193Q71 285 108 361T213 483T368 529Q469 529 522 477T575 324Q575 232 538 156T433 34T278 -12ZM291 104Q329 104 360 132T411 212T430 326Q430 371 413 392T355
413Q317 413 286 385T235 305T216 191Q216 146 233 125T291 104ZM594 726Q594 707 589 682Q582 640 559 617T500 593Q480 594 462 601T429 617Q399 633 383 633Q371 633 364 622T357 593H273Q273 612 278 637Q285 679 308 702T367 726Q387 725 405 718T438 702Q468
686 484 686Q496 686 503 697T510 726H594Z" />
<glyph unicode="&#xf6;" glyph-name="odieresis" horiz-adv-x="564" d="M278 -12Q177 -12 124 40T71 193Q71 285 108 361T213 483T368 529Q469 529 522 477T575 324Q575 232 538 156T433 34T278 -12ZM291 104Q329 104 360 132T411 212T430 326Q430 371 413 392T355
413Q317 413 286 385T235 305T216 191Q216 146 233 125T291 104ZM383 669Q383 635 360 613T302 590Q276 590 261 605T245 646Q245 680 268 702T326 725Q352 725 367 710T383 669ZM597 669Q597 635 574 613T516 590Q490 590 475 605T459 646Q459 680 482 702T540
725Q566 725 581 710T597 669Z" />
<glyph unicode="&#xf7;" glyph-name="divide" horiz-adv-x="596" d="M123 293L144 414H580L559 293H123ZM400 161Q400 119 372 92T301 65Q270 65 251 84T231 134Q231 176 259 203T330 230Q361 230 380 211T400 161ZM473 573Q473 531 445 504T374 477Q343 477 324
496T304 546Q304 588 332 615T403 642Q434 642 453 623T473 573Z" />
<glyph unicode="&#xf8;" glyph-name="oslash" horiz-adv-x="564" d="M553 432Q575 386 575 324Q575 232 538 156T433 34T278 -12Q176 -12 123 41L77 0H0L93 84Q71 128 71 193Q71 285 108 361T213 483T368 529Q471 529 523 475L570 518H647L553 432ZM222 132Q241
103 291 103Q329 103 362 132T417 212T438 328L222 132ZM423 385Q403 414 355 414Q317 414 284 385T229 305T208 189L423 385Z" />
<glyph unicode="&#xf9;" glyph-name="ugrave" horiz-adv-x="569" d="M452 518H592L503 18Q406 -12 303 -12Q193 -12 142 28T91 158Q91 188 99 239L148 518H288L240 243Q234 212 234 188Q234 144 255 125T327 105Q354 105 381 110L452 518ZM324 593L212 722H382L451
593H324Z" />
<glyph unicode="&#xfa;" glyph-name="uacute" horiz-adv-x="569" d="M452 518H592L503 18Q406 -12 303 -12Q193 -12 142 28T91 158Q91 188 99 239L148 518H288L240 243Q234 212 234 188Q234 144 255 125T327 105Q354 105 381 110L452 518ZM314 593L419 722H562L441
593H314Z" />
<glyph unicode="&#xfb;" glyph-name="ucircumflex" horiz-adv-x="569" d="M452 518H592L503 18Q406 -12 303 -12Q193 -12 142 28T91 158Q91 188 99 239L148 518H288L240 243Q234 212 234 188Q234 144 255 125T327 105Q354 105 381 110L452 518ZM427 593L397 660L346
593H207L333 722H474L560 593H427Z" />
<glyph unicode="&#xfc;" glyph-name="udieresis" horiz-adv-x="569" d="M452 518H592L503 18Q406 -12 303 -12Q193 -12 142 28T91 158Q91 188 99 239L148 518H288L240 243Q234 212 234 188Q234 144 255 125T327 105Q354 105 381 110L452 518ZM360 669Q360 635
337 613T279 590Q253 590 238 605T222 646Q222 680 245 702T303 725Q329 725 344 710T360 669ZM574 669Q574 635 551 613T493 590Q467 590 452 605T436 646Q436 680 459 702T517 725Q543 725 558 710T574 669Z" />
<glyph unicode="&#xfd;" glyph-name="yacute" horiz-adv-x="519" d="M47 -238L180 0L86 518H238L277 142L458 518H608L188 -238H47ZM299 593L404 722H547L426 593H299Z" />
<glyph unicode="&#xfe;" glyph-name="thorn" horiz-adv-x="557" d="M22 -238L194 737H334L295 518Q337 529 379 529Q467 529 517 473T568 319Q568 231 534 156T436 34T294 -12Q251 -12 204 2L162 -238H22ZM223 111Q239 104 271 104Q341 105 381 159T422 306Q422
413 327 413Q307 413 275 406L223 111Z" />
<glyph unicode="&#xff;" glyph-name="ydieresis" horiz-adv-x="519" d="M47 -238L180 0L86 518H238L277 142L458 518H608L188 -238H47ZM330 669Q330 635 307 613T249 590Q223 590 208 605T192 646Q192 680 215 702T273 725Q299 725 314 710T330 669ZM544 669Q544
635 521 613T463 590Q437 590 422 605T406 646Q406 680 429 702T487 725Q513 725 528 710T544 669Z" />
<glyph unicode="&#x131;" glyph-name="dotlessi" horiz-adv-x="273" d="M64 0L155 518H295L204 0H64Z" />
<glyph unicode="&#x152;" glyph-name="OE" horiz-adv-x="892" d="M547 591Q504 606 453 606Q392 606 347 562T274 432T247 252Q247 113 358 113Q424 113 468 137L547 591ZM443 0Q397 -12 341 -12Q222 -12 159 57T95 257Q95 349 120 435T193 589T310 693T466 731Q519
731 565 719H970L948 593H695L665 423H869L847 297H642L612 126H874L852 0H443Z" />
<glyph unicode="&#x153;" glyph-name="oe" horiz-adv-x="849" d="M801 18Q728 -12 634 -12Q574 -12 529 9T458 70Q418 27 375 8T274 -12Q176 -12 124 41T71 193Q71 285 108 361T213 483T368 529Q426 529 463 509T525 446Q566 486 617 507T724 529Q798 529 839
495T880 400Q880 325 816 276T631 207L564 196Q576 101 664 101Q698 101 744 108T827 126L801 18ZM291 104Q329 104 360 132T411 212T430 326Q430 372 413 392T355 413Q317 413 286 385T235 305T216 191Q216 145 233 125T291 104ZM621 298Q682 308 713 329T745
382Q745 401 733 413T699 425Q655 425 620 389T569 290L621 298Z" />
<glyph unicode="&#x160;" glyph-name="Scaron" horiz-adv-x="527" d="M62 157Q133 112 230 112Q296 112 335 142T375 222Q375 244 366 258T336 288T272 329Q197 373 165 416T133 518Q133 615 206 673T402 731Q481 731 574 702L567 576Q529 592 484 601T401 611Q345
611 316 592T286 537Q286 509 305 487T373 437Q440 399 473 369T520 305T534 225Q534 157 497 104T388 19T223 -12Q174 -12 134 -4T49 24L62 157ZM490 778H348L252 889H388L421 836L478 889H624L490 778Z" />
<glyph unicode="&#x161;" glyph-name="scaron" horiz-adv-x="442" d="M60 137Q130 98 204 98Q242 98 266 115T291 160Q291 179 276 193T219 224Q163 248 139 278T114 353Q114 404 140 443T216 506T331 529Q371 529 408 521T473 497L461 390Q413 410 384 417T320
424Q289 424 272 412T254 379Q254 357 267 344T320 313Q380 286 406 255T433 180Q433 93 368 41T196 -12Q153 -12 113 -2T47 27L60 137ZM260 593L169 722H303L338 653L389 722H527L407 593H260Z" />
<glyph unicode="&#x178;" glyph-name="Ydieresis" horiz-adv-x="553" d="M200 0L245 257L114 719H268L346 393L530 719H685L392 257L347 0H200ZM376 848Q376 813 353 791T292 768Q266 768 250 784T234 825Q234 860 257 883T317 906Q344 906 360 891T376 848ZM596
848Q596 813 573 791T513 768Q486 768 470 783T454 825Q454 860 477 883T537 906Q563 906 579 890T596 848Z" />
<glyph unicode="&#x17d;" glyph-name="Zcaron" horiz-adv-x="537" d="M24 0L18 12L415 593H145L167 719H645L651 707L254 126H528L506 0H24ZM486 778H344L248 889H384L417 836L474 889H620L486 778Z" />
<glyph unicode="&#x17e;" glyph-name="zcaron" horiz-adv-x="465" d="M22 0L17 12L312 409H110L129 518H525L530 506L235 109H453L434 0H22ZM275 593L184 722H318L353 653L404 722H542L422 593H275Z" />
<glyph unicode="&#x192;" glyph-name="florin" horiz-adv-x="596" d="M63 -13Q73 -15 105 -17T156 -20Q198 -20 217 -1T242 67L277 369H182V477H290L295 518Q307 620 358 669T503 719Q549 719 590 707L599 595Q587 597 560 599T516 602Q475 602 457 584T433 515L428
477H534V369H416L380 64Q368 -37 316 -87T168 -137Q125 -137 82 -125L63 -13Z" />
<glyph unicode="&#x2c6;" glyph-name="circumflex" horiz-adv-x="578" d="M329 593L299 660L248 593H109L235 722H376L462 593H329Z" />
<glyph unicode="&#x2c7;" glyph-name="caron" horiz-adv-x="578" d="M195 593L104 722H238L273 653L324 722H462L342 593H195Z" />
<glyph unicode="&#x2da;" glyph-name="ring" horiz-adv-x="578" d="M272 581Q224 581 197 608T169 683Q169 717 184 746T227 792T292 809Q340 809 367 782T395 707Q395 673 380 644T337 598T272 581ZM278 640Q300 640 313 658T326 702Q326 725 316 737T286 750Q264
750 251 732T238 688Q238 665 248 653T278 640Z" />
<glyph unicode="&#x2dc;" glyph-name="tilde" horiz-adv-x="578" d="M445 726Q445 707 440 682Q433 640 410 617T351 593Q331 594 313 601T280 617Q250 633 234 633Q222 633 215 622T208 593H124Q124 612 129 637Q136 679 159 702T218 726Q238 725 256 718T289
702Q319 686 335 686Q347 686 354 697T361 726H445Z" />
<glyph unicode="&#x2013;" glyph-name="endash" horiz-adv-x="500" d="M40 215L60 336H560L540 215H40Z" />
<glyph unicode="&#x2014;" glyph-name="emdash" horiz-adv-x="1000" d="M40 215L60 336H1060L1040 215H40Z" />
<glyph unicode="&#x2018;" glyph-name="quoteleft" horiz-adv-x="256" d="M150 513Q173 651 236 749H351Q305 658 280 513H150Z" />
<glyph unicode="&#x2019;" glyph-name="quoteright" horiz-adv-x="256" d="M128 513Q174 604 199 749H329Q306 611 243 513H128Z" />
<glyph unicode="&#x201a;" glyph-name="quotesinglbase" horiz-adv-x="256" d="M15 -117Q61 -26 86 119H216Q193 -19 130 -117H15Z" />
<glyph unicode="&#x201c;" glyph-name="quotedblleft" horiz-adv-x="468" d="M150 513Q173 651 236 749H351Q305 658 280 513H150ZM362 513Q385 651 448 749H563Q517 658 492 513H362Z" />
<glyph unicode="&#x201d;" glyph-name="quotedblright" horiz-adv-x="468" d="M128 513Q174 604 199 749H329Q306 611 243 513H128ZM340 513Q386 604 411 749H541Q518 611 455 513H340Z" />
<glyph unicode="&#x201e;" glyph-name="quotedblbase" horiz-adv-x="468" d="M15 -117Q61 -26 86 119H216Q193 -19 130 -117H15ZM227 -117Q273 -26 298 119H428Q405 -19 342 -117H227Z" />
<glyph unicode="&#x2020;" glyph-name="dagger" horiz-adv-x="541" d="M169 -172L263 360H114L136 483H285L327 719H464L422 483H571L549 360H400L306 -172H169Z" />
<glyph unicode="&#x2021;" glyph-name="daggerdbl" horiz-adv-x="541" d="M169 -172L206 39H58L80 162H228L268 385H119L141 508H290L327 719H464L426 508H576L554 385H404L365 162H515L493 39H343L306 -172H169Z" />
<glyph unicode="&#x2022;" glyph-name="bullet" horiz-adv-x="444" d="M281 190Q215 190 173 232T131 340Q131 405 173 447T281 490Q347 490 389 448T431 340Q431 275 389 233T281 190Z" />
<glyph unicode="&#x2026;" glyph-name="ellipsis" horiz-adv-x="1000" d="M257 80Q257 40 230 14T162 -12Q132 -12 114 6T95 53Q95 93 122 119T190 145Q220 145 238 127T257 80ZM590 80Q590 40 563 14T495 -12Q465 -12 447 6T428 53Q428 93 455 119T523 145Q553
145 571 127T590 80ZM925 80Q925 40 898 14T830 -12Q800 -12 782 6T763 53Q763 93 790 119T858 145Q888 145 906 127T925 80Z" />
<glyph unicode="&#x2030;" glyph-name="perthousand" horiz-adv-x="1471" d="M273 0L761 711H900L412 0H273ZM830 83Q856 83 875 103T906 163T918 245Q918 279 905 298T869 317Q843 317 824 297T793 237T781 155Q781 121 794 102T830 83ZM817 -12Q742 -12 701
32T659 152Q659 223 686 282T765 377T882 412Q957 412 998 368T1040 248Q1040 177 1013 118T934 23T817 -12ZM1258 83Q1284 83 1303 103T1334 163T1346 245Q1346 279 1333 298T1297 317Q1271 317 1252 297T1221 237T1209 155Q1209 121 1222 102T1258 83ZM1245 -12Q1170
-12 1129 32T1087 152Q1087 223 1114 282T1193 377T1310 412Q1385 412 1426 368T1468 248Q1468 177 1441 118T1362 23T1245 -12ZM301 390Q327 390 346 410T377 470T389 552Q389 586 376 605T340 624Q314 624 295 604T264 544T252 462Q252 428 265 409T301 390ZM288
295Q213 295 172 339T130 459Q130 530 157 589T236 684T353 719Q428 719 469 675T511 555Q511 484 484 425T405 330T288 295Z" />
<glyph unicode="&#x2039;" glyph-name="guilsinglleft" horiz-adv-x="375" d="M214 46L83 269L293 488H448L235 260L360 46H214Z" />
<glyph unicode="&#x203a;" glyph-name="guilsinglright" horiz-adv-x="375" d="M28 46L241 274L116 488H262L393 265L183 46H28Z" />
<glyph unicode="&#x2044;" glyph-name="fraction" horiz-adv-x="0" d="M-314 0L174 711H313L-175 0H-314Z" />
<glyph unicode="&#x2070;" glyph-name="zerosuperior" horiz-adv-x="446" d="M277 390Q303 390 322 410T353 470T365 552Q365 586 352 605T316 624Q290 624 271 604T240 544T228 462Q228 428 241 409T277 390ZM264 295Q189 295 148 339T106 459Q106 530 133 589T212
684T329 719Q404 719 445 675T487 555Q487 484 460 425T381 330T264 295Z" />
<glyph unicode="&#x2074;" glyph-name="foursuperior" horiz-adv-x="446" d="M289 307L302 380H94L86 398L298 719L376 676L234 462H317L334 538H425L412 462H458L443 380H397L384 307H289Z" />
<glyph unicode="&#x20ac;" glyph-name="Euro" horiz-adv-x="596" d="M590 19Q501 -12 416 -12Q303 -12 238 51T162 232H75L90 316H162Q165 355 171 391H103L118 475H194Q236 590 321 654T518 719Q612 719 682 688L666 564Q594 594 516 594Q458 594 415 564T345
475H554L539 391H321Q313 343 312 316H526L511 232H315Q323 170 355 142T450 113Q490 113 538 119T617 135L590 19Z" />
<glyph unicode="&#x2122;" glyph-name="trademark" horiz-adv-x="793" d="M209 306V612H113V707H408V612H312V306H209ZM748 306L735 511L679 380H603L557 507L547 306H447L472 707H572L652 516L726 707H826L848 306H748Z" />
<glyph unicode="&#x2212;" glyph-name="minus" horiz-adv-x="596" d="M123 293L144 414H580L559 293H123Z" />
<glyph unicode="&#xfb00;" glyph-name="f_f" horiz-adv-x="675" d="M401 0L473 410H305L233 0H93L165 410H83L102 518H184L189 543Q208 637 259 687T388 738Q427 738 461 728L465 619Q432 626 406 626Q374 626 355 605T328 540L324 518H492L497 543Q517 640 576
691T727 743Q767 743 807 731L811 624Q766 631 738 631Q693 631 669 609T636 540L632 518H752L733 410H613L541 0H401Z" />
<glyph unicode="&#xfb01;" glyph-name="fi" horiz-adv-x="610" d="M401 0L473 410H305L233 0H93L165 410H83L102 518H184L188 542Q205 639 272 691T449 743Q538 743 613 717V606Q583 617 544 624T467 631Q345 631 327 539L323 518H632L541 0H401Z" />
<glyph unicode="&#xfb02;" glyph-name="fl" horiz-adv-x="610" d="M401 0L473 410H305L233 0H93L165 410H83L102 518H184L189 543Q209 640 263 691T399 743Q431 743 459 736L463 624Q443 631 414 631Q376 631 357 611T328 540L324 518H492L530 737H670L541 0H401Z" />
<glyph unicode="&#xfb03;" glyph-name="f_f_i" horiz-adv-x="918" d="M709 0L781 410H613L541 0H401L473 410H305L233 0H93L165 410H83L102 518H184L189 543Q208 637 259 687T388 738Q427 738 461 728L465 619Q432 626 406 626Q374 626 355 605T328 540L324 518H492L496
542Q513 639 580 691T757 743Q844 743 921 717V606Q891 617 852 624T775 631Q653 631 635 539L631 518H940L849 0H709Z" />
<glyph unicode="&#xfb04;" glyph-name="f_f_l" horiz-adv-x="918" d="M709 0L781 410H613L541 0H401L473 410H305L233 0H93L165 410H83L102 518H184L189 543Q208 637 259 687T388 738Q427 738 461 728L465 619Q432 626 406 626Q374 626 355 605T328 540L324 518H492L497
543Q516 640 570 691T707 743Q741 743 767 736L771 624Q751 631 722 631Q684 631 665 611T636 540L632 518H800L838 737H978L849 0H709Z" />
</font>
</defs>
</svg>
